<svg width="616" height="405" viewBox="0 0 616 405" fill="none" xmlns="http://www.w3.org/2000/svg">
<rect x="211" y="43" width="405" height="16" rx="8" fill="#E5E5E5"/>
<rect x="211" y="43" width="156.145" height="16" rx="8" fill="#97BC59"/>
<circle cx="34" cy="28" r="28" fill="#97BC59"/>
<path d="M33.3089 40V15.88L34.4609 17.104H27.3689V14.8H35.9009V40H33.3089ZM53.1106 40V21.1H55.7026L64.2706 35.608H63.1906L71.9026 21.1H74.2786V40H71.9386V24.016L72.4066 24.232L64.2706 37.696H63.1186L54.9106 24.088L55.4506 23.98V40H53.1106ZM78.096 39.964L78.276 37.768C78.444 37.792 78.6 37.828 78.744 37.876C78.912 37.9 79.056 37.912 79.176 37.912C79.944 37.912 80.556 37.624 81.012 37.048C81.492 36.472 81.852 35.704 82.092 34.744C82.332 33.784 82.5 32.704 82.596 31.504C82.692 30.28 82.776 29.056 82.848 27.832L83.172 21.1H97.032V40H94.476V22.576L95.124 23.332H84.828L85.44 22.54L85.152 28.012C85.08 29.644 84.948 31.204 84.756 32.692C84.588 34.18 84.312 35.488 83.928 36.616C83.568 37.744 83.064 38.632 82.416 39.28C81.768 39.904 80.94 40.216 79.932 40.216C79.644 40.216 79.344 40.192 79.032 40.144C78.744 40.096 78.432 40.036 78.096 39.964ZM104.298 40V21.1H106.854V29.452H118.77V21.1H121.326V40H118.77V31.648H106.854V40H104.298Z" fill="black"/>
<path d="M8.46597 73.388V65.666H3.91197L3.80397 67.772C3.77997 68.408 3.73797 69.032 3.67797 69.644C3.62997 70.256 3.53997 70.82 3.40797 71.336C3.28797 71.84 3.11397 72.254 2.88597 72.578C2.65797 72.89 2.36397 73.07 2.00397 73.118L0.725969 72.884C1.09797 72.896 1.40397 72.764 1.64397 72.488C1.88397 72.2 2.06997 71.81 2.20197 71.318C2.33397 70.826 2.42997 70.268 2.48997 69.644C2.54997 69.008 2.59797 68.36 2.63397 67.7L2.75997 64.55H9.74397V73.388H8.46597ZM0.329969 76.286V72.884H11.22V76.286H10.014V74H1.53597V76.286H0.329969ZM17.7606 74.09C16.7766 74.09 15.9126 73.886 15.1686 73.478C14.4246 73.058 13.8426 72.488 13.4226 71.768C13.0026 71.036 12.7926 70.202 12.7926 69.266C12.7926 68.33 12.9906 67.502 13.3866 66.782C13.7946 66.062 14.3466 65.498 15.0426 65.09C15.7506 64.67 16.5426 64.46 17.4186 64.46C18.3066 64.46 19.0926 64.664 19.7766 65.072C20.4726 65.468 21.0186 66.032 21.4146 66.764C21.8106 67.484 22.0086 68.318 22.0086 69.266C22.0086 69.326 22.0026 69.392 21.9906 69.464C21.9906 69.524 21.9906 69.59 21.9906 69.662H13.7646V68.708H21.3066L20.8026 69.086C20.8026 68.402 20.6526 67.796 20.3526 67.268C20.0646 66.728 19.6686 66.308 19.1646 66.008C18.6606 65.708 18.0786 65.558 17.4186 65.558C16.7706 65.558 16.1886 65.708 15.6726 66.008C15.1566 66.308 14.7546 66.728 14.4666 67.268C14.1786 67.808 14.0346 68.426 14.0346 69.122V69.32C14.0346 70.04 14.1906 70.676 14.5026 71.228C14.8266 71.768 15.2706 72.194 15.8346 72.506C16.4106 72.806 17.0646 72.956 17.7966 72.956C18.3726 72.956 18.9066 72.854 19.3986 72.65C19.9026 72.446 20.3346 72.134 20.6946 71.714L21.4146 72.542C20.9946 73.046 20.4666 73.43 19.8306 73.694C19.2066 73.958 18.5166 74.09 17.7606 74.09ZM29.7155 74.09C28.8995 74.09 28.1615 73.904 27.5015 73.532C26.8415 73.148 26.3135 72.602 25.9175 71.894C25.5335 71.174 25.3415 70.298 25.3415 69.266C25.3415 68.234 25.5335 67.364 25.9175 66.656C26.3015 65.936 26.8235 65.39 27.4835 65.018C28.1435 64.646 28.8875 64.46 29.7155 64.46C30.6155 64.46 31.4195 64.664 32.1275 65.072C32.8475 65.468 33.4115 66.032 33.8195 66.764C34.2275 67.484 34.4315 68.318 34.4315 69.266C34.4315 70.226 34.2275 71.066 33.8195 71.786C33.4115 72.506 32.8475 73.07 32.1275 73.478C31.4195 73.886 30.6155 74.09 29.7155 74.09ZM24.8375 77.492V64.55H26.0615V67.394L25.9355 69.284L26.1155 71.192V77.492H24.8375ZM29.6255 72.956C30.2975 72.956 30.8975 72.806 31.4255 72.506C31.9535 72.194 32.3735 71.762 32.6855 71.21C32.9975 70.646 33.1535 69.998 33.1535 69.266C33.1535 68.534 32.9975 67.892 32.6855 67.34C32.3735 66.788 31.9535 66.356 31.4255 66.044C30.8975 65.732 30.2975 65.576 29.6255 65.576C28.9535 65.576 28.3475 65.732 27.8075 66.044C27.2795 66.356 26.8595 66.788 26.5475 67.34C26.2475 67.892 26.0975 68.534 26.0975 69.266C26.0975 69.998 26.2475 70.646 26.5475 71.21C26.8595 71.762 27.2795 72.194 27.8075 72.506C28.3475 72.806 28.9535 72.956 29.6255 72.956ZM41.2274 74.09C40.2434 74.09 39.3794 73.886 38.6354 73.478C37.8914 73.058 37.3094 72.488 36.8894 71.768C36.4694 71.036 36.2594 70.202 36.2594 69.266C36.2594 68.33 36.4574 67.502 36.8534 66.782C37.2614 66.062 37.8134 65.498 38.5094 65.09C39.2174 64.67 40.0094 64.46 40.8854 64.46C41.7734 64.46 42.5594 64.664 43.2434 65.072C43.9394 65.468 44.4854 66.032 44.8814 66.764C45.2774 67.484 45.4754 68.318 45.4754 69.266C45.4754 69.326 45.4694 69.392 45.4574 69.464C45.4574 69.524 45.4574 69.59 45.4574 69.662H37.2314V68.708H44.7734L44.2694 69.086C44.2694 68.402 44.1194 67.796 43.8194 67.268C43.5314 66.728 43.1354 66.308 42.6314 66.008C42.1274 65.708 41.5454 65.558 40.8854 65.558C40.2374 65.558 39.6554 65.708 39.1394 66.008C38.6234 66.308 38.2214 66.728 37.9334 67.268C37.6454 67.808 37.5014 68.426 37.5014 69.122V69.32C37.5014 70.04 37.6574 70.676 37.9694 71.228C38.2934 71.768 38.7374 72.194 39.3014 72.506C39.8774 72.806 40.5314 72.956 41.2634 72.956C41.8394 72.956 42.3734 72.854 42.8654 72.65C43.3694 72.446 43.8014 72.134 44.1614 71.714L44.8814 72.542C44.4614 73.046 43.9334 73.43 43.2974 73.694C42.6734 73.958 41.9834 74.09 41.2274 74.09ZM48.3043 74V64.55H52.4803C53.5483 64.55 54.3883 64.754 55.0003 65.162C55.6243 65.57 55.9363 66.17 55.9363 66.962C55.9363 67.73 55.6423 68.324 55.0543 68.744C54.4663 69.152 53.6923 69.356 52.7323 69.356L52.9843 68.978C54.1123 68.978 54.9403 69.188 55.4683 69.608C55.9963 70.028 56.2603 70.634 56.2603 71.426C56.2603 72.242 55.9603 72.878 55.3603 73.334C54.7723 73.778 53.8543 74 52.6063 74H48.3043ZM49.5463 72.992H52.5523C53.3563 72.992 53.9623 72.866 54.3703 72.614C54.7903 72.35 55.0003 71.93 55.0003 71.354C55.0003 70.778 54.8143 70.358 54.4423 70.094C54.0703 69.83 53.4823 69.698 52.6783 69.698H49.5463V72.992ZM49.5463 68.744H52.3903C53.1223 68.744 53.6803 68.606 54.0643 68.33C54.4603 68.054 54.6583 67.652 54.6583 67.124C54.6583 66.596 54.4603 66.2 54.0643 65.936C53.6803 65.672 53.1223 65.54 52.3903 65.54H49.5463V68.744ZM63.3235 67.88C64.5115 67.892 65.4115 68.156 66.0235 68.672C66.6475 69.188 66.9595 69.932 66.9595 70.904C66.9595 71.912 66.6235 72.686 65.9515 73.226C65.2915 73.766 64.3315 74.03 63.0715 74.018L59.2555 74V64.55H60.5335V67.844L63.3235 67.88ZM62.9995 73.046C63.8755 73.058 64.5355 72.884 64.9795 72.524C65.4355 72.152 65.6635 71.612 65.6635 70.904C65.6635 70.196 65.4415 69.68 64.9975 69.356C64.5535 69.02 63.8875 68.846 62.9995 68.834L60.5335 68.798V73.01L62.9995 73.046ZM73.4481 74.09C72.4641 74.09 71.6001 73.886 70.8561 73.478C70.1121 73.058 69.5301 72.488 69.1101 71.768C68.6901 71.036 68.4801 70.202 68.4801 69.266C68.4801 68.33 68.6781 67.502 69.0741 66.782C69.4821 66.062 70.0341 65.498 70.7301 65.09C71.4381 64.67 72.2301 64.46 73.1061 64.46C73.9941 64.46 74.7801 64.664 75.4641 65.072C76.1601 65.468 76.7061 66.032 77.1021 66.764C77.4981 67.484 77.6961 68.318 77.6961 69.266C77.6961 69.326 77.6901 69.392 77.6781 69.464C77.6781 69.524 77.6781 69.59 77.6781 69.662H69.4521V68.708H76.9941L76.4901 69.086C76.4901 68.402 76.3401 67.796 76.0401 67.268C75.7521 66.728 75.3561 66.308 74.8521 66.008C74.3481 65.708 73.7661 65.558 73.1061 65.558C72.4581 65.558 71.8761 65.708 71.3601 66.008C70.8441 66.308 70.4421 66.728 70.1541 67.268C69.8661 67.808 69.7221 68.426 69.7221 69.122V69.32C69.7221 70.04 69.8781 70.676 70.1901 71.228C70.5141 71.768 70.9581 72.194 71.5221 72.506C72.0981 72.806 72.7521 72.956 73.4841 72.956C74.0601 72.956 74.5941 72.854 75.0861 72.65C75.5901 72.446 76.0221 72.134 76.3821 71.714L77.1021 72.542C76.6821 73.046 76.1541 73.43 75.5181 73.694C74.8941 73.958 74.2041 74.09 73.4481 74.09ZM80.525 74V64.55H84.701C85.769 64.55 86.609 64.754 87.221 65.162C87.845 65.57 88.157 66.17 88.157 66.962C88.157 67.73 87.863 68.324 87.275 68.744C86.687 69.152 85.913 69.356 84.953 69.356L85.205 68.978C86.333 68.978 87.161 69.188 87.689 69.608C88.217 70.028 88.481 70.634 88.481 71.426C88.481 72.242 88.181 72.878 87.581 73.334C86.993 73.778 86.075 74 84.827 74H80.525ZM81.767 72.992H84.773C85.577 72.992 86.183 72.866 86.591 72.614C87.011 72.35 87.221 71.93 87.221 71.354C87.221 70.778 87.035 70.358 86.663 70.094C86.291 69.83 85.703 69.698 84.899 69.698H81.767V72.992ZM81.767 68.744H84.611C85.343 68.744 85.901 68.606 86.285 68.33C86.681 68.054 86.879 67.652 86.879 67.124C86.879 66.596 86.681 66.2 86.285 65.936C85.901 65.672 85.343 65.54 84.611 65.54H81.767V68.744ZM96.1871 74V64.55H104.683V74H103.405V65.324L103.729 65.666H97.1411L97.4651 65.324V74H96.1871ZM112.204 74.09C111.292 74.09 110.47 73.886 109.738 73.478C109.018 73.058 108.448 72.488 108.028 71.768C107.608 71.036 107.398 70.202 107.398 69.266C107.398 68.318 107.608 67.484 108.028 66.764C108.448 66.044 109.018 65.48 109.738 65.072C110.458 64.664 111.28 64.46 112.204 64.46C113.14 64.46 113.968 64.664 114.688 65.072C115.42 65.48 115.99 66.044 116.398 66.764C116.818 67.484 117.028 68.318 117.028 69.266C117.028 70.202 116.818 71.036 116.398 71.768C115.99 72.488 115.42 73.058 114.688 73.478C113.956 73.886 113.128 74.09 112.204 74.09ZM112.204 72.956C112.888 72.956 113.494 72.806 114.022 72.506C114.55 72.194 114.964 71.762 115.264 71.21C115.576 70.646 115.732 69.998 115.732 69.266C115.732 68.522 115.576 67.874 115.264 67.322C114.964 66.77 114.55 66.344 114.022 66.044C113.494 65.732 112.894 65.576 112.222 65.576C111.55 65.576 110.95 65.732 110.422 66.044C109.894 66.344 109.474 66.77 109.162 67.322C108.85 67.874 108.694 68.522 108.694 69.266C108.694 69.998 108.85 70.646 109.162 71.21C109.474 71.762 109.894 72.194 110.422 72.506C110.95 72.806 111.544 72.956 112.204 72.956ZM123.719 74.09C122.783 74.09 121.943 73.886 121.199 73.478C120.467 73.058 119.891 72.488 119.471 71.768C119.051 71.036 118.841 70.202 118.841 69.266C118.841 68.318 119.051 67.484 119.471 66.764C119.891 66.044 120.467 65.48 121.199 65.072C121.943 64.664 122.783 64.46 123.719 64.46C124.523 64.46 125.249 64.616 125.897 64.928C126.545 65.24 127.055 65.708 127.427 66.332L126.473 66.98C126.149 66.5 125.747 66.146 125.267 65.918C124.787 65.69 124.265 65.576 123.701 65.576C123.029 65.576 122.423 65.732 121.883 66.044C121.343 66.344 120.917 66.77 120.605 67.322C120.293 67.874 120.137 68.522 120.137 69.266C120.137 70.01 120.293 70.658 120.605 71.21C120.917 71.762 121.343 72.194 121.883 72.506C122.423 72.806 123.029 72.956 123.701 72.956C124.265 72.956 124.787 72.842 125.267 72.614C125.747 72.386 126.149 72.038 126.473 71.57L127.427 72.218C127.055 72.83 126.545 73.298 125.897 73.622C125.249 73.934 124.523 74.09 123.719 74.09ZM135.77 74V71.912L135.716 71.57V68.078C135.716 67.274 135.488 66.656 135.032 66.224C134.588 65.792 133.922 65.576 133.034 65.576C132.422 65.576 131.84 65.678 131.288 65.882C130.736 66.086 130.268 66.356 129.884 66.692L129.308 65.738C129.788 65.33 130.364 65.018 131.036 64.802C131.708 64.574 132.416 64.46 133.16 64.46C134.384 64.46 135.326 64.766 135.986 65.378C136.658 65.978 136.994 66.896 136.994 68.132V74H135.77ZM132.512 74.09C131.804 74.09 131.186 73.976 130.658 73.748C130.142 73.508 129.746 73.184 129.47 72.776C129.194 72.356 129.056 71.876 129.056 71.336C129.056 70.844 129.17 70.4 129.398 70.004C129.638 69.596 130.022 69.272 130.55 69.032C131.09 68.78 131.81 68.654 132.71 68.654H135.968V69.608H132.746C131.834 69.608 131.198 69.77 130.838 70.094C130.49 70.418 130.316 70.82 130.316 71.3C130.316 71.84 130.526 72.272 130.946 72.596C131.366 72.92 131.954 73.082 132.71 73.082C133.43 73.082 134.048 72.92 134.564 72.596C135.092 72.26 135.476 71.78 135.716 71.156L136.004 72.038C135.764 72.662 135.344 73.16 134.744 73.532C134.156 73.904 133.412 74.09 132.512 74.09ZM151.61 74L148.37 69.32L149.432 68.69L153.14 74H151.61ZM146.246 69.788V68.69H149.234V69.788H146.246ZM149.558 69.41L148.334 69.23L151.484 64.55H152.87L149.558 69.41ZM140.414 74H138.884L142.592 68.69L143.636 69.32L140.414 74ZM146.642 74H145.364V64.55H146.642V74ZM145.76 69.788H142.79V68.69H145.76V69.788ZM142.484 69.41L139.154 64.55H140.54L143.672 69.23L142.484 69.41ZM158.983 74.09C157.999 74.09 157.135 73.886 156.391 73.478C155.647 73.058 155.065 72.488 154.645 71.768C154.225 71.036 154.015 70.202 154.015 69.266C154.015 68.33 154.213 67.502 154.609 66.782C155.017 66.062 155.569 65.498 156.265 65.09C156.973 64.67 157.765 64.46 158.641 64.46C159.529 64.46 160.315 64.664 160.999 65.072C161.695 65.468 162.241 66.032 162.637 66.764C163.033 67.484 163.231 68.318 163.231 69.266C163.231 69.326 163.225 69.392 163.213 69.464C163.213 69.524 163.213 69.59 163.213 69.662H154.987V68.708H162.529L162.025 69.086C162.025 68.402 161.875 67.796 161.575 67.268C161.287 66.728 160.891 66.308 160.387 66.008C159.883 65.708 159.301 65.558 158.641 65.558C157.993 65.558 157.411 65.708 156.895 66.008C156.379 66.308 155.977 66.728 155.689 67.268C155.401 67.808 155.257 68.426 155.257 69.122V69.32C155.257 70.04 155.413 70.676 155.725 71.228C156.049 71.768 156.493 72.194 157.057 72.506C157.633 72.806 158.287 72.956 159.019 72.956C159.595 72.956 160.129 72.854 160.621 72.65C161.125 72.446 161.557 72.134 161.917 71.714L162.637 72.542C162.217 73.046 161.689 73.43 161.053 73.694C160.429 73.958 159.739 74.09 158.983 74.09ZM166.06 74V64.55H167.338V68.726H173.296V64.55H174.574V74H173.296V69.824H167.338V74H166.06ZM182.095 74.09C181.183 74.09 180.361 73.886 179.629 73.478C178.909 73.058 178.339 72.488 177.919 71.768C177.499 71.036 177.289 70.202 177.289 69.266C177.289 68.318 177.499 67.484 177.919 66.764C178.339 66.044 178.909 65.48 179.629 65.072C180.349 64.664 181.171 64.46 182.095 64.46C183.031 64.46 183.859 64.664 184.579 65.072C185.311 65.48 185.881 66.044 186.289 66.764C186.709 67.484 186.919 68.318 186.919 69.266C186.919 70.202 186.709 71.036 186.289 71.768C185.881 72.488 185.311 73.058 184.579 73.478C183.847 73.886 183.019 74.09 182.095 74.09ZM182.095 72.956C182.779 72.956 183.385 72.806 183.913 72.506C184.441 72.194 184.855 71.762 185.155 71.21C185.467 70.646 185.623 69.998 185.623 69.266C185.623 68.522 185.467 67.874 185.155 67.322C184.855 66.77 184.441 66.344 183.913 66.044C183.385 65.732 182.785 65.576 182.113 65.576C181.441 65.576 180.841 65.732 180.313 66.044C179.785 66.344 179.365 66.77 179.053 67.322C178.741 67.874 178.585 68.522 178.585 69.266C178.585 69.998 178.741 70.646 179.053 71.21C179.365 71.762 179.785 72.194 180.313 72.506C180.841 72.806 181.435 72.956 182.095 72.956Z" fill="black"/>
<path d="M352.153 26H354.312V22.136H356.713V20.24H354.312V8.816H351.697L343.273 20.48V22.136H352.153V26ZM345.793 20.24L352.249 11.096V20.24H345.793ZM358.894 17.144C358.894 22.184 360.142 26 364.942 26C369.718 26 370.966 22.184 370.966 17.144C370.966 12.176 369.718 8.384 364.942 8.384C360.142 8.384 358.894 12.176 358.894 17.144ZM368.806 17.144C368.806 20.888 368.35 24.008 364.942 24.008C361.51 24.008 361.054 20.888 361.054 17.144C361.054 13.544 361.51 10.376 364.942 10.376C368.35 10.376 368.806 13.544 368.806 17.144ZM373.485 12.56C373.485 14.816 374.997 16.16 376.989 16.16C379.005 16.16 380.493 14.816 380.493 12.56C380.493 10.328 379.005 8.984 376.989 8.984C374.997 8.984 373.485 10.328 373.485 12.56ZM376.989 10.328C378.045 10.328 378.765 11.048 378.765 12.56C378.765 14.048 378.045 14.816 376.989 14.816C375.933 14.816 375.237 14.048 375.237 12.56C375.237 11.048 375.933 10.328 376.989 10.328ZM375.621 26H377.781L387.501 9.248H385.341L375.621 26ZM382.677 22.688C382.677 24.92 384.165 26.288 386.181 26.288C388.173 26.288 389.661 24.92 389.661 22.688C389.661 20.432 388.173 19.088 386.181 19.088C384.165 19.088 382.677 20.432 382.677 22.688ZM386.157 20.456C387.213 20.456 387.933 21.176 387.933 22.688C387.933 24.176 387.213 24.896 386.157 24.896C385.101 24.896 384.381 24.176 384.381 22.688C384.381 21.176 385.101 20.456 386.157 20.456Z" fill="black"/>
<rect x="211" y="179" width="405" height="16" rx="8" fill="#E5E5E5"/>
<rect x="211" y="179" width="211" height="16" rx="8" fill="#ECB942"/>
<circle cx="34" cy="164" r="28" fill="#ECB942"/>
<path d="M32.3089 176V151.88L33.4609 153.104H26.3689V150.8H34.9009V176H32.3089ZM52.1106 176V157.1H54.7026L63.2706 171.608H62.1906L70.9026 157.1H73.2786V176H70.9386V160.016L71.4066 160.232L63.2706 173.696H62.1186L53.9106 160.088L54.4506 159.98V176H52.1106ZM77.096 175.964L77.276 173.768C77.444 173.792 77.6 173.828 77.744 173.876C77.912 173.9 78.056 173.912 78.176 173.912C78.944 173.912 79.556 173.624 80.012 173.048C80.492 172.472 80.852 171.704 81.092 170.744C81.332 169.784 81.5 168.704 81.596 167.504C81.692 166.28 81.776 165.056 81.848 163.832L82.172 157.1H96.032V176H93.476V158.576L94.124 159.332H83.828L84.44 158.54L84.152 164.012C84.08 165.644 83.948 167.204 83.756 168.692C83.588 170.18 83.312 171.488 82.928 172.616C82.568 173.744 82.064 174.632 81.416 175.28C80.768 175.904 79.94 176.216 78.932 176.216C78.644 176.216 78.344 176.192 78.032 176.144C77.744 176.096 77.432 176.036 77.096 175.964ZM103.298 176V157.1H105.854V165.452H117.77V157.1H120.326V176H117.77V167.648H105.854V176H103.298Z" fill="black"/>
<path d="M8.748 212L4.86 207.32L5.922 206.69L10.26 212H8.748ZM1.818 212V202.55H3.096V212H1.818ZM2.7 207.788V206.69H5.742V207.788H2.7ZM6.03 207.41L4.842 207.23L8.604 202.55H9.99L6.03 207.41ZM12.277 212V202.55H13.555V206.726H19.513V202.55H20.791V212H19.513V207.824H13.555V212H12.277ZM24.4235 212V202.55H25.7015V210.056L32.0195 202.55H33.1535V212H31.8755V204.476L25.5755 212H24.4235ZM36.816 212V202.55H43.512V203.666H37.77L38.094 203.342V212H36.816ZM53.958 212.09C53.046 212.09 52.224 211.886 51.492 211.478C50.772 211.058 50.202 210.488 49.782 209.768C49.362 209.036 49.152 208.202 49.152 207.266C49.152 206.318 49.362 205.484 49.782 204.764C50.202 204.044 50.772 203.48 51.492 203.072C52.212 202.664 53.034 202.46 53.958 202.46C54.894 202.46 55.722 202.664 56.442 203.072C57.174 203.48 57.744 204.044 58.152 204.764C58.572 205.484 58.782 206.318 58.782 207.266C58.782 208.202 58.572 209.036 58.152 209.768C57.744 210.488 57.174 211.058 56.442 211.478C55.71 211.886 54.882 212.09 53.958 212.09ZM53.958 210.956C54.642 210.956 55.248 210.806 55.776 210.506C56.304 210.194 56.718 209.762 57.018 209.21C57.33 208.646 57.486 207.998 57.486 207.266C57.486 206.522 57.33 205.874 57.018 205.322C56.718 204.77 56.304 204.344 55.776 204.044C55.248 203.732 54.648 203.576 53.976 203.576C53.304 203.576 52.704 203.732 52.176 204.044C51.648 204.344 51.228 204.77 50.916 205.322C50.604 205.874 50.448 206.522 50.448 207.266C50.448 207.998 50.604 208.646 50.916 209.21C51.228 209.762 51.648 210.194 52.176 210.506C52.704 210.806 53.298 210.956 53.958 210.956ZM62.9618 212V203.324L63.2858 203.666H59.3798V202.55H67.8218V203.666H63.9158L64.2398 203.324V212H62.9618ZM69.6696 212V202.55H78.1656V212H76.8876V203.324L77.2116 203.666H70.6236L70.9476 203.324V212H69.6696ZM86.6765 212.09C85.8605 212.09 85.1225 211.904 84.4625 211.532C83.8025 211.148 83.2745 210.602 82.8785 209.894C82.4945 209.174 82.3025 208.298 82.3025 207.266C82.3025 206.234 82.4945 205.364 82.8785 204.656C83.2625 203.936 83.7845 203.39 84.4445 203.018C85.1045 202.646 85.8485 202.46 86.6765 202.46C87.5765 202.46 88.3805 202.664 89.0885 203.072C89.8085 203.468 90.3725 204.032 90.7805 204.764C91.1885 205.484 91.3925 206.318 91.3925 207.266C91.3925 208.226 91.1885 209.066 90.7805 209.786C90.3725 210.506 89.8085 211.07 89.0885 211.478C88.3805 211.886 87.5765 212.09 86.6765 212.09ZM81.7985 215.492V202.55H83.0225V205.394L82.8965 207.284L83.0765 209.192V215.492H81.7985ZM86.5865 210.956C87.2585 210.956 87.8585 210.806 88.3865 210.506C88.9145 210.194 89.3345 209.762 89.6465 209.21C89.9585 208.646 90.1145 207.998 90.1145 207.266C90.1145 206.534 89.9585 205.892 89.6465 205.34C89.3345 204.788 88.9145 204.356 88.3865 204.044C87.8585 203.732 87.2585 203.576 86.5865 203.576C85.9145 203.576 85.3085 203.732 84.7685 204.044C84.2405 204.356 83.8205 204.788 83.5085 205.34C83.2085 205.892 83.0585 206.534 83.0585 207.266C83.0585 207.998 83.2085 208.646 83.5085 209.21C83.8205 209.762 84.2405 210.194 84.7685 210.506C85.3085 210.806 85.9145 210.956 86.5865 210.956ZM99.9536 212V209.912L99.8996 209.57V206.078C99.8996 205.274 99.6716 204.656 99.2156 204.224C98.7716 203.792 98.1056 203.576 97.2176 203.576C96.6056 203.576 96.0236 203.678 95.4716 203.882C94.9196 204.086 94.4516 204.356 94.0676 204.692L93.4916 203.738C93.9716 203.33 94.5476 203.018 95.2196 202.802C95.8916 202.574 96.5996 202.46 97.3436 202.46C98.5676 202.46 99.5096 202.766 100.17 203.378C100.842 203.978 101.178 204.896 101.178 206.132V212H99.9536ZM96.6956 212.09C95.9876 212.09 95.3696 211.976 94.8416 211.748C94.3256 211.508 93.9296 211.184 93.6536 210.776C93.3776 210.356 93.2396 209.876 93.2396 209.336C93.2396 208.844 93.3536 208.4 93.5816 208.004C93.8216 207.596 94.2056 207.272 94.7336 207.032C95.2736 206.78 95.9936 206.654 96.8936 206.654H100.152V207.608H96.9296C96.0176 207.608 95.3816 207.77 95.0216 208.094C94.6736 208.418 94.4996 208.82 94.4996 209.3C94.4996 209.84 94.7096 210.272 95.1296 210.596C95.5496 210.92 96.1376 211.082 96.8936 211.082C97.6136 211.082 98.2316 210.92 98.7476 210.596C99.2756 210.26 99.6596 209.78 99.8996 209.156L100.188 210.038C99.9476 210.662 99.5276 211.16 98.9276 211.532C98.3396 211.904 97.5956 212.09 96.6956 212.09ZM104.58 212V202.55H108.756C109.824 202.55 110.664 202.754 111.276 203.162C111.9 203.57 112.212 204.17 112.212 204.962C112.212 205.73 111.918 206.324 111.33 206.744C110.742 207.152 109.968 207.356 109.008 207.356L109.26 206.978C110.388 206.978 111.216 207.188 111.744 207.608C112.272 208.028 112.536 208.634 112.536 209.426C112.536 210.242 112.236 210.878 111.636 211.334C111.048 211.778 110.13 212 108.882 212H104.58ZM105.822 210.992H108.828C109.632 210.992 110.238 210.866 110.646 210.614C111.066 210.35 111.276 209.93 111.276 209.354C111.276 208.778 111.09 208.358 110.718 208.094C110.346 207.83 109.758 207.698 108.954 207.698H105.822V210.992ZM105.822 206.744H108.666C109.398 206.744 109.956 206.606 110.34 206.33C110.736 206.054 110.934 205.652 110.934 205.124C110.934 204.596 110.736 204.2 110.34 203.936C109.956 203.672 109.398 203.54 108.666 203.54H105.822V206.744ZM113.803 211.982L113.893 210.884C113.977 210.896 114.055 210.914 114.127 210.938C114.211 210.95 114.283 210.956 114.343 210.956C114.727 210.956 115.033 210.812 115.261 210.524C115.501 210.236 115.681 209.852 115.801 209.372C115.921 208.892 116.005 208.352 116.053 207.752C116.101 207.14 116.143 206.528 116.179 205.916L116.341 202.55H123.271V212H121.993V203.288L122.317 203.666H117.169L117.475 203.27L117.331 206.006C117.295 206.822 117.229 207.602 117.133 208.346C117.049 209.09 116.911 209.744 116.719 210.308C116.539 210.872 116.287 211.316 115.963 211.64C115.639 211.952 115.225 212.108 114.721 212.108C114.577 212.108 114.427 212.096 114.271 212.072C114.127 212.048 113.971 212.018 113.803 211.982ZM130.954 212.09C129.97 212.09 129.106 211.886 128.362 211.478C127.618 211.058 127.036 210.488 126.616 209.768C126.196 209.036 125.986 208.202 125.986 207.266C125.986 206.33 126.184 205.502 126.58 204.782C126.988 204.062 127.54 203.498 128.236 203.09C128.944 202.67 129.736 202.46 130.612 202.46C131.5 202.46 132.286 202.664 132.97 203.072C133.666 203.468 134.212 204.032 134.608 204.764C135.004 205.484 135.202 206.318 135.202 207.266C135.202 207.326 135.196 207.392 135.184 207.464C135.184 207.524 135.184 207.59 135.184 207.662H126.958V206.708H134.5L133.996 207.086C133.996 206.402 133.846 205.796 133.546 205.268C133.258 204.728 132.862 204.308 132.358 204.008C131.854 203.708 131.272 203.558 130.612 203.558C129.964 203.558 129.382 203.708 128.866 204.008C128.35 204.308 127.948 204.728 127.66 205.268C127.372 205.808 127.228 206.426 127.228 207.122V207.32C127.228 208.04 127.384 208.676 127.696 209.228C128.02 209.768 128.464 210.194 129.028 210.506C129.604 210.806 130.258 210.956 130.99 210.956C131.566 210.956 132.1 210.854 132.592 210.65C133.096 210.446 133.528 210.134 133.888 209.714L134.608 210.542C134.188 211.046 133.66 211.43 133.024 211.694C132.4 211.958 131.71 212.09 130.954 212.09ZM138.031 212V202.55H139.309V206.726H145.267V202.55H146.545V212H145.267V207.824H139.309V212H138.031ZM154.065 212.09C153.153 212.09 152.331 211.886 151.599 211.478C150.879 211.058 150.309 210.488 149.889 209.768C149.469 209.036 149.259 208.202 149.259 207.266C149.259 206.318 149.469 205.484 149.889 204.764C150.309 204.044 150.879 203.48 151.599 203.072C152.319 202.664 153.141 202.46 154.065 202.46C155.001 202.46 155.829 202.664 156.549 203.072C157.281 203.48 157.851 204.044 158.259 204.764C158.679 205.484 158.889 206.318 158.889 207.266C158.889 208.202 158.679 209.036 158.259 209.768C157.851 210.488 157.281 211.058 156.549 211.478C155.817 211.886 154.989 212.09 154.065 212.09ZM154.065 210.956C154.749 210.956 155.355 210.806 155.883 210.506C156.411 210.194 156.825 209.762 157.125 209.21C157.437 208.646 157.593 207.998 157.593 207.266C157.593 206.522 157.437 205.874 157.125 205.322C156.825 204.77 156.411 204.344 155.883 204.044C155.355 203.732 154.755 203.576 154.083 203.576C153.411 203.576 152.811 203.732 152.283 204.044C151.755 204.344 151.335 204.77 151.023 205.322C150.711 205.874 150.555 206.522 150.555 207.266C150.555 207.998 150.711 208.646 151.023 209.21C151.335 209.762 151.755 210.194 152.283 210.506C152.811 210.806 153.405 210.956 154.065 210.956ZM1.818 234V224.55H5.994C7.062 224.55 7.902 224.754 8.514 225.162C9.138 225.57 9.45 226.17 9.45 226.962C9.45 227.73 9.156 228.324 8.568 228.744C7.98 229.152 7.206 229.356 6.246 229.356L6.498 228.978C7.626 228.978 8.454 229.188 8.982 229.608C9.51 230.028 9.774 230.634 9.774 231.426C9.774 232.242 9.474 232.878 8.874 233.334C8.286 233.778 7.368 234 6.12 234H1.818ZM3.06 232.992H6.066C6.87 232.992 7.476 232.866 7.884 232.614C8.304 232.35 8.514 231.93 8.514 231.354C8.514 230.778 8.328 230.358 7.956 230.094C7.584 229.83 6.996 229.698 6.192 229.698H3.06V232.992ZM3.06 228.744H5.904C6.636 228.744 7.194 228.606 7.578 228.33C7.974 228.054 8.172 227.652 8.172 227.124C8.172 226.596 7.974 226.2 7.578 225.936C7.194 225.672 6.636 225.54 5.904 225.54H3.06V228.744ZM15.9321 234L21.6921 221.4H23.0061L28.7661 234H27.3621L22.0701 222.174H22.6101L17.3181 234H15.9321ZM18.2001 230.634L18.5961 229.554H25.9221L26.3181 230.634H18.2001ZM36.0968 234.108C36.0968 234.108 36.0728 234.108 36.0248 234.108C35.9768 234.108 35.9288 234.108 35.8808 234.108C35.8448 234.108 35.8148 234.108 35.7908 234.108C33.9188 234.096 32.4608 233.67 31.4168 232.83C30.3728 231.99 29.8508 230.796 29.8508 229.248C29.8508 227.724 30.3728 226.548 31.4168 225.72C32.4728 224.88 33.9548 224.454 35.8628 224.442C35.8748 224.442 35.8988 224.442 35.9348 224.442C35.9828 224.442 36.0248 224.442 36.0608 224.442C36.0968 224.442 36.1208 224.442 36.1328 224.442C38.0528 224.454 39.5468 224.88 40.6148 225.72C41.6828 226.548 42.2168 227.724 42.2168 229.248C42.2168 230.808 41.6768 232.008 40.5968 232.848C39.5288 233.688 38.0288 234.108 36.0968 234.108ZM36.0788 232.992C37.1468 232.992 38.0408 232.848 38.7608 232.56C39.4808 232.26 40.0268 231.834 40.3988 231.282C40.7708 230.73 40.9568 230.052 40.9568 229.248C40.9568 228.468 40.7708 227.808 40.3988 227.268C40.0268 226.716 39.4808 226.296 38.7608 226.008C38.0408 225.72 37.1468 225.576 36.0788 225.576C36.0668 225.576 36.0308 225.576 35.9708 225.576C35.9228 225.576 35.8928 225.576 35.8808 225.576C34.8368 225.576 33.9608 225.726 33.2528 226.026C32.5448 226.314 32.0108 226.728 31.6508 227.268C31.2908 227.808 31.1108 228.468 31.1108 229.248C31.1108 230.04 31.2908 230.712 31.6508 231.264C32.0228 231.816 32.5628 232.242 33.2708 232.542C33.9788 232.83 34.8488 232.98 35.8808 232.992C35.9048 232.992 35.9408 232.992 35.9888 232.992C36.0368 232.992 36.0668 232.992 36.0788 232.992ZM35.3948 237.492V220.644H36.6368V237.492H35.3948ZM49.7976 234.09C48.9816 234.09 48.2436 233.904 47.5836 233.532C46.9236 233.148 46.3956 232.602 45.9996 231.894C45.6156 231.174 45.4236 230.298 45.4236 229.266C45.4236 228.234 45.6156 227.364 45.9996 226.656C46.3836 225.936 46.9056 225.39 47.5656 225.018C48.2256 224.646 48.9696 224.46 49.7976 224.46C50.6976 224.46 51.5016 224.664 52.2096 225.072C52.9296 225.468 53.4936 226.032 53.9016 226.764C54.3096 227.484 54.5136 228.318 54.5136 229.266C54.5136 230.226 54.3096 231.066 53.9016 231.786C53.4936 232.506 52.9296 233.07 52.2096 233.478C51.5016 233.886 50.6976 234.09 49.7976 234.09ZM44.9196 237.492V224.55H46.1436V227.394L46.0176 229.284L46.1976 231.192V237.492H44.9196ZM49.7076 232.956C50.3796 232.956 50.9796 232.806 51.5076 232.506C52.0356 232.194 52.4556 231.762 52.7676 231.21C53.0796 230.646 53.2356 229.998 53.2356 229.266C53.2356 228.534 53.0796 227.892 52.7676 227.34C52.4556 226.788 52.0356 226.356 51.5076 226.044C50.9796 225.732 50.3796 225.576 49.7076 225.576C49.0356 225.576 48.4296 225.732 47.8896 226.044C47.3616 226.356 46.9416 226.788 46.6296 227.34C46.3296 227.892 46.1796 228.534 46.1796 229.266C46.1796 229.998 46.3296 230.646 46.6296 231.21C46.9416 231.762 47.3616 232.194 47.8896 232.506C48.4296 232.806 49.0356 232.956 49.7076 232.956ZM57.2594 234V224.55H58.5374V232.056L64.8554 224.55H65.9894V234H64.7114V226.476L58.4114 234H57.2594ZM76.582 234L72.694 229.32L73.756 228.69L78.094 234H76.582ZM69.652 234V224.55H70.93V234H69.652ZM70.534 229.788V228.69H73.576V229.788H70.534ZM73.864 229.41L72.676 229.23L76.438 224.55H77.824L73.864 229.41ZM79.728 237.582C79.284 237.582 78.858 237.51 78.45 237.366C78.054 237.222 77.712 237.006 77.424 236.718L78.018 235.764C78.258 235.992 78.516 236.166 78.792 236.286C79.08 236.418 79.398 236.484 79.746 236.484C80.166 236.484 80.526 236.364 80.826 236.124C81.138 235.896 81.432 235.488 81.708 234.9L82.32 233.514L82.464 233.316L86.352 224.55H87.612L82.878 235.134C82.614 235.746 82.32 236.232 81.996 236.592C81.684 236.952 81.342 237.204 80.97 237.348C80.598 237.504 80.184 237.582 79.728 237.582ZM82.248 234.27L77.892 224.55H79.224L83.076 233.226L82.248 234.27Z" fill="black"/>
<path d="M396.436 147.624V157.416H398.5C399.076 156.048 400.348 155.136 402.1 155.136C404.62 155.136 405.892 156.576 405.892 159.048C405.892 161.424 404.716 163.2 402.076 163.2C400.036 163.2 398.62 162.12 398.212 160.296H396.076C396.508 163.104 398.596 165.048 402.052 165.048C406.108 165.048 407.98 162.36 407.98 159C407.98 156.312 406.636 153.264 402.412 153.264C400.708 153.264 399.172 154.032 398.452 155.016V149.544H406.876V147.624H396.436ZM410.883 156.144C410.883 161.184 412.131 165 416.931 165C421.707 165 422.955 161.184 422.955 156.144C422.955 151.176 421.707 147.384 416.931 147.384C412.131 147.384 410.883 151.176 410.883 156.144ZM420.795 156.144C420.795 159.888 420.339 163.008 416.931 163.008C413.499 163.008 413.043 159.888 413.043 156.144C413.043 152.544 413.499 149.376 416.931 149.376C420.339 149.376 420.795 152.544 420.795 156.144ZM425.473 151.56C425.473 153.816 426.985 155.16 428.977 155.16C430.993 155.16 432.481 153.816 432.481 151.56C432.481 149.328 430.993 147.984 428.977 147.984C426.985 147.984 425.473 149.328 425.473 151.56ZM428.977 149.328C430.033 149.328 430.753 150.048 430.753 151.56C430.753 153.048 430.033 153.816 428.977 153.816C427.921 153.816 427.225 153.048 427.225 151.56C427.225 150.048 427.921 149.328 428.977 149.328ZM427.609 165H429.769L439.489 148.248H437.329L427.609 165ZM434.665 161.688C434.665 163.92 436.153 165.288 438.169 165.288C440.161 165.288 441.649 163.92 441.649 161.688C441.649 159.432 440.161 158.088 438.169 158.088C436.153 158.088 434.665 159.432 434.665 161.688ZM438.145 159.456C439.201 159.456 439.921 160.176 439.921 161.688C439.921 163.176 439.201 163.896 438.145 163.896C437.089 163.896 436.369 163.176 436.369 161.688C436.369 160.176 437.089 159.456 438.145 159.456Z" fill="black"/>
<rect x="211" y="325" width="405" height="16" rx="8" fill="#E5E5E5"/>
<rect x="211" y="325" width="131" height="16" rx="8" fill="#B0CEF1"/>
<circle cx="38" cy="314" r="28" fill="#B0CEF1"/>
<path d="M37.7023 334.32V300.48H39.5023V334.32H37.7023ZM38.4583 330.216C36.5863 330.216 34.7863 329.916 33.0583 329.316C31.3543 328.692 30.0343 327.9 29.0983 326.94L30.1423 324.888C31.0303 325.752 32.2183 326.484 33.7063 327.084C35.2183 327.66 36.8023 327.948 38.4583 327.948C40.0423 327.948 41.3263 327.756 42.3103 327.372C43.3183 326.964 44.0503 326.424 44.5063 325.752C44.9863 325.08 45.2263 324.336 45.2263 323.52C45.2263 322.536 44.9383 321.744 44.3623 321.144C43.8103 320.544 43.0783 320.076 42.1663 319.74C41.2543 319.38 40.2463 319.068 39.1423 318.804C38.0383 318.54 36.9343 318.264 35.8303 317.976C34.7263 317.664 33.7063 317.256 32.7703 316.752C31.8583 316.248 31.1143 315.588 30.5383 314.772C29.9863 313.932 29.7103 312.84 29.7103 311.496C29.7103 310.248 30.0343 309.108 30.6823 308.076C31.3543 307.02 32.3743 306.18 33.7423 305.556C35.1103 304.908 36.8623 304.584 38.9983 304.584C40.4143 304.584 41.8183 304.788 43.2103 305.196C44.6023 305.58 45.8023 306.12 46.8103 306.816L45.9102 308.94C44.8303 308.22 43.6783 307.692 42.4543 307.356C41.2543 307.02 40.0903 306.852 38.9623 306.852C37.4503 306.852 36.2023 307.056 35.2183 307.464C34.2343 307.872 33.5023 308.424 33.0223 309.12C32.5663 309.792 32.3383 310.56 32.3383 311.424C32.3383 312.408 32.6143 313.2 33.1663 313.8C33.7423 314.4 34.4863 314.868 35.3983 315.204C36.3343 315.54 37.3543 315.84 38.4583 316.104C39.5623 316.368 40.6543 316.656 41.7343 316.968C42.8383 317.28 43.8463 317.688 44.7583 318.192C45.6943 318.672 46.4383 319.32 46.9903 320.136C47.5663 320.952 47.8543 322.02 47.8543 323.34C47.8543 324.564 47.5183 325.704 46.8463 326.76C46.1743 327.792 45.1423 328.632 43.7503 329.28C42.3823 329.904 40.6183 330.216 38.4583 330.216ZM60.3806 330V328.164L70.8566 317.904C71.8166 316.968 72.5366 316.152 73.0166 315.456C73.4966 314.736 73.8206 314.064 73.9886 313.44C74.1566 312.816 74.2406 312.228 74.2406 311.676C74.2406 310.212 73.7366 309.06 72.7286 308.22C71.7446 307.38 70.2806 306.96 68.3366 306.96C66.8486 306.96 65.5286 307.188 64.3766 307.644C63.2486 308.1 62.2766 308.808 61.4606 309.768L59.6246 308.184C60.6086 307.032 61.8686 306.144 63.4046 305.52C64.9406 304.896 66.6566 304.584 68.5526 304.584C70.2566 304.584 71.7326 304.86 72.9806 305.412C74.2286 305.94 75.1886 306.72 75.8606 307.752C76.5566 308.784 76.9046 309.996 76.9046 311.388C76.9046 312.204 76.7846 313.008 76.5446 313.8C76.3286 314.592 75.9206 315.432 75.3206 316.32C74.7446 317.184 73.8926 318.168 72.7646 319.272L63.1526 328.704L62.4326 327.696H78.0566V330H60.3806ZM89.2655 330.216C87.4655 330.216 85.7495 329.928 84.1175 329.352C82.4855 328.752 81.1895 327.96 80.2295 326.976L81.4895 324.924C82.2815 325.764 83.3615 326.46 84.7295 327.012C86.1215 327.564 87.6215 327.84 89.2295 327.84C91.3655 327.84 92.9855 327.372 94.0895 326.436C95.2175 325.476 95.7815 324.228 95.7815 322.692C95.7815 321.612 95.5175 320.688 94.9895 319.92C94.4855 319.128 93.6215 318.516 92.3975 318.084C91.1735 317.652 89.4935 317.436 87.3575 317.436H81.9935L83.2895 304.8H97.0775V307.104H84.3335L85.6655 305.844L84.5495 316.428L83.2175 315.132H87.9335C90.4775 315.132 92.5175 315.444 94.0535 316.068C95.5895 316.692 96.6935 317.568 97.3655 318.696C98.0615 319.8 98.4095 321.096 98.4095 322.584C98.4095 324 98.0735 325.296 97.4015 326.472C96.7295 327.624 95.7215 328.536 94.3775 329.208C93.0335 329.88 91.3295 330.216 89.2655 330.216ZM111.744 330.216C109.8 330.216 108.072 329.712 106.56 328.704C105.048 327.672 103.86 326.208 102.996 324.312C102.132 322.392 101.7 320.088 101.7 317.4C101.7 314.712 102.132 312.42 102.996 310.524C103.86 308.604 105.048 307.14 106.56 306.132C108.072 305.1 109.8 304.584 111.744 304.584C113.688 304.584 115.416 305.1 116.928 306.132C118.44 307.14 119.628 308.604 120.492 310.524C121.38 312.42 121.824 314.712 121.824 317.4C121.824 320.088 121.38 322.392 120.492 324.312C119.628 326.208 118.44 327.672 116.928 328.704C115.416 329.712 113.688 330.216 111.744 330.216ZM111.744 327.84C113.232 327.84 114.528 327.444 115.632 326.652C116.736 325.836 117.6 324.66 118.224 323.124C118.848 321.564 119.16 319.656 119.16 317.4C119.16 315.144 118.848 313.248 118.224 311.712C117.6 310.152 116.736 308.976 115.632 308.184C114.528 307.368 113.232 306.96 111.744 306.96C110.304 306.96 109.02 307.368 107.892 308.184C106.764 308.976 105.888 310.152 105.264 311.712C104.64 313.248 104.328 315.144 104.328 317.4C104.328 319.656 104.64 321.564 105.264 323.124C105.888 324.66 106.764 325.836 107.892 326.652C109.02 327.444 110.304 327.84 111.744 327.84ZM145.002 330.216C143.058 330.216 141.33 329.712 139.818 328.704C138.306 327.672 137.118 326.208 136.254 324.312C135.39 322.392 134.958 320.088 134.958 317.4C134.958 314.712 135.39 312.42 136.254 310.524C137.118 308.604 138.306 307.14 139.818 306.132C141.33 305.1 143.058 304.584 145.002 304.584C146.946 304.584 148.674 305.1 150.186 306.132C151.698 307.14 152.886 308.604 153.75 310.524C154.638 312.42 155.082 314.712 155.082 317.4C155.082 320.088 154.638 322.392 153.75 324.312C152.886 326.208 151.698 327.672 150.186 328.704C148.674 329.712 146.946 330.216 145.002 330.216ZM145.002 327.84C146.49 327.84 147.786 327.444 148.89 326.652C149.994 325.836 150.858 324.66 151.482 323.124C152.106 321.564 152.418 319.656 152.418 317.4C152.418 315.144 152.106 313.248 151.482 311.712C150.858 310.152 149.994 308.976 148.89 308.184C147.786 307.368 146.49 306.96 145.002 306.96C143.562 306.96 142.278 307.368 141.15 308.184C140.022 308.976 139.146 310.152 138.522 311.712C137.898 313.248 137.586 315.144 137.586 317.4C137.586 319.656 137.898 321.564 138.522 323.124C139.146 324.66 140.022 325.836 141.15 326.652C142.278 327.444 143.562 327.84 145.002 327.84ZM168.838 330.216C166.894 330.216 165.166 329.712 163.654 328.704C162.142 327.672 160.954 326.208 160.09 324.312C159.226 322.392 158.794 320.088 158.794 317.4C158.794 314.712 159.226 312.42 160.09 310.524C160.954 308.604 162.142 307.14 163.654 306.132C165.166 305.1 166.894 304.584 168.838 304.584C170.782 304.584 172.51 305.1 174.022 306.132C175.534 307.14 176.722 308.604 177.586 310.524C178.474 312.42 178.918 314.712 178.918 317.4C178.918 320.088 178.474 322.392 177.586 324.312C176.722 326.208 175.534 327.672 174.022 328.704C172.51 329.712 170.782 330.216 168.838 330.216ZM168.838 327.84C170.326 327.84 171.622 327.444 172.726 326.652C173.83 325.836 174.694 324.66 175.318 323.124C175.942 321.564 176.254 319.656 176.254 317.4C176.254 315.144 175.942 313.248 175.318 311.712C174.694 310.152 173.83 308.976 172.726 308.184C171.622 307.368 170.326 306.96 168.838 306.96C167.398 306.96 166.114 307.368 164.986 308.184C163.858 308.976 162.982 310.152 162.358 311.712C161.734 313.248 161.422 315.144 161.422 317.4C161.422 319.656 161.734 321.564 162.358 323.124C162.982 324.66 163.858 325.836 164.986 326.652C166.114 327.444 167.398 327.84 168.838 327.84ZM192.674 330.216C190.73 330.216 189.002 329.712 187.49 328.704C185.978 327.672 184.79 326.208 183.926 324.312C183.062 322.392 182.63 320.088 182.63 317.4C182.63 314.712 183.062 312.42 183.926 310.524C184.79 308.604 185.978 307.14 187.49 306.132C189.002 305.1 190.73 304.584 192.674 304.584C194.618 304.584 196.346 305.1 197.858 306.132C199.37 307.14 200.558 308.604 201.422 310.524C202.31 312.42 202.754 314.712 202.754 317.4C202.754 320.088 202.31 322.392 201.422 324.312C200.558 326.208 199.37 327.672 197.858 328.704C196.346 329.712 194.618 330.216 192.674 330.216ZM192.674 327.84C194.162 327.84 195.458 327.444 196.562 326.652C197.666 325.836 198.53 324.66 199.154 323.124C199.778 321.564 200.09 319.656 200.09 317.4C200.09 315.144 199.778 313.248 199.154 311.712C198.53 310.152 197.666 308.976 196.562 308.184C195.458 307.368 194.162 306.96 192.674 306.96C191.234 306.96 189.95 307.368 188.822 308.184C187.694 308.976 186.818 310.152 186.194 311.712C185.57 313.248 185.258 315.144 185.258 317.4C185.258 319.656 185.57 321.564 186.194 323.124C186.818 324.66 187.694 325.836 188.822 326.652C189.95 327.444 191.234 327.84 192.674 327.84Z" fill="black"/>
<path d="M3.818 357V347.55H12.314V357H11.036V348.324L11.36 348.666H4.772L5.096 348.324V357H3.818ZM19.8349 357.09C18.9229 357.09 18.1009 356.886 17.3689 356.478C16.6489 356.058 16.0789 355.488 15.6589 354.768C15.2389 354.036 15.0289 353.202 15.0289 352.266C15.0289 351.318 15.2389 350.484 15.6589 349.764C16.0789 349.044 16.6489 348.48 17.3689 348.072C18.0889 347.664 18.9109 347.46 19.8349 347.46C20.7709 347.46 21.5989 347.664 22.3189 348.072C23.0509 348.48 23.6209 349.044 24.0289 349.764C24.4489 350.484 24.6589 351.318 24.6589 352.266C24.6589 353.202 24.4489 354.036 24.0289 354.768C23.6209 355.488 23.0509 356.058 22.3189 356.478C21.5869 356.886 20.7589 357.09 19.8349 357.09ZM19.8349 355.956C20.5189 355.956 21.1249 355.806 21.6529 355.506C22.1809 355.194 22.5949 354.762 22.8949 354.21C23.2069 353.646 23.3629 352.998 23.3629 352.266C23.3629 351.522 23.2069 350.874 22.8949 350.322C22.5949 349.77 22.1809 349.344 21.6529 349.044C21.1249 348.732 20.5249 348.576 19.8529 348.576C19.1809 348.576 18.5809 348.732 18.0529 349.044C17.5249 349.344 17.1049 349.77 16.7929 350.322C16.4809 350.874 16.3249 351.522 16.3249 352.266C16.3249 352.998 16.4809 353.646 16.7929 354.21C17.1049 354.762 17.5249 355.194 18.0529 355.506C18.5809 355.806 19.1749 355.956 19.8349 355.956ZM38.2703 357L35.0303 352.32L36.0923 351.69L39.8003 357H38.2703ZM32.9063 352.788V351.69H35.8943V352.788H32.9063ZM36.2183 352.41L34.9943 352.23L38.1443 347.55H39.5303L36.2183 352.41ZM27.0743 357H25.5443L29.2523 351.69L30.2963 352.32L27.0743 357ZM33.3023 357H32.0243V347.55H33.3023V357ZM32.4203 352.788H29.4503V351.69H32.4203V352.788ZM29.1443 352.41L25.8143 347.55H27.2003L30.3323 352.23L29.1443 352.41ZM45.6434 357.09C44.6594 357.09 43.7954 356.886 43.0514 356.478C42.3074 356.058 41.7254 355.488 41.3054 354.768C40.8854 354.036 40.6754 353.202 40.6754 352.266C40.6754 351.33 40.8734 350.502 41.2694 349.782C41.6774 349.062 42.2294 348.498 42.9254 348.09C43.6334 347.67 44.4254 347.46 45.3014 347.46C46.1894 347.46 46.9754 347.664 47.6594 348.072C48.3554 348.468 48.9014 349.032 49.2974 349.764C49.6934 350.484 49.8914 351.318 49.8914 352.266C49.8914 352.326 49.8854 352.392 49.8734 352.464C49.8734 352.524 49.8734 352.59 49.8734 352.662H41.6474V351.708H49.1894L48.6854 352.086C48.6854 351.402 48.5354 350.796 48.2354 350.268C47.9474 349.728 47.5514 349.308 47.0474 349.008C46.5434 348.708 45.9614 348.558 45.3014 348.558C44.6534 348.558 44.0714 348.708 43.5554 349.008C43.0394 349.308 42.6374 349.728 42.3494 350.268C42.0614 350.808 41.9174 351.426 41.9174 352.122V352.32C41.9174 353.04 42.0734 353.676 42.3854 354.228C42.7094 354.768 43.1534 355.194 43.7174 355.506C44.2934 355.806 44.9474 355.956 45.6794 355.956C46.2554 355.956 46.7894 355.854 47.2814 355.65C47.7854 355.446 48.2174 355.134 48.5774 354.714L49.2974 355.542C48.8774 356.046 48.3494 356.43 47.7134 356.694C47.0894 356.958 46.3994 357.09 45.6434 357.09ZM57.5983 357.09C56.7823 357.09 56.0443 356.904 55.3843 356.532C54.7243 356.148 54.1963 355.602 53.8003 354.894C53.4163 354.174 53.2243 353.298 53.2243 352.266C53.2243 351.234 53.4163 350.364 53.8003 349.656C54.1843 348.936 54.7063 348.39 55.3663 348.018C56.0263 347.646 56.7703 347.46 57.5983 347.46C58.4983 347.46 59.3023 347.664 60.0103 348.072C60.7303 348.468 61.2943 349.032 61.7023 349.764C62.1103 350.484 62.3143 351.318 62.3143 352.266C62.3143 353.226 62.1103 354.066 61.7023 354.786C61.2943 355.506 60.7303 356.07 60.0103 356.478C59.3023 356.886 58.4983 357.09 57.5983 357.09ZM52.7203 360.492V347.55H53.9443V350.394L53.8183 352.284L53.9983 354.192V360.492H52.7203ZM57.5083 355.956C58.1803 355.956 58.7803 355.806 59.3083 355.506C59.8363 355.194 60.2563 354.762 60.5683 354.21C60.8803 353.646 61.0363 352.998 61.0363 352.266C61.0363 351.534 60.8803 350.892 60.5683 350.34C60.2563 349.788 59.8363 349.356 59.3083 349.044C58.7803 348.732 58.1803 348.576 57.5083 348.576C56.8363 348.576 56.2303 348.732 55.6903 349.044C55.1623 349.356 54.7423 349.788 54.4303 350.34C54.1303 350.892 53.9803 351.534 53.9803 352.266C53.9803 352.998 54.1303 353.646 54.4303 354.21C54.7423 354.762 55.1623 355.194 55.6903 355.506C56.2303 355.806 56.8363 355.956 57.5083 355.956ZM66.5086 357V348.324L66.8326 348.666H62.9266V347.55H71.3686V348.666H67.4626L67.7866 348.324V357H66.5086ZM73.2164 357V347.55H77.3924C78.4604 347.55 79.3004 347.754 79.9124 348.162C80.5364 348.57 80.8484 349.17 80.8484 349.962C80.8484 350.73 80.5544 351.324 79.9664 351.744C79.3784 352.152 78.6044 352.356 77.6444 352.356L77.8964 351.978C79.0244 351.978 79.8524 352.188 80.3804 352.608C80.9084 353.028 81.1724 353.634 81.1724 354.426C81.1724 355.242 80.8724 355.878 80.2724 356.334C79.6844 356.778 78.7664 357 77.5184 357H73.2164ZM74.4584 355.992H77.4644C78.2684 355.992 78.8744 355.866 79.2824 355.614C79.7024 355.35 79.9124 354.93 79.9124 354.354C79.9124 353.778 79.7264 353.358 79.3544 353.094C78.9824 352.83 78.3944 352.698 77.5904 352.698H74.4584V355.992ZM74.4584 351.744H77.3024C78.0344 351.744 78.5924 351.606 78.9764 351.33C79.3724 351.054 79.5704 350.652 79.5704 350.124C79.5704 349.596 79.3724 349.2 78.9764 348.936C78.5924 348.672 78.0344 348.54 77.3024 348.54H74.4584V351.744ZM88.0556 357.09C87.1436 357.09 86.3216 356.886 85.5896 356.478C84.8696 356.058 84.2996 355.488 83.8796 354.768C83.4596 354.036 83.2496 353.202 83.2496 352.266C83.2496 351.318 83.4596 350.484 83.8796 349.764C84.2996 349.044 84.8696 348.48 85.5896 348.072C86.3096 347.664 87.1316 347.46 88.0556 347.46C88.9916 347.46 89.8196 347.664 90.5396 348.072C91.2716 348.48 91.8416 349.044 92.2496 349.764C92.6696 350.484 92.8796 351.318 92.8796 352.266C92.8796 353.202 92.6696 354.036 92.2496 354.768C91.8416 355.488 91.2716 356.058 90.5396 356.478C89.8076 356.886 88.9796 357.09 88.0556 357.09ZM88.0556 355.956C88.7396 355.956 89.3456 355.806 89.8736 355.506C90.4016 355.194 90.8156 354.762 91.1156 354.21C91.4276 353.646 91.5836 352.998 91.5836 352.266C91.5836 351.522 91.4276 350.874 91.1156 350.322C90.8156 349.77 90.4016 349.344 89.8736 349.044C89.3456 348.732 88.7456 348.576 88.0736 348.576C87.4016 348.576 86.8016 348.732 86.2736 349.044C85.7456 349.344 85.3256 349.77 85.0136 350.322C84.7016 350.874 84.5456 351.522 84.5456 352.266C84.5456 352.998 84.7016 353.646 85.0136 354.21C85.3256 354.762 85.7456 355.194 86.2736 355.506C86.8016 355.806 87.3956 355.956 88.0556 355.956ZM95.611 357V347.55H99.787C100.855 347.55 101.695 347.754 102.307 348.162C102.931 348.57 103.243 349.17 103.243 349.962C103.243 350.73 102.949 351.324 102.361 351.744C101.773 352.152 100.999 352.356 100.039 352.356L100.291 351.978C101.419 351.978 102.247 352.188 102.775 352.608C103.303 353.028 103.567 353.634 103.567 354.426C103.567 355.242 103.267 355.878 102.667 356.334C102.079 356.778 101.161 357 99.913 357H95.611ZM96.853 355.992H99.859C100.663 355.992 101.269 355.866 101.677 355.614C102.097 355.35 102.307 354.93 102.307 354.354C102.307 353.778 102.121 353.358 101.749 353.094C101.377 352.83 100.789 352.698 99.985 352.698H96.853V355.992ZM96.853 351.744H99.697C100.429 351.744 100.987 351.606 101.371 351.33C101.767 351.054 101.965 350.652 101.965 350.124C101.965 349.596 101.767 349.2 101.371 348.936C100.987 348.672 100.429 348.54 99.697 348.54H96.853V351.744ZM112.43 357V354.912L112.376 354.57V351.078C112.376 350.274 112.148 349.656 111.692 349.224C111.248 348.792 110.582 348.576 109.694 348.576C109.082 348.576 108.5 348.678 107.948 348.882C107.396 349.086 106.928 349.356 106.544 349.692L105.968 348.738C106.448 348.33 107.024 348.018 107.696 347.802C108.368 347.574 109.076 347.46 109.82 347.46C111.044 347.46 111.986 347.766 112.646 348.378C113.318 348.978 113.654 349.896 113.654 351.132V357H112.43ZM109.172 357.09C108.464 357.09 107.846 356.976 107.318 356.748C106.802 356.508 106.406 356.184 106.13 355.776C105.854 355.356 105.716 354.876 105.716 354.336C105.716 353.844 105.83 353.4 106.058 353.004C106.298 352.596 106.682 352.272 107.21 352.032C107.75 351.78 108.47 351.654 109.37 351.654H112.628V352.608H109.406C108.494 352.608 107.858 352.77 107.498 353.094C107.15 353.418 106.976 353.82 106.976 354.3C106.976 354.84 107.186 355.272 107.606 355.596C108.026 355.92 108.614 356.082 109.37 356.082C110.09 356.082 110.708 355.92 111.224 355.596C111.752 355.26 112.136 354.78 112.376 354.156L112.664 355.038C112.424 355.662 112.004 356.16 111.404 356.532C110.816 356.904 110.072 357.09 109.172 357.09ZM117.056 357V347.55H118.334V351.726H124.292V347.55H125.57V357H124.292V352.824H118.334V357H117.056ZM133.091 357.09C132.179 357.09 131.357 356.886 130.625 356.478C129.905 356.058 129.335 355.488 128.915 354.768C128.495 354.036 128.285 353.202 128.285 352.266C128.285 351.318 128.495 350.484 128.915 349.764C129.335 349.044 129.905 348.48 130.625 348.072C131.345 347.664 132.167 347.46 133.091 347.46C134.027 347.46 134.855 347.664 135.575 348.072C136.307 348.48 136.877 349.044 137.285 349.764C137.705 350.484 137.915 351.318 137.915 352.266C137.915 353.202 137.705 354.036 137.285 354.768C136.877 355.488 136.307 356.058 135.575 356.478C134.843 356.886 134.015 357.09 133.091 357.09ZM133.091 355.956C133.775 355.956 134.381 355.806 134.909 355.506C135.437 355.194 135.851 354.762 136.151 354.21C136.463 353.646 136.619 352.998 136.619 352.266C136.619 351.522 136.463 350.874 136.151 350.322C135.851 349.77 135.437 349.344 134.909 349.044C134.381 348.732 133.781 348.576 133.109 348.576C132.437 348.576 131.837 348.732 131.309 349.044C130.781 349.344 130.361 349.77 130.049 350.322C129.737 350.874 129.581 351.522 129.581 352.266C129.581 352.998 129.737 353.646 130.049 354.21C130.361 354.762 130.781 355.194 131.309 355.506C131.837 355.806 132.431 355.956 133.091 355.956ZM145.357 357V347.55H146.635V351.726H152.593V347.55H153.871V357H152.593V352.824H146.635V357H145.357ZM163.372 357V354.912L163.318 354.57V351.078C163.318 350.274 163.09 349.656 162.634 349.224C162.19 348.792 161.524 348.576 160.636 348.576C160.024 348.576 159.442 348.678 158.89 348.882C158.338 349.086 157.87 349.356 157.486 349.692L156.91 348.738C157.39 348.33 157.966 348.018 158.638 347.802C159.31 347.574 160.018 347.46 160.762 347.46C161.986 347.46 162.928 347.766 163.588 348.378C164.26 348.978 164.596 349.896 164.596 351.132V357H163.372ZM160.114 357.09C159.406 357.09 158.788 356.976 158.26 356.748C157.744 356.508 157.348 356.184 157.072 355.776C156.796 355.356 156.658 354.876 156.658 354.336C156.658 353.844 156.772 353.4 157 353.004C157.24 352.596 157.624 352.272 158.152 352.032C158.692 351.78 159.412 351.654 160.312 351.654H163.57V352.608H160.348C159.436 352.608 158.8 352.77 158.44 353.094C158.092 353.418 157.918 353.82 157.918 354.3C157.918 354.84 158.128 355.272 158.548 355.596C158.968 355.92 159.556 356.082 160.312 356.082C161.032 356.082 161.65 355.92 162.166 355.596C162.694 355.26 163.078 354.78 163.318 354.156L163.606 355.038C163.366 355.662 162.946 356.16 162.346 356.532C161.758 356.904 161.014 357.09 160.114 357.09ZM3.818 379V369.55H12.314V379H11.036V370.324L11.36 370.666H4.772L5.096 370.324V379H3.818ZM19.8349 379.09C18.9229 379.09 18.1009 378.886 17.3689 378.478C16.6489 378.058 16.0789 377.488 15.6589 376.768C15.2389 376.036 15.0289 375.202 15.0289 374.266C15.0289 373.318 15.2389 372.484 15.6589 371.764C16.0789 371.044 16.6489 370.48 17.3689 370.072C18.0889 369.664 18.9109 369.46 19.8349 369.46C20.7709 369.46 21.5989 369.664 22.3189 370.072C23.0509 370.48 23.6209 371.044 24.0289 371.764C24.4489 372.484 24.6589 373.318 24.6589 374.266C24.6589 375.202 24.4489 376.036 24.0289 376.768C23.6209 377.488 23.0509 378.058 22.3189 378.478C21.5869 378.886 20.7589 379.09 19.8349 379.09ZM19.8349 377.956C20.5189 377.956 21.1249 377.806 21.6529 377.506C22.1809 377.194 22.5949 376.762 22.8949 376.21C23.2069 375.646 23.3629 374.998 23.3629 374.266C23.3629 373.522 23.2069 372.874 22.8949 372.322C22.5949 371.77 22.1809 371.344 21.6529 371.044C21.1249 370.732 20.5249 370.576 19.8529 370.576C19.1809 370.576 18.5809 370.732 18.0529 371.044C17.5249 371.344 17.1049 371.77 16.7929 372.322C16.4809 372.874 16.3249 373.522 16.3249 374.266C16.3249 374.998 16.4809 375.646 16.7929 376.21C17.1049 376.762 17.5249 377.194 18.0529 377.506C18.5809 377.806 19.1749 377.956 19.8349 377.956ZM33.8175 378.388V370.666H29.2635L29.1555 372.772C29.1315 373.408 29.0895 374.032 29.0295 374.644C28.9815 375.256 28.8915 375.82 28.7595 376.336C28.6395 376.84 28.4655 377.254 28.2375 377.578C28.0095 377.89 27.7155 378.07 27.3555 378.118L26.0775 377.884C26.4495 377.896 26.7555 377.764 26.9955 377.488C27.2355 377.2 27.4215 376.81 27.5535 376.318C27.6855 375.826 27.7815 375.268 27.8415 374.644C27.9015 374.008 27.9495 373.36 27.9855 372.7L28.1115 369.55H35.0955V378.388H33.8175ZM25.6815 381.286V377.884H36.5715V381.286H35.3655V379H26.8875V381.286H25.6815ZM45.5421 378.388V370.666H40.9881L40.8801 372.772C40.8561 373.408 40.8141 374.032 40.7541 374.644C40.7061 375.256 40.6161 375.82 40.4841 376.336C40.3641 376.84 40.1901 377.254 39.9621 377.578C39.7341 377.89 39.4401 378.07 39.0801 378.118L37.8021 377.884C38.1741 377.896 38.4801 377.764 38.7201 377.488C38.9601 377.2 39.1461 376.81 39.2781 376.318C39.4101 375.826 39.5061 375.268 39.5661 374.644C39.6261 374.008 39.6741 373.36 39.7101 372.7L39.8361 369.55H46.8201V378.388H45.5421ZM37.4061 381.286V377.884H48.2961V381.286H47.0901V379H38.6121V381.286H37.4061ZM54.8368 379.09C53.8528 379.09 52.9888 378.886 52.2448 378.478C51.5008 378.058 50.9188 377.488 50.4988 376.768C50.0788 376.036 49.8688 375.202 49.8688 374.266C49.8688 373.33 50.0668 372.502 50.4628 371.782C50.8708 371.062 51.4228 370.498 52.1188 370.09C52.8268 369.67 53.6188 369.46 54.4948 369.46C55.3828 369.46 56.1688 369.664 56.8528 370.072C57.5488 370.468 58.0948 371.032 58.4908 371.764C58.8868 372.484 59.0848 373.318 59.0848 374.266C59.0848 374.326 59.0788 374.392 59.0668 374.464C59.0668 374.524 59.0668 374.59 59.0668 374.662H50.8408V373.708H58.3828L57.8788 374.086C57.8788 373.402 57.7288 372.796 57.4288 372.268C57.1408 371.728 56.7448 371.308 56.2408 371.008C55.7368 370.708 55.1548 370.558 54.4948 370.558C53.8468 370.558 53.2648 370.708 52.7488 371.008C52.2328 371.308 51.8308 371.728 51.5428 372.268C51.2548 372.808 51.1108 373.426 51.1108 374.122V374.32C51.1108 375.04 51.2668 375.676 51.5788 376.228C51.9028 376.768 52.3468 377.194 52.9108 377.506C53.4868 377.806 54.1408 377.956 54.8728 377.956C55.4488 377.956 55.9828 377.854 56.4748 377.65C56.9788 377.446 57.4108 377.134 57.7708 376.714L58.4908 377.542C58.0708 378.046 57.5428 378.43 56.9068 378.694C56.2828 378.958 55.5928 379.09 54.8368 379.09ZM66.7917 379.09C65.9757 379.09 65.2377 378.904 64.5777 378.532C63.9177 378.148 63.3897 377.602 62.9937 376.894C62.6097 376.174 62.4177 375.298 62.4177 374.266C62.4177 373.234 62.6097 372.364 62.9937 371.656C63.3777 370.936 63.8997 370.39 64.5597 370.018C65.2197 369.646 65.9637 369.46 66.7917 369.46C67.6917 369.46 68.4957 369.664 69.2037 370.072C69.9237 370.468 70.4877 371.032 70.8957 371.764C71.3037 372.484 71.5077 373.318 71.5077 374.266C71.5077 375.226 71.3037 376.066 70.8957 376.786C70.4877 377.506 69.9237 378.07 69.2037 378.478C68.4957 378.886 67.6917 379.09 66.7917 379.09ZM61.9137 382.492V369.55H63.1377V372.394L63.0117 374.284L63.1917 376.192V382.492H61.9137ZM66.7017 377.956C67.3737 377.956 67.9737 377.806 68.5017 377.506C69.0297 377.194 69.4497 376.762 69.7617 376.21C70.0737 375.646 70.2297 374.998 70.2297 374.266C70.2297 373.534 70.0737 372.892 69.7617 372.34C69.4497 371.788 69.0297 371.356 68.5017 371.044C67.9737 370.732 67.3737 370.576 66.7017 370.576C66.0297 370.576 65.4237 370.732 64.8837 371.044C64.3557 371.356 63.9357 371.788 63.6237 372.34C63.3237 372.892 63.1737 373.534 63.1737 374.266C63.1737 374.998 63.3237 375.646 63.6237 376.21C63.9357 376.762 64.3557 377.194 64.8837 377.506C65.4237 377.806 66.0297 377.956 66.7017 377.956ZM85.1336 379L81.8936 374.32L82.9556 373.69L86.6636 379H85.1336ZM79.7696 374.788V373.69H82.7576V374.788H79.7696ZM83.0816 374.41L81.8576 374.23L85.0076 369.55H86.3936L83.0816 374.41ZM73.9376 379H72.4076L76.1156 373.69L77.1596 374.32L73.9376 379ZM80.1656 379H78.8876V369.55H80.1656V379ZM79.2836 374.788H76.3136V373.69H79.2836V374.788ZM76.0076 374.41L72.6776 369.55H74.0636L77.1956 374.23L76.0076 374.41ZM95.7207 379L91.8327 374.32L92.8947 373.69L97.2327 379H95.7207ZM88.7907 379V369.55H90.0687V379H88.7907ZM89.6727 374.788V373.69H92.7147V374.788H89.6727ZM93.0027 374.41L91.8147 374.23L95.5767 369.55H96.9627L93.0027 374.41ZM98.8667 382.582C98.4227 382.582 97.9967 382.51 97.5887 382.366C97.1927 382.222 96.8507 382.006 96.5627 381.718L97.1567 380.764C97.3967 380.992 97.6547 381.166 97.9307 381.286C98.2187 381.418 98.5367 381.484 98.8847 381.484C99.3047 381.484 99.6647 381.364 99.9647 381.124C100.277 380.896 100.571 380.488 100.847 379.9L101.459 378.514L101.603 378.316L105.491 369.55H106.751L102.017 380.134C101.753 380.746 101.459 381.232 101.135 381.592C100.823 381.952 100.481 382.204 100.109 382.348C99.7367 382.504 99.3227 382.582 98.8667 382.582ZM101.387 379.27L97.0307 369.55H98.3627L102.215 378.226L101.387 379.27ZM117.341 379.09C116.429 379.09 115.607 378.886 114.875 378.478C114.155 378.058 113.585 377.488 113.165 376.768C112.745 376.036 112.535 375.202 112.535 374.266C112.535 373.318 112.745 372.484 113.165 371.764C113.585 371.044 114.155 370.48 114.875 370.072C115.595 369.664 116.417 369.46 117.341 369.46C118.277 369.46 119.105 369.664 119.825 370.072C120.557 370.48 121.127 371.044 121.535 371.764C121.955 372.484 122.165 373.318 122.165 374.266C122.165 375.202 121.955 376.036 121.535 376.768C121.127 377.488 120.557 378.058 119.825 378.478C119.093 378.886 118.265 379.09 117.341 379.09ZM117.341 377.956C118.025 377.956 118.631 377.806 119.159 377.506C119.687 377.194 120.101 376.762 120.401 376.21C120.713 375.646 120.869 374.998 120.869 374.266C120.869 373.522 120.713 372.874 120.401 372.322C120.101 371.77 119.687 371.344 119.159 371.044C118.631 370.732 118.031 370.576 117.359 370.576C116.687 370.576 116.087 370.732 115.559 371.044C115.031 371.344 114.611 371.77 114.299 372.322C113.987 372.874 113.831 373.522 113.831 374.266C113.831 374.998 113.987 375.646 114.299 376.21C114.611 376.762 115.031 377.194 115.559 377.506C116.087 377.806 116.681 377.956 117.341 377.956ZM129.144 379.108C128.376 379.108 127.692 378.982 127.092 378.73C126.504 378.478 126 378.094 125.58 377.578C125.16 377.062 124.842 376.426 124.626 375.67C124.41 374.902 124.302 374.014 124.302 373.006C124.302 372.106 124.386 371.32 124.554 370.648C124.722 369.964 124.956 369.376 125.256 368.884C125.556 368.392 125.904 367.978 126.3 367.642C126.708 367.294 127.146 367.018 127.614 366.814C128.094 366.598 128.586 366.436 129.09 366.328L133.338 365.338L133.554 366.526L129.558 367.426C129.306 367.486 129 367.57 128.64 367.678C128.292 367.786 127.932 367.948 127.56 368.164C127.2 368.38 126.864 368.68 126.552 369.064C126.24 369.448 125.988 369.946 125.796 370.558C125.616 371.158 125.526 371.908 125.526 372.808C125.526 373 125.532 373.156 125.544 373.276C125.556 373.384 125.568 373.504 125.58 373.636C125.604 373.756 125.622 373.936 125.634 374.176L125.076 373.708C125.208 372.976 125.478 372.34 125.886 371.8C126.294 371.248 126.804 370.822 127.416 370.522C128.04 370.21 128.73 370.054 129.486 370.054C130.362 370.054 131.142 370.246 131.826 370.63C132.51 371.002 133.044 371.524 133.428 372.196C133.824 372.868 134.022 373.648 134.022 374.536C134.022 375.412 133.818 376.198 133.41 376.894C133.014 377.59 132.45 378.136 131.718 378.532C130.986 378.916 130.128 379.108 129.144 379.108ZM129.288 378.046C129.96 378.046 130.554 377.896 131.07 377.596C131.586 377.284 131.988 376.864 132.276 376.336C132.576 375.808 132.726 375.214 132.726 374.554C132.726 373.906 132.576 373.33 132.276 372.826C131.988 372.322 131.586 371.926 131.07 371.638C130.554 371.338 129.954 371.188 129.27 371.188C128.598 371.188 128.004 371.332 127.488 371.62C126.972 371.896 126.564 372.286 126.264 372.79C125.976 373.294 125.832 373.876 125.832 374.536C125.832 375.196 125.976 375.79 126.264 376.318C126.564 376.846 126.972 377.266 127.488 377.578C128.016 377.89 128.616 378.046 129.288 378.046ZM141.639 379.09C140.823 379.09 140.085 378.904 139.425 378.532C138.765 378.148 138.237 377.602 137.841 376.894C137.457 376.174 137.265 375.298 137.265 374.266C137.265 373.234 137.457 372.364 137.841 371.656C138.225 370.936 138.747 370.39 139.407 370.018C140.067 369.646 140.811 369.46 141.639 369.46C142.539 369.46 143.343 369.664 144.051 370.072C144.771 370.468 145.335 371.032 145.743 371.764C146.151 372.484 146.355 373.318 146.355 374.266C146.355 375.226 146.151 376.066 145.743 376.786C145.335 377.506 144.771 378.07 144.051 378.478C143.343 378.886 142.539 379.09 141.639 379.09ZM136.761 382.492V369.55H137.985V372.394L137.859 374.284L138.039 376.192V382.492H136.761ZM141.549 377.956C142.221 377.956 142.821 377.806 143.349 377.506C143.877 377.194 144.297 376.762 144.609 376.21C144.921 375.646 145.077 374.998 145.077 374.266C145.077 373.534 144.921 372.892 144.609 372.34C144.297 371.788 143.877 371.356 143.349 371.044C142.821 370.732 142.221 370.576 141.549 370.576C140.877 370.576 140.271 370.732 139.731 371.044C139.203 371.356 138.783 371.788 138.471 372.34C138.171 372.892 138.021 373.534 138.021 374.266C138.021 374.998 138.171 375.646 138.471 376.21C138.783 376.762 139.203 377.194 139.731 377.506C140.271 377.806 140.877 377.956 141.549 377.956ZM154.916 379V376.912L154.862 376.57V373.078C154.862 372.274 154.634 371.656 154.178 371.224C153.734 370.792 153.068 370.576 152.18 370.576C151.568 370.576 150.986 370.678 150.434 370.882C149.882 371.086 149.414 371.356 149.03 371.692L148.454 370.738C148.934 370.33 149.51 370.018 150.182 369.802C150.854 369.574 151.562 369.46 152.306 369.46C153.53 369.46 154.472 369.766 155.132 370.378C155.804 370.978 156.14 371.896 156.14 373.132V379H154.916ZM151.658 379.09C150.95 379.09 150.332 378.976 149.804 378.748C149.288 378.508 148.892 378.184 148.616 377.776C148.34 377.356 148.202 376.876 148.202 376.336C148.202 375.844 148.316 375.4 148.544 375.004C148.784 374.596 149.168 374.272 149.696 374.032C150.236 373.78 150.956 373.654 151.856 373.654H155.114V374.608H151.892C150.98 374.608 150.344 374.77 149.984 375.094C149.636 375.418 149.462 375.82 149.462 376.3C149.462 376.84 149.672 377.272 150.092 377.596C150.512 377.92 151.1 378.082 151.856 378.082C152.576 378.082 153.194 377.92 153.71 377.596C154.238 377.26 154.622 376.78 154.862 376.156L155.15 377.038C154.91 377.662 154.49 378.16 153.89 378.532C153.302 378.904 152.558 379.09 151.658 379.09ZM161.887 379.108C162.667 379.108 163.369 378.988 163.993 378.748C164.629 378.508 165.133 378.178 165.505 377.758C165.877 377.326 166.063 376.828 166.063 376.264C166.063 375.544 165.757 374.974 165.145 374.554C164.545 374.134 163.705 373.924 162.625 373.924L162.571 374.266C163.183 374.266 163.729 374.17 164.209 373.978C164.689 373.786 165.073 373.516 165.361 373.168C165.649 372.82 165.793 372.412 165.793 371.944C165.793 371.416 165.613 370.966 165.253 370.594C164.893 370.21 164.407 369.916 163.795 369.712C163.195 369.508 162.517 369.418 161.761 369.442C161.209 369.442 160.657 369.52 160.105 369.676C159.565 369.82 159.019 370.036 158.467 370.324L158.827 371.314C159.319 371.062 159.817 370.876 160.321 370.756C160.825 370.624 161.311 370.552 161.779 370.54C162.295 370.54 162.757 370.6 163.165 370.72C163.573 370.84 163.891 371.02 164.119 371.26C164.359 371.5 164.479 371.788 164.479 372.124C164.479 372.436 164.377 372.706 164.173 372.934C163.981 373.162 163.705 373.336 163.345 373.456C162.985 373.576 162.571 373.636 162.103 373.636H160.573V374.572H162.193C162.985 374.572 163.609 374.716 164.065 375.004C164.521 375.28 164.749 375.67 164.749 376.174C164.749 376.522 164.629 376.834 164.389 377.11C164.149 377.386 163.813 377.602 163.381 377.758C162.949 377.914 162.439 377.998 161.851 378.01C161.263 378.01 160.669 377.926 160.069 377.758C159.469 377.578 158.941 377.32 158.485 376.984L158.071 377.938C158.587 378.334 159.181 378.628 159.853 378.82C160.525 379.012 161.203 379.108 161.887 379.108ZM172.852 379.09C171.94 379.09 171.118 378.886 170.386 378.478C169.666 378.058 169.096 377.488 168.676 376.768C168.256 376.036 168.046 375.202 168.046 374.266C168.046 373.318 168.256 372.484 168.676 371.764C169.096 371.044 169.666 370.48 170.386 370.072C171.106 369.664 171.928 369.46 172.852 369.46C173.788 369.46 174.616 369.664 175.336 370.072C176.068 370.48 176.638 371.044 177.046 371.764C177.466 372.484 177.676 373.318 177.676 374.266C177.676 375.202 177.466 376.036 177.046 376.768C176.638 377.488 176.068 378.058 175.336 378.478C174.604 378.886 173.776 379.09 172.852 379.09ZM172.852 377.956C173.536 377.956 174.142 377.806 174.67 377.506C175.198 377.194 175.612 376.762 175.912 376.21C176.224 375.646 176.38 374.998 176.38 374.266C176.38 373.522 176.224 372.874 175.912 372.322C175.612 371.77 175.198 371.344 174.67 371.044C174.142 370.732 173.542 370.576 172.87 370.576C172.198 370.576 171.598 370.732 171.07 371.044C170.542 371.344 170.122 371.77 169.81 372.322C169.498 372.874 169.342 373.522 169.342 374.266C169.342 374.998 169.498 375.646 169.81 376.21C170.122 376.762 170.542 377.194 171.07 377.506C171.598 377.806 172.192 377.956 172.852 377.956ZM180.408 379V369.55H184.584C185.652 369.55 186.492 369.754 187.104 370.162C187.728 370.57 188.04 371.17 188.04 371.962C188.04 372.73 187.746 373.324 187.158 373.744C186.57 374.152 185.796 374.356 184.836 374.356L185.088 373.978C186.216 373.978 187.044 374.188 187.572 374.608C188.1 375.028 188.364 375.634 188.364 376.426C188.364 377.242 188.064 377.878 187.464 378.334C186.876 378.778 185.958 379 184.71 379H180.408ZM181.65 377.992H184.656C185.46 377.992 186.066 377.866 186.474 377.614C186.894 377.35 187.104 376.93 187.104 376.354C187.104 375.778 186.918 375.358 186.546 375.094C186.174 374.83 185.586 374.698 184.782 374.698H181.65V377.992ZM181.65 373.744H184.494C185.226 373.744 185.784 373.606 186.168 373.33C186.564 373.054 186.762 372.652 186.762 372.124C186.762 371.596 186.564 371.2 186.168 370.936C185.784 370.672 185.226 370.54 184.494 370.54H181.65V373.744ZM197.227 379V376.912L197.173 376.57V373.078C197.173 372.274 196.945 371.656 196.489 371.224C196.045 370.792 195.379 370.576 194.491 370.576C193.879 370.576 193.297 370.678 192.745 370.882C192.193 371.086 191.725 371.356 191.341 371.692L190.765 370.738C191.245 370.33 191.821 370.018 192.493 369.802C193.165 369.574 193.873 369.46 194.617 369.46C195.841 369.46 196.783 369.766 197.443 370.378C198.115 370.978 198.451 371.896 198.451 373.132V379H197.227ZM193.969 379.09C193.261 379.09 192.643 378.976 192.115 378.748C191.599 378.508 191.203 378.184 190.927 377.776C190.651 377.356 190.513 376.876 190.513 376.336C190.513 375.844 190.627 375.4 190.855 375.004C191.095 374.596 191.479 374.272 192.007 374.032C192.547 373.78 193.267 373.654 194.167 373.654H197.425V374.608H194.203C193.291 374.608 192.655 374.77 192.295 375.094C191.947 375.418 191.773 375.82 191.773 376.3C191.773 376.84 191.983 377.272 192.403 377.596C192.823 377.92 193.411 378.082 194.167 378.082C194.887 378.082 195.505 377.92 196.021 377.596C196.549 377.26 196.933 376.78 197.173 376.156L197.461 377.038C197.221 377.662 196.801 378.16 196.201 378.532C195.613 378.904 194.869 379.09 193.969 379.09ZM203.653 379V370.324L203.977 370.666H200.071V369.55H208.513V370.666H204.607L204.931 370.324V379H203.653ZM213.972 379.09C212.988 379.09 212.124 378.886 211.38 378.478C210.636 378.058 210.054 377.488 209.634 376.768C209.214 376.036 209.004 375.202 209.004 374.266C209.004 373.33 209.202 372.502 209.598 371.782C210.006 371.062 210.558 370.498 211.254 370.09C211.962 369.67 212.754 369.46 213.63 369.46C214.518 369.46 215.304 369.664 215.988 370.072C216.684 370.468 217.23 371.032 217.626 371.764C218.022 372.484 218.22 373.318 218.22 374.266C218.22 374.326 218.214 374.392 218.202 374.464C218.202 374.524 218.202 374.59 218.202 374.662H209.976V373.708H217.518L217.014 374.086C217.014 373.402 216.864 372.796 216.564 372.268C216.276 371.728 215.88 371.308 215.376 371.008C214.872 370.708 214.29 370.558 213.63 370.558C212.982 370.558 212.4 370.708 211.884 371.008C211.368 371.308 210.966 371.728 210.678 372.268C210.39 372.808 210.246 373.426 210.246 374.122V374.32C210.246 375.04 210.402 375.676 210.714 376.228C211.038 376.768 211.482 377.194 212.046 377.506C212.622 377.806 213.276 377.956 214.008 377.956C214.584 377.956 215.118 377.854 215.61 377.65C216.114 377.446 216.546 377.134 216.906 376.714L217.626 377.542C217.206 378.046 216.678 378.43 216.042 378.694C215.418 378.958 214.728 379.09 213.972 379.09ZM219.127 378.982L219.217 377.884C219.301 377.896 219.379 377.914 219.451 377.938C219.535 377.95 219.607 377.956 219.667 377.956C220.051 377.956 220.357 377.812 220.585 377.524C220.825 377.236 221.005 376.852 221.125 376.372C221.245 375.892 221.329 375.352 221.377 374.752C221.425 374.14 221.467 373.528 221.503 372.916L221.665 369.55H228.595V379H227.317V370.288L227.641 370.666H222.493L222.799 370.27L222.655 373.006C222.619 373.822 222.553 374.602 222.457 375.346C222.373 376.09 222.235 376.744 222.043 377.308C221.863 377.872 221.611 378.316 221.287 378.64C220.963 378.952 220.549 379.108 220.045 379.108C219.901 379.108 219.751 379.096 219.595 379.072C219.451 379.048 219.295 379.018 219.127 378.982ZM236.296 372.88C237.484 372.892 238.384 373.156 238.996 373.672C239.62 374.188 239.932 374.932 239.932 375.904C239.932 376.912 239.596 377.686 238.924 378.226C238.264 378.766 237.304 379.03 236.044 379.018L232.228 379V369.55H233.506V372.844L236.296 372.88ZM235.972 378.046C236.848 378.058 237.508 377.884 237.952 377.524C238.408 377.152 238.636 376.612 238.636 375.904C238.636 375.196 238.414 374.68 237.97 374.356C237.526 374.02 236.86 373.846 235.972 373.834L233.506 373.798V378.01L235.972 378.046ZM242.371 379V369.55H243.649V373.726H249.607V369.55H250.885V379H249.607V374.824H243.649V379H242.371ZM263.733 379V369.55H265.011V379H263.733ZM258.495 372.88C259.683 372.892 260.589 373.156 261.213 373.672C261.837 374.188 262.149 374.932 262.149 375.904C262.149 376.912 261.813 377.686 261.141 378.226C260.469 378.766 259.509 379.03 258.261 379.018L254.517 379V369.55H255.795V372.844L258.495 372.88ZM258.171 378.046C259.059 378.058 259.725 377.884 260.169 377.524C260.625 377.152 260.853 376.612 260.853 375.904C260.853 375.196 260.631 374.68 260.187 374.356C259.743 374.02 259.071 373.846 258.171 373.834L255.795 373.798V378.01L258.171 378.046ZM267.102 379L271.098 373.816L271.08 374.446L267.282 369.55H268.722L271.836 373.6L271.296 373.582L274.41 369.55H275.814L271.98 374.5L271.998 373.816L276.03 379H274.572L271.278 374.68L271.782 374.752L268.542 379H267.102ZM8.52894 401V391.55H17.0249V401H15.7469V392.324L16.0709 392.666H9.48294L9.80694 392.324V401H8.52894ZM25.5358 401.09C24.7198 401.09 23.9818 400.904 23.3218 400.532C22.6618 400.148 22.1338 399.602 21.7378 398.894C21.3538 398.174 21.1618 397.298 21.1618 396.266C21.1618 395.234 21.3538 394.364 21.7378 393.656C22.1218 392.936 22.6438 392.39 23.3038 392.018C23.9638 391.646 24.7078 391.46 25.5358 391.46C26.4358 391.46 27.2398 391.664 27.9478 392.072C28.6678 392.468 29.2318 393.032 29.6398 393.764C30.0478 394.484 30.2518 395.318 30.2518 396.266C30.2518 397.226 30.0478 398.066 29.6398 398.786C29.2318 399.506 28.6678 400.07 27.9478 400.478C27.2398 400.886 26.4358 401.09 25.5358 401.09ZM20.6578 404.492V391.55H21.8818V394.394L21.7558 396.284L21.9358 398.192V404.492H20.6578ZM25.4458 399.956C26.1178 399.956 26.7178 399.806 27.2458 399.506C27.7738 399.194 28.1938 398.762 28.5058 398.21C28.8178 397.646 28.9738 396.998 28.9738 396.266C28.9738 395.534 28.8178 394.892 28.5058 394.34C28.1938 393.788 27.7738 393.356 27.2458 393.044C26.7178 392.732 26.1178 392.576 25.4458 392.576C24.7738 392.576 24.1678 392.732 23.6278 393.044C23.0998 393.356 22.6798 393.788 22.3678 394.34C22.0678 394.892 21.9178 395.534 21.9178 396.266C21.9178 396.998 22.0678 397.646 22.3678 398.21C22.6798 398.762 23.0998 399.194 23.6278 399.506C24.1678 399.806 24.7738 399.956 25.4458 399.956ZM36.8857 401.09C35.9737 401.09 35.1517 400.886 34.4197 400.478C33.6997 400.058 33.1297 399.488 32.7097 398.768C32.2897 398.036 32.0797 397.202 32.0797 396.266C32.0797 395.318 32.2897 394.484 32.7097 393.764C33.1297 393.044 33.6997 392.48 34.4197 392.072C35.1397 391.664 35.9617 391.46 36.8857 391.46C37.8217 391.46 38.6497 391.664 39.3697 392.072C40.1017 392.48 40.6717 393.044 41.0797 393.764C41.4997 394.484 41.7097 395.318 41.7097 396.266C41.7097 397.202 41.4997 398.036 41.0797 398.768C40.6717 399.488 40.1017 400.058 39.3697 400.478C38.6377 400.886 37.8097 401.09 36.8857 401.09ZM36.8857 399.956C37.5697 399.956 38.1757 399.806 38.7037 399.506C39.2317 399.194 39.6457 398.762 39.9457 398.21C40.2577 397.646 40.4137 396.998 40.4137 396.266C40.4137 395.522 40.2577 394.874 39.9457 394.322C39.6457 393.77 39.2317 393.344 38.7037 393.044C38.1757 392.732 37.5757 392.576 36.9037 392.576C36.2317 392.576 35.6317 392.732 35.1037 393.044C34.5757 393.344 34.1557 393.77 33.8437 394.322C33.5317 394.874 33.3757 395.522 33.3757 396.266C33.3757 396.998 33.5317 397.646 33.8437 398.21C34.1557 398.762 34.5757 399.194 35.1037 399.506C35.6317 399.806 36.2257 399.956 36.8857 399.956ZM48.491 401.09C47.507 401.09 46.643 400.886 45.899 400.478C45.155 400.058 44.573 399.488 44.153 398.768C43.733 398.036 43.523 397.202 43.523 396.266C43.523 395.33 43.721 394.502 44.117 393.782C44.525 393.062 45.077 392.498 45.773 392.09C46.481 391.67 47.273 391.46 48.149 391.46C49.037 391.46 49.823 391.664 50.507 392.072C51.203 392.468 51.749 393.032 52.145 393.764C52.541 394.484 52.739 395.318 52.739 396.266C52.739 396.326 52.733 396.392 52.721 396.464C52.721 396.524 52.721 396.59 52.721 396.662H44.495V395.708H52.037L51.533 396.086C51.533 395.402 51.383 394.796 51.083 394.268C50.795 393.728 50.399 393.308 49.895 393.008C49.391 392.708 48.809 392.558 48.149 392.558C47.501 392.558 46.919 392.708 46.403 393.008C45.887 393.308 45.485 393.728 45.197 394.268C44.909 394.808 44.765 395.426 44.765 396.122V396.32C44.765 397.04 44.921 397.676 45.233 398.228C45.557 398.768 46.001 399.194 46.565 399.506C47.141 399.806 47.795 399.956 48.527 399.956C49.103 399.956 49.637 399.854 50.129 399.65C50.633 399.446 51.065 399.134 51.425 398.714L52.145 399.542C51.725 400.046 51.197 400.43 50.561 400.694C49.937 400.958 49.247 401.09 48.491 401.09ZM62.498 401L58.61 396.32L59.672 395.69L64.01 401H62.498ZM55.568 401V391.55H56.846V401H55.568ZM56.45 396.788V395.69H59.492V396.788H56.45ZM59.78 396.41L58.592 396.23L62.354 391.55H63.74L59.78 396.41ZM67.6336 401V392.324L67.9576 392.666H64.0516V391.55H72.4936V392.666H68.5876L68.9116 392.324V401H67.6336ZM77.79 401.09C76.878 401.09 76.056 400.886 75.324 400.478C74.604 400.058 74.034 399.488 73.614 398.768C73.194 398.036 72.984 397.202 72.984 396.266C72.984 395.318 73.194 394.484 73.614 393.764C74.034 393.044 74.604 392.48 75.324 392.072C76.044 391.664 76.866 391.46 77.79 391.46C78.726 391.46 79.554 391.664 80.274 392.072C81.006 392.48 81.576 393.044 81.984 393.764C82.404 394.484 82.614 395.318 82.614 396.266C82.614 397.202 82.404 398.036 81.984 398.768C81.576 399.488 81.006 400.058 80.274 400.478C79.542 400.886 78.714 401.09 77.79 401.09ZM77.79 399.956C78.474 399.956 79.08 399.806 79.608 399.506C80.136 399.194 80.55 398.762 80.85 398.21C81.162 397.646 81.318 396.998 81.318 396.266C81.318 395.522 81.162 394.874 80.85 394.322C80.55 393.77 80.136 393.344 79.608 393.044C79.08 392.732 78.48 392.576 77.808 392.576C77.136 392.576 76.536 392.732 76.008 393.044C75.48 393.344 75.06 393.77 74.748 394.322C74.436 394.874 74.28 395.522 74.28 396.266C74.28 396.998 74.436 397.646 74.748 398.21C75.06 398.762 75.48 399.194 76.008 399.506C76.536 399.806 77.13 399.956 77.79 399.956ZM85.3453 401V391.55H89.5213C90.5893 391.55 91.4293 391.754 92.0413 392.162C92.6653 392.57 92.9773 393.17 92.9773 393.962C92.9773 394.73 92.6833 395.324 92.0953 395.744C91.5073 396.152 90.7333 396.356 89.7733 396.356L90.0253 395.978C91.1533 395.978 91.9813 396.188 92.5093 396.608C93.0373 397.028 93.3013 397.634 93.3013 398.426C93.3013 399.242 93.0013 399.878 92.4013 400.334C91.8133 400.778 90.8953 401 89.6473 401H85.3453ZM86.5873 399.992H89.5933C90.3973 399.992 91.0033 399.866 91.4113 399.614C91.8313 399.35 92.0413 398.93 92.0413 398.354C92.0413 397.778 91.8553 397.358 91.4833 397.094C91.1113 396.83 90.5233 396.698 89.7193 396.698H86.5873V399.992ZM86.5873 395.744H89.4313C90.1633 395.744 90.7213 395.606 91.1053 395.33C91.5013 395.054 91.6993 394.652 91.6993 394.124C91.6993 393.596 91.5013 393.2 91.1053 392.936C90.7213 392.672 90.1633 392.54 89.4313 392.54H86.5873V395.744Z" fill="black"/>
<path d="M323.233 301.016H325.369C325.585 299.336 326.809 298.184 328.849 298.184C330.937 298.184 332.041 299.336 332.041 300.992C332.041 303.008 330.481 303.896 327.577 303.92H327.001V305.744H327.553C330.673 305.744 332.377 306.68 332.377 309.128C332.377 310.904 331.273 312.272 328.945 312.272C326.641 312.272 325.297 310.856 325.081 309.008H322.969C323.233 312.368 325.681 314.12 328.969 314.12C332.593 314.12 334.465 312.008 334.465 309.32C334.465 306.824 333.097 305.336 331.081 304.856V304.736C332.905 304.328 334.153 302.768 334.153 300.776C334.153 298.28 332.305 296.312 328.921 296.312C325.705 296.312 323.449 298.04 323.233 301.016ZM337.414 305.144C337.414 310.184 338.662 314 343.462 314C348.238 314 349.486 310.184 349.486 305.144C349.486 300.176 348.238 296.384 343.462 296.384C338.662 296.384 337.414 300.176 337.414 305.144ZM347.326 305.144C347.326 308.888 346.87 312.008 343.462 312.008C340.03 312.008 339.574 308.888 339.574 305.144C339.574 301.544 340.03 298.376 343.462 298.376C346.87 298.376 347.326 301.544 347.326 305.144ZM352.004 300.56C352.004 302.816 353.516 304.16 355.508 304.16C357.524 304.16 359.012 302.816 359.012 300.56C359.012 298.328 357.524 296.984 355.508 296.984C353.516 296.984 352.004 298.328 352.004 300.56ZM355.508 298.328C356.564 298.328 357.284 299.048 357.284 300.56C357.284 302.048 356.564 302.816 355.508 302.816C354.452 302.816 353.756 302.048 353.756 300.56C353.756 299.048 354.452 298.328 355.508 298.328ZM354.14 314H356.3L366.02 297.248H363.86L354.14 314ZM361.196 310.688C361.196 312.92 362.684 314.288 364.7 314.288C366.692 314.288 368.18 312.92 368.18 310.688C368.18 308.432 366.692 307.088 364.7 307.088C362.684 307.088 361.196 308.432 361.196 310.688ZM364.676 308.456C365.732 308.456 366.452 309.176 366.452 310.688C366.452 312.176 365.732 312.896 364.676 312.896C363.62 312.896 362.9 312.176 362.9 310.688C362.9 309.176 363.62 308.456 364.676 308.456Z" fill="black"/>
</svg>
