<svg width="12" height="15" viewBox="0 0 12 15" fill="none" xmlns="http://www.w3.org/2000/svg">
<path d="M5.4375 1.47168L5.4375 12.6933L1.34475 8.39634C1.13044 8.17134 0.774375 8.16262 0.549375 8.37693C0.324656 8.59096 0.315656 8.94702 0.529968 9.17231L5.20435 14.0796C5.41697 14.2919 5.69935 14.4092 6 14.4092C6.30038 14.4092 6.58303 14.2919 6.80494 14.0697L11.4698 9.17202C11.5735 9.06318 11.625 8.92368 11.625 8.78418C11.625 8.63568 11.5665 8.48718 11.4504 8.37665C11.2254 8.16234 10.8696 8.17106 10.6553 8.39606L6.5625 12.711L6.5625 1.47168C6.5625 1.16118 6.3105 0.909183 6 0.909183C5.6895 0.909183 5.4375 1.16118 5.4375 1.47168Z" fill="black"/>
</svg>
