<svg width="243" height="33" viewBox="0 0 243 33" fill="none" xmlns="http://www.w3.org/2000/svg">
<path d="M181.913 22.4461C186.213 22.2412 186.013 22.9583 187.413 22.6509C187.613 22.6509 187.813 22.8558 187.813 23.0607C188.013 22.7534 187.313 23.7778 187.413 23.5729C186.813 23.4705 186.213 23.4705 185.613 23.7778C185.413 23.8802 185.413 24.0851 185.213 24.3924C187.113 24.6997 191.613 24.3924 192.313 25.4168C192.213 26.2363 191.813 26.1339 190.013 26.3388C190.013 26.5436 189.813 26.4412 191.113 26.7485C191.413 27.1583 191.213 27.1583 188.713 27.1583C187.513 27.1583 187.213 26.4412 185.913 26.5436C185.213 26.6461 184.613 26.1339 183.913 26.3388L181.913 22.4461ZM187.113 17.8363C187.413 17.8363 187.613 17.7339 187.813 18.1436C187.813 18.2461 187.713 18.3485 187.613 18.3485L187.113 17.8363ZM182.413 11.0753C185.113 11.3827 187.713 11.1778 190.413 11.3827C191.313 11.4851 191.213 11.4851 191.113 12.3046C193.013 13.2266 197.513 12.7144 200.213 13.329C199.213 13.4314 198.613 13.7388 198.113 13.6363C197.313 13.4314 196.613 13.7388 196.113 14.4558C194.513 14.4558 193.913 14.0461 192.413 14.251C192.213 14.251 192.013 14.251 191.813 14.1485C190.313 13.329 187.313 13.8412 186.313 13.5339C185.013 13.1241 183.713 13.4314 182.413 13.329V11.0753ZM22.6128 28.49C22.7128 28.5924 23.0128 28.1827 23.0128 28.0802C23.0128 27.8753 22.8128 27.568 22.6128 27.4656C22.5128 27.4656 22.6128 27.4656 22.1128 27.4656C21.9128 27.2607 21.5128 26.5436 20.6128 26.5436C18.2128 26.6461 15.8128 26.0314 13.4128 26.4412C12.4128 26.5436 12.2128 25.8266 10.4128 26.7485C8.21279 25.7241 5.81279 25.929 3.21279 26.0314C2.91279 26.0314 2.81279 26.0314 2.11279 25.3144C2.91279 24.8022 3.91279 25.3144 4.61279 25.007C5.21279 24.1875 4.31279 23.0607 5.61279 22.8558C6.01279 22.7534 5.51279 22.8558 8.21279 22.6509C8.71279 21.9339 8.51279 20.6022 7.71279 20.4997C5.61279 20.1924 7.81279 20.7046 0.512789 19.7827C0.0127891 19.6802 -0.187211 18.8607 0.212789 18.7583C1.11279 18.451 1.41279 18.5534 3.31279 18.5534C3.21279 18.1436 2.81279 18.2461 2.61279 18.0412C2.41279 17.8363 2.41279 17.6314 2.61279 17.3241C7.21279 16.8119 5.71279 16.6071 8.91279 16.6071C10.4128 16.6071 11.9128 16.0949 13.4128 15.7875C16.4128 15.0705 15.8128 16.0949 17.0128 15.6851C18.2128 15.2753 18.7128 16.5046 20.0128 15.4802L20.1128 15.5827C19.8128 15.4802 19.7128 15.1729 19.5128 15.0705C19.0128 14.968 17.6128 15.3778 15.8128 14.7632C14.2128 14.1485 13.1128 14.7632 12.6128 14.251C13.1128 13.8412 13.7128 14.1485 14.2128 14.0461C14.7128 13.9436 15.1128 13.8412 15.6128 13.8412C15.9128 12.2022 14.0128 12.6119 13.6128 12.4071C12.0128 11.69 11.1128 12.0997 8.71279 12.2022C8.01279 11.4851 8.51279 11.69 6.21279 11.5875C5.41279 11.5875 5.81279 10.6656 6.11279 10.5632C8.11279 9.84608 7.31279 10.8705 8.21279 9.53876C9.31279 8.51438 19.4128 10.051 21.5128 8.71925C22.0128 8.41194 22.3128 8.61681 27.2128 8.82169C29.2128 8.92413 29.2128 9.43633 30.9128 9.33389C35.3128 9.02657 34.6128 9.33389 35.1128 8.41194C37.7128 7.18267 39.0128 8.20706 42.5128 7.18267C42.9128 7.08023 43.3128 7.08023 43.7128 6.97779C43.7128 6.56804 43.5128 6.56804 43.4128 6.56804C39.6128 6.26072 31.6128 7.08023 30.1128 6.4656C30.2128 6.26072 30.2128 6.05584 30.3128 6.05584C31.0128 5.85096 31.8128 5.54365 32.5128 5.64608C34.4128 5.9534 34.4128 5.74852 42.6128 5.54365C45.2128 5.54365 44.2128 4.72413 46.7128 5.03145C50.6128 5.44121 63.7128 4.6217 67.0128 5.54365C67.5128 5.64609 68.1128 5.74852 68.6128 5.64608C69.2128 5.54365 69.8128 5.74852 70.6128 5.85096C72.4128 5.23633 73.1128 4.92901 73.9128 5.33877C74.3128 5.54365 74.7128 5.03145 75.7128 5.23633C79.8128 5.74852 81.0128 5.13389 81.6128 5.23633C82.9128 5.64608 84.1128 5.23633 84.3128 5.33877C85.4128 6.05584 88.5128 4.72413 92.1128 5.85096C101.813 3.18755 81.7128 4.31438 36.9128 4.6217C35.5128 4.6217 31.6128 5.03145 29.7128 4.92901C27.8128 4.82657 20.7128 4.82657 18.2128 5.33877C18.0128 5.54365 17.8128 5.64608 17.7128 5.74852C15.8128 5.03145 12.9128 5.74852 10.9128 5.33877C11.0128 5.23633 11.1128 5.03145 11.1128 5.03145C12.8128 5.13389 14.5128 4.51926 16.2128 4.51926C17.2128 4.51926 17.1128 3.80218 19.4128 3.90462C21.8128 4.1095 21.8128 3.59731 26.4128 3.69974C29.1128 3.80218 28.5128 3.90462 30.5128 2.47048C31.7128 2.47048 31.4128 2.2656 32.1128 3.28999C36.1128 3.49487 92.5128 2.77779 92.5128 2.77779C94.0128 2.77779 93.5128 2.16316 95.9128 2.16316C100.813 2.16316 110.313 2.16316 117.913 2.16316C118.613 2.16316 119.313 1.85584 119.913 1.95828C120.613 2.06072 121.313 1.95828 121.913 1.85584C123.413 1.65097 123.413 2.16316 125.013 2.16316C137.413 2.16316 137.013 2.36804 137.113 1.44609C136.513 1.13877 135.913 1.34365 135.313 1.34365C133.113 1.13877 134.813 1.95828 131.613 1.24121C131.513 1.24121 131.413 1.03633 131.213 1.03633C131.313 0.933893 131.313 0.831454 131.413 0.831454C137.313 0.421699 137.713 1.13877 141.313 1.13877C145.413 1.13877 145.413 1.03633 145.913 1.85584C147.913 2.06072 147.013 2.06072 148.013 2.36804C150.213 3.08511 149.913 2.77779 152.713 2.88023C154.713 2.88023 154.413 3.18755 155.713 3.39243C156.313 3.49487 156.913 3.39243 157.513 3.49487C160.313 4.31438 161.113 3.28999 166.013 4.00706C166.713 3.59731 167.513 3.28999 168.313 3.90462C168.213 3.69974 168.413 4.1095 168.413 4.31438C168.613 5.9534 173.513 4.00706 175.313 5.13389C176.413 5.85096 177.613 5.13389 179.513 4.72413C180.413 4.6217 182.213 4.82657 181.813 5.85096C180.913 6.36316 180.413 5.85096 174.813 6.05584C175.113 6.56804 174.713 6.15828 182.013 6.4656C189.913 6.77291 190.013 6.36316 192.113 6.77291C192.613 6.87535 191.013 6.77291 198.713 6.77291C208.113 6.87535 210.513 8.61681 219.813 7.7973C220.813 6.4656 220.913 6.67047 222.513 6.67047C223.513 7.59242 223.513 7.59242 224.513 7.69486C225.713 7.89974 229.413 7.69486 229.413 7.69486C231.213 7.48999 230.413 8.00218 237.413 7.89974C242.913 7.7973 241.913 7.89974 242.713 8.10462C242.713 8.41194 242.713 8.71925 242.513 8.71925C241.213 8.92413 234.713 9.02657 233.113 9.23145C232.913 9.23145 232.813 9.53877 232.713 9.6412C232.813 10.5632 233.513 10.5632 234.313 10.9729C221.813 11.1778 225.613 10.9729 225.313 11.9973C224.313 12.5095 223.013 12.0997 223.313 13.9436C223.613 14.0461 223.913 14.251 224.213 14.3534C224.513 15.0705 223.413 14.968 223.113 15.5827C223.813 15.7875 224.413 16.0949 224.913 16.7095C225.313 17.2217 226.113 17.2217 226.213 18.3485C226.413 17.9388 226.613 17.6314 226.713 17.3241C227.113 18.451 226.713 17.8363 228.413 18.9631C228.713 19.168 228.913 19.4753 228.913 19.9875C229.013 19.8851 229.313 19.8851 226.913 20.2949C226.613 20.4997 226.213 20.7046 226.213 21.4217C227.213 22.1388 226.713 22.1388 229.913 22.0363C230.113 22.0363 230.213 21.9339 230.513 21.729C230.413 21.2168 230.313 20.807 230.213 20.4997C230.213 20.4997 234.913 20.6022 235.513 20.8071C235.713 20.8071 235.913 21.1144 235.813 21.3192C235.613 21.8314 235.613 21.729 233.313 22.0363C232.413 22.1388 232.513 22.0363 232.513 23.2656C232.013 23.7778 231.413 23.0607 230.813 23.4705C230.913 23.6753 231.013 23.8802 231.113 23.9827C232.213 24.6997 231.913 24.0851 232.213 25.007C230.213 25.6217 228.713 24.3924 228.613 25.6217C228.613 26.5436 228.613 26.5436 227.913 26.9534C226.213 25.5192 226.813 25.7241 225.413 25.929C225.013 27.0558 225.013 27.4656 224.013 27.3631C216.413 26.4412 219.013 25.8266 215.513 26.5436C215.313 26.9534 215.413 27.1583 215.713 27.3631V27.2607L22.6128 28.49ZM15.5128 31.3583C15.6128 31.2558 15.7128 31.2558 14.3128 31.3583V31.4607C13.4128 29.9241 6.81279 31.8705 4.11279 30.129C4.31279 29.7192 4.31279 29.6168 4.51279 29.5144C10.4128 29.1046 11.2128 29.9241 13.1128 29.207C13.1128 28.8997 13.1128 28.6948 13.0128 28.3875C13.7128 27.9778 14.5128 28.2851 15.2128 28.3875L15.5128 31.3583ZM185.313 27.3631C186.513 27.3631 185.613 27.2607 189.213 27.8753C189.613 28.1827 189.713 28.6948 189.813 29.1046C189.713 29.6168 189.413 29.8217 189.113 29.9241C185.913 30.2314 185.513 29.9241 187.513 30.4363C187.613 30.8461 187.513 30.9485 187.313 30.9485C185.713 30.9485 184.113 30.8461 182.613 30.4363C181.113 31.0509 182.513 30.8461 175.213 31.0509C175.413 31.4607 175.713 31.3583 175.913 31.4607C178.513 32.0753 178.413 32.1778 178.513 32.2802L185.313 27.3631ZM65.3128 7.7973C65.4128 7.89974 65.5128 8.00218 65.6128 8.00218C66.2128 8.00218 66.1128 7.59242 66.3128 7.48999C66.1128 7.7973 65.7128 7.48999 65.3128 7.7973ZM138.413 1.85584V1.65097C138.913 2.36804 140.113 2.06072 140.613 1.95828C139.813 1.85584 139.113 1.7534 138.413 1.85584ZM15.1128 19.6802C14.8128 19.5778 14.6128 19.168 14.2128 19.5778C14.6128 19.7827 14.9128 19.6802 15.1128 19.6802C15.0128 21.0119 17.8128 20.9095 17.8128 21.6266C17.8128 22.1388 18.0128 22.5485 18.4128 22.5485C19.8128 22.7534 21.1128 22.9583 22.5128 22.6509C22.6128 22.6509 22.7128 22.4461 22.8128 22.3436C21.9128 21.4217 22.0128 21.729 22.4128 21.3192C22.9128 20.9095 22.9128 20.807 22.6128 19.9875C17.9128 19.2705 16.7128 19.0656 15.1128 19.6802ZM213.513 28.0802V28.1827C213.113 27.6705 214.013 27.3631 213.913 26.8509C213.213 26.5436 212.613 26.1339 212.013 25.8266C211.013 25.7241 209.513 26.2363 207.913 25.6217C207.613 25.5192 205.213 25.5192 203.413 25.5192C203.313 25.5192 203.213 25.6217 203.113 25.7241C203.213 26.0314 203.213 26.3388 203.313 26.7485C201.413 27.3631 201.013 25.929 197.013 25.929C194.513 25.929 191.913 26.1339 189.413 25.5192C187.613 25.5192 185.813 25.5192 184.113 25.7241C186.013 25.929 187.513 25.7241 188.013 26.0314C189.013 26.5436 189.713 26.4412 194.313 26.5436C196.313 26.5436 194.913 27.0558 198.013 26.9534C200.513 26.8509 200.213 27.8753 202.413 27.9778C202.813 27.9778 205.013 28.2851 205.213 27.568C205.513 26.2363 206.313 26.3388 207.313 26.6461C206.913 27.4656 207.013 27.2607 206.613 27.568C206.513 27.6705 206.313 27.6705 206.313 27.9778C206.713 27.9778 207.113 28.0802 207.613 28.0802C210.713 28.0802 211.913 29.5144 213.513 28.0802ZM99.0128 7.89974C99.1128 7.59243 98.9128 7.38755 98.7128 7.38755C98.2128 7.28511 97.6128 7.18267 97.1128 7.28511C96.2128 7.48999 92.8128 6.97779 90.5128 7.28511C87.3128 7.69486 86.4128 7.28511 84.5128 7.7973C88.0128 8.51438 88.6128 7.89974 90.2128 8.51438C91.5128 8.92413 93.4128 8.51438 96.1128 8.61681C97.2128 8.61681 98.1128 8.41194 99.0128 7.89974ZM198.313 12.2022C206.813 12.5095 197.713 12.0997 210.113 12.3046C213.113 12.4071 211.913 11.9973 213.713 11.7924C213.913 11.7924 213.913 11.7924 214.213 11.3827C213.913 11.3827 213.613 11.2802 213.413 11.2802C201.913 11.3827 202.013 11.0753 198.313 12.2022ZM217.213 19.9875C217.913 21.1144 218.913 20.4997 219.813 21.1144C220.513 22.1388 220.013 21.9339 222.113 22.2412C222.613 21.729 223.013 21.4217 223.513 21.0119C223.513 20.807 223.313 19.9875 222.813 19.8851C220.913 19.5778 219.113 19.6802 217.213 19.9875ZM216.813 12.8168C216.513 12.8168 216.213 13.329 216.313 13.7388C216.413 14.3534 216.413 14.251 221.413 14.3534C221.513 14.3534 221.613 14.251 221.813 14.1485C221.413 12.6119 222.013 12.8168 216.813 12.8168ZM214.113 13.7388C213.913 13.4314 213.713 13.1241 213.413 13.1241C212.013 13.0217 210.713 13.0217 209.413 13.329C209.113 13.4314 209.013 13.6363 208.913 14.0461C208.813 14.5583 213.713 14.1485 213.713 14.1485C213.813 14.1485 214.013 13.9436 214.113 13.7388ZM50.2128 8.3095C48.0128 8.10462 45.9128 8.61681 43.8128 8.61681C35.7128 8.61681 40.0128 9.84608 49.7128 8.61681C49.9128 8.61681 50.0128 8.41194 50.2128 8.3095ZM180.013 29.3095C181.613 29.6168 181.713 29.3095 182.413 29.5144C183.613 29.8217 184.713 29.6168 185.813 29.4119C185.913 29.4119 185.913 29.3095 186.013 29.207L180.013 29.3095ZM76.6128 7.7973C75.2128 7.38755 75.0128 7.7973 73.2128 7.59243C70.6128 7.38755 70.5128 7.7973 69.1128 7.38755C68.5128 7.28511 67.9128 7.28511 67.3128 7.48999C67.3128 7.48999 67.2128 7.59242 67.2128 7.69486C67.5128 8.20706 67.2128 8.10462 75.9128 8.00218C76.1128 8.00218 76.3128 7.89974 76.6128 7.7973ZM35.8128 26.7485C35.1128 26.6461 34.4128 26.4412 34.0128 27.3631C33.8128 27.7729 33.5128 27.4656 33.5128 28.2851C33.5128 28.5924 35.1128 28.5924 35.9128 28.49C35.9128 27.1583 35.9128 27.6705 35.8128 26.7485ZM40.7128 13.2266C43.1128 13.4314 45.6128 13.5339 48.0128 13.1241C45.5128 12.9193 43.1128 12.9193 40.7128 13.2266ZM21.8128 13.7388C20.6128 13.1241 19.9128 12.5095 18.8128 12.9193C18.5128 13.0217 18.3128 13.329 18.3128 13.6363C18.3128 14.0461 18.4128 14.0461 21.2128 13.9436C21.4128 13.9436 21.5128 13.8412 21.8128 13.7388ZM21.8128 17.9388C21.4128 17.7339 22.1128 17.7339 18.0128 17.529C16.4128 17.4266 17.0128 18.2461 17.0128 18.2461C18.0128 18.3485 20.5128 18.2461 21.8128 17.9388ZM191.313 20.3973C191.513 21.8314 192.813 21.2168 193.913 21.0119C194.113 21.0119 193.913 20.4997 193.813 20.3973C192.913 20.2949 192.113 20.2949 191.313 20.3973ZM22.8128 13.8412C23.8128 13.7388 25.0128 13.9436 24.3128 12.5095C23.5128 12.5095 24.0128 12.3046 22.8128 13.8412ZM64.4128 7.7973C59.4128 7.69486 59.4128 8.00218 63.7128 8.10462C63.8128 8.10462 64.0128 8.00218 64.4128 7.7973ZM34.4128 25.8266C35.5128 26.0314 35.5128 26.0314 36.1128 25.7241C35.7128 25.2119 35.2128 25.1095 34.6128 25.3144C34.5128 25.3144 34.5128 25.6217 34.4128 25.8266ZM194.813 12.2022C194.013 12.2022 193.313 11.8949 192.613 12.2022C193.313 12.2022 194.013 12.2022 194.813 12.2022ZM107.913 4.1095C108.013 4.21194 107.813 4.21194 109.713 4.21194C109.713 4.1095 110.013 4.1095 107.913 4.1095ZM160.713 5.13389C161.313 5.33877 162.013 5.23633 162.613 5.23633C162.513 5.13389 162.713 5.13389 160.713 5.13389ZM31.0128 15.3778C31.7128 15.5827 32.3128 15.6851 33.0128 15.4802C33.1128 15.4802 33.1128 15.2753 33.2128 15.1729C33.3128 14.968 32.3128 14.7632 31.3128 15.0705C31.2128 15.0705 31.1128 15.1729 31.0128 15.3778ZM38.7128 25.8266C38.6128 25.2119 38.5128 25.1095 38.1128 25.007C37.9128 25.007 37.7128 25.007 37.6128 25.3144C37.4128 25.7241 38.2128 26.2363 38.7128 25.8266ZM227.513 23.2656C229.313 23.368 229.013 23.4705 229.213 23.1631C228.613 22.9583 228.013 22.8558 227.513 23.2656ZM145.513 4.1095C146.013 4.21194 146.513 4.72413 146.913 4.1095C146.413 4.1095 145.913 4.1095 145.513 4.1095ZM169.213 6.36316C169.713 6.26072 170.113 6.56804 170.613 6.15828C170.213 6.15828 169.813 6.05584 169.213 6.36316ZM112.513 4.6217C112.113 3.90462 111.813 4.6217 111.913 4.72413C112.313 4.82657 112.313 4.72413 112.513 4.6217ZM203.513 21.1144C203.313 20.9095 203.013 20.807 202.713 21.1144C203.013 21.1144 203.313 21.1144 203.513 21.1144ZM42.7128 11.1778C42.5128 10.8705 42.2128 10.768 41.8128 11.0753C42.2128 11.1778 42.5128 11.1778 42.7128 11.1778ZM12.9128 17.9388C12.9128 17.8363 12.8128 17.529 12.4128 17.529C11.9128 17.4266 12.0128 17.9388 12.3128 17.9388C12.5128 17.9388 12.7128 17.9388 12.9128 17.9388ZM207.713 20.09C208.013 20.1924 208.313 20.2949 208.613 20.09C208.313 19.8851 208.013 19.8851 207.713 20.09ZM51.9128 8.41194C51.4128 8.3095 51.5128 8.3095 51.3128 8.3095C51.5128 8.51438 51.6128 8.61682 51.9128 8.41194ZM198.913 20.4997C198.713 20.4997 198.813 20.4997 198.913 20.4997C198.713 20.4997 198.813 20.4997 198.913 20.4997ZM29.8128 11.2802C29.8128 11.3827 29.7128 11.3827 29.7128 11.4851C29.6128 12.4071 30.1128 11.8949 29.8128 11.2802ZM189.113 27.8753C188.613 27.7729 188.813 27.7729 188.613 27.8753C188.813 27.8753 189.013 27.8753 189.113 27.8753ZM190.713 27.8753C190.513 27.8753 190.613 27.8753 190.713 27.8753C190.513 27.8753 190.613 27.8753 190.713 27.8753ZM106.713 4.21194C106.513 4.21194 106.513 4.21194 106.713 4.21194V4.21194ZM45.7128 6.87535C45.5128 6.77291 45.6128 6.77291 45.6128 6.87535H45.7128ZM56.7128 7.89974C56.6128 7.89974 56.6128 7.89974 56.7128 7.89974V7.89974ZM170.913 7.89974C171.113 7.89974 171.113 7.89974 170.913 7.89974V7.89974ZM27.5128 13.7388V13.6363C27.3128 13.6363 27.3128 13.7388 27.4128 13.8412C27.4128 13.8412 27.4128 13.7388 27.5128 13.7388ZM13.9128 17.8363C13.7128 17.9388 13.7128 17.9388 13.9128 17.9388V17.8363ZM41.1128 19.3729C40.9128 19.3729 40.9128 19.4753 41.0128 19.5778C41.0128 19.5778 41.1128 19.5778 41.2128 19.5778C41.2128 19.4753 41.2128 19.4753 41.1128 19.3729ZM42.6128 19.3729V19.4753C42.8128 19.5778 43.0128 19.3729 42.7128 19.2705C42.7128 19.3729 42.7128 19.3729 42.6128 19.3729ZM215.113 20.09C215.313 19.9875 215.313 20.09 215.113 20.09V20.09ZM197.413 20.6022C197.413 20.6022 197.413 20.4997 197.313 20.4997C197.113 20.4997 197.113 20.6022 197.213 20.6022C197.313 20.6022 197.413 20.6022 197.413 20.6022ZM200.413 21.1144C200.213 21.0119 200.213 21.0119 200.213 21.1144H200.413ZM215.813 21.0119C216.013 21.1144 216.013 21.1144 216.013 21.0119H215.813ZM222.713 25.929C222.713 25.8266 222.713 25.7241 222.513 25.7241L222.413 25.8266C222.513 25.8266 222.613 25.8266 222.713 25.929ZM225.613 18.2461C225.513 18.451 225.513 18.3485 225.713 18.3485L225.613 18.2461ZM30.6128 11.4851C30.5128 11.69 30.5128 11.5875 30.6128 11.5875V11.4851Z" fill="#ECB942"/>
</svg>
