<svg width="409" height="251" viewBox="0 0 409 251" fill="none" xmlns="http://www.w3.org/2000/svg">
<path d="M383.195 173.021C382.214 172.709 381.236 172.72 380.268 173.698C379.946 174.024 379.953 174.669 379.637 175.64C382.744 176.574 390.069 175.528 391.245 178.74C391.11 181.322 390.454 181.006 387.527 181.683C387.534 182.328 387.204 182.009 389.334 182.953C389.837 184.238 389.511 184.242 385.435 184.285C383.479 184.306 382.966 182.054 380.851 182.399C379.713 182.734 378.718 181.132 377.583 181.789C370.391 179.931 368.93 180.592 368.896 177.367C368.709 175.112 374.268 176.665 375.069 175.366C374.733 174.402 374.716 172.79 373.092 173.452C369.194 174.784 370.311 172.514 367.221 173.193C364.294 173.869 364.467 174.835 362.181 174.537C354.666 173.005 353.695 173.66 352.061 173.355C350.098 172.731 347.983 173.076 346.037 174.064C347.532 176.629 347.032 175.666 347.549 178.241C346.737 178.572 345.926 178.903 345.111 178.912C345.114 179.235 344.955 179.559 345.447 179.876C359.514 184.24 353.108 179.794 358.321 179.416C360.114 179.396 361.557 177.123 361.918 180.345C362.282 183.888 363.579 183.229 366.187 183.201C371.57 183.466 366.693 184.809 379.9 184.99C381.856 184.969 380.386 184.662 386.275 186.534C386.937 187.494 387.117 189.105 387.294 190.393C387.148 192.007 386.666 192.657 386.181 192.985C380.975 194.008 380.312 193.048 383.59 194.625C383.767 195.914 383.607 196.238 383.281 196.241C380.673 196.269 378.062 195.975 375.603 194.711C373.178 196.672 375.453 196.003 363.561 196.775C363.901 198.061 364.386 197.734 364.716 198.053C368.975 199.942 368.815 200.266 368.982 200.587C360.235 205.841 361.14 199.059 353.506 201.72C353.34 201.4 353.336 201.077 353.17 200.756C353.004 200.436 352.844 200.76 352.688 201.407C352.691 201.729 353.506 201.72 353.506 201.72C353.673 202.041 353.683 203.009 353.846 203.007C368.919 209.941 367.75 207.373 368.281 211.237C364.053 212.25 363.064 211.293 360.956 212.283C357.193 211.034 353.964 213.971 350.024 211.433C349.861 211.435 349.691 210.792 349.684 210.147C351.613 207.546 350.804 208.2 352.591 207.535C348.12 201.133 346.264 210.506 341.215 210.882C337.955 210.917 334.875 212.563 331.608 211.953C329.322 211.655 324.768 212.671 324.279 212.676C322.812 212.692 321.331 211.418 320.041 212.722C318.265 214.353 316.791 213.724 315.671 215.671C315.186 215.999 315.186 215.999 315.668 215.349C317.631 215.973 316.993 217.27 316.389 221.791L316.392 222.114C316.385 221.469 316.059 221.472 318.841 222.41C319.524 225.305 319.351 224.34 319.534 226.273C317.263 227.265 315.137 226.642 312.865 227.634C313.042 228.922 313.031 227.955 316.787 228.56C316.95 228.558 317.12 229.201 317.287 229.522C316.964 229.848 316.642 230.174 316.316 230.177C310.118 229.921 310.444 229.918 307.659 228.657C299.8 225.517 303.265 229.35 291.65 225.604C290.832 225.29 290.173 224.652 289.663 222.723C291.928 221.086 294.55 222.348 301.219 220.986C301.219 220.986 301.528 219.37 301.039 219.376C299.409 219.393 299.263 221.007 297.456 219.736C295.157 218.149 294.546 222.025 292.236 219.47C292.07 219.149 291.747 219.475 291.584 219.477C289.639 220.465 288.331 220.157 283.281 220.533C282.813 222.473 283.472 223.111 283.808 224.075C283.822 225.365 283.17 225.372 283.184 226.662C283.84 226.978 284.498 227.616 285.809 228.247C275.221 229.005 274.739 229.655 271.295 227.757C265.718 224.592 263.138 227.199 260.02 225.298C256.243 222.758 235.704 222.978 235.052 222.985C234.407 223.637 233.925 224.287 233.273 224.294C229.191 223.693 228.55 224.667 224.301 223.745C217.271 221.886 206.523 222.968 205.226 223.627C205.399 224.593 205.573 225.559 205.749 226.847C199.399 227.56 200.707 227.868 199.215 225.627C194.963 224.382 196.115 225.337 189.106 225.412C188.623 226.063 187.985 227.359 187.333 227.366C186.033 227.703 185.103 232.228 183.258 227.41C182.44 227.096 181.625 227.105 180.806 226.791C180.657 228.083 180.816 227.759 181.645 229.04C181.004 230.014 180.341 229.054 179.856 229.382C179.204 229.389 178.552 229.396 177.896 229.08C176.571 227.159 176.897 227.156 175.944 229.424C173.499 229.45 174.157 230.088 173.478 227.515C172.996 228.165 172.354 229.139 171.712 230.114C170.731 229.802 169.579 228.847 168.452 230.149C159.66 231.211 160.462 229.912 156.397 230.923C155.585 231.254 154.611 231.587 153.785 230.628C152.963 229.992 152.329 231.612 151.51 231.298C150.688 230.662 150.046 231.636 149.231 231.645C148.898 231.003 148.406 230.686 148.073 230.045C147.095 230.055 146.301 231.999 144.997 232.013C144.012 231.378 142.694 230.102 141.234 230.763L141.23 230.44L141.397 230.761C141.4 231.084 141.241 231.408 141.241 231.408C135.886 233.723 132.095 229.893 133.409 230.847C132.938 232.464 132.452 232.792 130.659 232.811C124.139 232.881 123.976 232.883 123.317 232.245C121.673 230.973 121.867 233.873 119.405 232.287C116.124 230.387 115.992 233.291 114.518 232.662C113.537 232.35 111.563 230.758 110.599 232.059C108.83 234.335 107.183 232.74 105.057 232.118C102.636 234.402 98.2175 232.836 95.4568 233.833C94.9713 234.161 94.3123 233.523 93.9759 232.559C93.9483 229.979 94.753 229.003 95.3877 227.384C95.0583 227.065 94.8849 226.099 94.5589 226.103C91.9404 225.163 91.9611 227.098 91.2953 225.815C90.6329 224.855 90.4526 223.244 90.4354 221.632C90.425 220.664 90.5845 220.34 91.2262 219.366C91.7256 220.328 92.225 221.29 92.7278 222.575C93.7127 223.209 94.5174 222.233 94.9822 219.971C94.5036 220.943 95.7696 217.382 97.7395 218.651C98.232 218.968 98.5649 219.61 99.047 218.96C99.2066 218.635 99.3661 218.311 99.1927 217.345C96.2448 216.087 97.2298 216.721 95.2461 214.163C96.3767 213.183 100.459 213.784 100.622 213.782C100.948 213.779 101.118 214.422 101.451 215.064C101.135 216.035 100.982 217.004 100.83 217.973C101.988 219.573 103.136 220.206 104.083 217.293C103.077 214.724 103.41 215.365 103.237 214.399C103.379 212.463 104.204 213.422 104.683 212.449C104.669 211.159 104.815 209.545 104.798 207.933C104.468 207.614 104.135 206.972 103.972 206.974C100.057 206.693 101.201 207.004 100.081 208.951C99.6023 209.923 98.7873 209.932 98.6104 208.644C97.9342 206.394 96.9493 205.759 95.9713 205.77C97.1019 204.79 97.2684 205.111 97.5771 203.495C97.8859 201.879 96.4016 200.282 95.9125 200.287C91.1785 199.693 91.6744 200.333 90.5437 201.313C86.2848 199.423 84.6341 197.506 80.7392 199.16C79.6189 201.107 80.2709 201.1 77.9646 198.867C77.3126 198.874 76.664 199.204 76.012 199.211C75.0098 196.964 76.9659 196.943 77.7775 196.612C77.9405 196.61 78.0965 195.963 78.2561 195.639C76.4527 194.691 76.4527 194.691 73.3659 195.691C73.8653 196.654 74.5242 197.292 74.3751 198.583C74.2259 199.875 73.4108 199.884 72.9218 199.889C69.0028 199.286 69.6583 199.601 71.5971 197.968C71.7428 196.354 70.7648 196.364 70.9105 194.75L70.9139 195.073C71.2365 194.747 71.7255 194.741 71.7151 193.774C71.5314 191.841 72.18 191.511 72.4991 190.863C72.4784 188.928 72.6552 190.216 72.2843 186.028C70.7965 184.109 54.6693 185.249 50.934 186.579C47.1987 187.909 41.1502 186.361 38.5663 188.646C36.2807 188.348 33.8495 189.664 31.5536 188.399C29.9131 187.449 21.2911 189.154 16.2276 188.241C15.2461 187.929 14.7778 189.869 13.6195 188.269C13.453 187.948 13.4461 187.303 13.4427 186.981C11.7919 185.063 12.2913 186.025 42.926 184.73C48.6104 182.734 58.4011 183.596 59.6948 182.615C61.6371 181.304 64.5953 183.53 67.3319 180.275C66.4961 178.349 67.4811 178.984 63.8811 177.732C63.8708 176.765 63.8604 175.798 63.85 174.83C62.8617 173.873 60.9159 174.862 60.784 177.766C60.6556 180.992 55.7412 178.787 54.4268 177.834C54.5967 178.477 54.2569 177.19 53.9309 177.194C47.3865 175.007 42.6904 177.959 36.1702 178.029C36.1702 178.029 11.7193 178.291 10.5748 177.981C10.7344 177.657 10.7275 177.012 10.8905 177.01C10.8905 177.01 29.1437 176.492 32.7298 176.454C36.8049 176.41 34.346 175.146 37.6061 175.111C47.22 174.686 46.4084 175.017 49.6651 174.66C51.9437 174.313 50.2964 172.718 56.3311 172.976C56.8201 172.97 57.1426 172.644 57.7947 172.637C57.6247 171.994 57.4583 171.673 57.2953 171.675C55.9843 171.044 53.5289 170.103 52.2317 170.762C49.797 171.756 48.9682 170.474 47.834 171.132C43.7831 173.433 39.8295 169.605 37.5681 171.564C34.634 171.596 31.5542 173.241 28.6063 171.983C27.2988 171.674 25.9982 172.011 24.5311 172.026C14.2687 172.781 18.33 171.448 17.1959 172.105C15.4166 173.414 13.4468 172.145 11.5011 173.133C8.5324 169.94 9.2017 171.545 8.33139 166.395C10.9118 163.787 36.0424 166.098 41.2343 163.785C44.6402 162.135 43.1904 163.764 49.2147 163.054C49.5407 163.051 49.7003 162.726 50.6576 160.781C50.0021 160.465 49.3466 160.15 48.5247 159.514C47.1757 155.336 47.0024 154.37 46.3469 154.054C39.3031 150.905 39.1435 151.229 39.761 147.997C40.746 148.632 41.7275 148.944 42.7124 149.578C43.0384 149.575 43.6732 147.955 42.8512 147.319C42.5217 147 41.8594 146.04 40.2259 145.735C38.4293 145.431 38.7243 142.526 35.4607 142.238C8.54748 140.914 10.6976 143.794 9.5186 140.259C10.9615 137.985 18.6504 140.483 28.084 138.447C28.2124 135.221 25.7846 136.859 24.2796 133.328C23.7767 132.043 23.1213 131.728 22.6219 130.765C22.4554 130.445 22.4485 129.8 22.282 129.479C23.5619 127.208 24.897 130.096 26.2045 130.404C28.3029 128.447 27.1653 128.782 30.9213 129.386C31.9097 130.343 31.2854 132.93 31.9477 133.891C32.4471 134.853 31.9754 136.47 32.3152 137.757C34.1255 139.35 34.1255 139.35 36.7164 137.71C35.6692 131.271 36.831 133.193 40.2438 132.189C40.5698 132.186 40.8889 131.537 41.0484 131.213C41.0104 127.666 41.3537 129.275 39.3493 124.781C38.3643 124.146 38.229 126.728 37.2544 127.061C36.6058 127.39 35.9227 124.495 34.7851 124.83C34.303 125.48 33.8278 126.775 33.0128 126.784C26.9816 126.848 22.119 129.481 22.5424 123.348C22.9692 117.539 28.4106 123.286 32.7669 119.046C34.7333 119.993 36.8627 120.937 38.9783 120.592C39.9529 120.259 39.7657 118.004 39.419 116.072C38.2538 113.827 36.9359 112.551 35.3128 113.214C35.1428 112.571 34.9729 111.927 34.7996 110.962C32.3441 110.02 29.899 110.047 27.4608 110.718C27.1348 110.721 26.9787 111.368 26.8261 112.337C26.9857 112.013 27.1487 112.011 24.87 112.358L24.8735 112.681C23.3546 107.859 12.6619 114.101 8.202 108.667C8.51419 107.373 8.51074 107.051 8.83329 106.725C18.4368 105.332 19.7685 107.898 22.8414 105.607C22.831 104.64 22.8241 103.995 22.6508 103.029C23.778 101.727 25.0924 102.68 26.2369 102.991C27.5409 102.977 28.6958 104.254 29.6946 106.179C30.5096 106.17 31.3246 106.161 32.1431 106.475C36.8772 107.069 36.8184 101.587 38.6357 103.825C38.8021 104.146 39.2773 102.851 39.2739 102.528C39.267 101.884 38.9306 100.92 38.6011 100.601C38.4381 100.602 38.6011 100.601 37.7861 100.609C37.4532 99.9679 36.777 97.7176 35.3099 97.7333C31.4013 98.0977 27.4684 96.2048 23.5701 97.5366C21.9435 97.8765 21.5933 95.6227 18.6903 98.5564C15.0696 95.3701 11.1644 96.0569 6.92968 96.4248C6.44066 96.43 6.27765 96.4318 5.11243 94.1867C6.3992 92.5604 8.04653 94.1553 9.17721 93.1756C10.1276 90.5853 8.62255 87.0538 10.7347 86.3862C11.3833 86.0567 10.5717 86.3879 14.966 85.6958C15.7568 83.4298 15.3859 79.2411 14.0784 78.9326C10.6449 78.0019 14.2483 79.5758 2.31778 76.8011C1.4993 76.4873 1.14565 73.911 1.79422 73.5816C3.2509 72.5984 3.74337 72.9157 6.84048 72.8825C6.66366 71.5943 6.01509 71.9238 5.68217 71.2823C5.34925 70.6409 5.34234 69.9959 5.65798 69.025C13.139 67.3323 10.687 66.7136 15.9032 66.6577C18.3482 66.6315 20.7761 64.9929 23.2108 63.9993C28.0768 61.6896 27.1333 64.9248 29.0755 63.614C31.0178 62.3031 31.8743 66.1641 33.9588 62.9166L34.1252 63.2373C33.6328 62.9201 33.4594 61.9544 33.1299 61.6355C32.3114 61.3217 30.0432 62.6361 27.0884 60.7327C24.4595 58.8258 22.6872 60.7798 21.8549 59.1762C22.6561 57.8775 23.6445 58.8345 24.4561 58.5033C25.2677 58.1721 25.9162 57.8426 26.7313 57.8339C27.165 52.6691 24.0817 53.9921 23.4228 53.3542C20.7905 51.1248 19.3373 52.4304 15.4286 52.7948C14.2634 50.5497 15.0853 51.1859 11.3327 50.9036C10.0287 50.9176 10.6496 48.0083 11.1352 47.6806C14.3711 45.3884 13.1016 48.6271 14.5237 44.4192C16.2822 41.1753 32.7976 45.836 36.1758 41.6072C36.9805 40.631 37.4764 41.2707 45.4706 41.8301C48.7342 42.1176 48.7515 43.73 51.5191 43.3778C58.681 42.3336 57.5503 43.3132 58.3343 40.4022C62.5309 36.4871 64.6846 39.6892 70.3552 36.4033C71.0038 36.0739 71.6558 36.0669 72.3044 35.7374C72.2906 34.4475 71.9645 34.451 71.8015 34.4528C65.264 32.9102 52.2512 35.6297 49.7854 33.7211C49.9415 33.0744 49.9346 32.4295 50.0976 32.4277C51.2317 31.7705 52.5254 30.7891 53.6699 31.0994C56.7774 32.0336 56.7705 31.3887 70.13 30.6005C74.3682 30.5551 72.7105 27.9928 76.796 28.9166C83.167 30.1384 104.493 27.3298 109.903 30.1744C110.722 30.4882 111.703 30.8002 112.515 30.469C113.49 30.136 114.474 30.7705 115.782 31.079C118.695 29.1127 119.826 28.1331 121.144 29.409C121.803 30.0469 122.438 28.4276 124.075 29.0551C130.775 30.5958 132.71 28.64 133.692 28.952C135.825 30.2192 137.767 28.9084 138.096 29.2274C139.914 31.4655 144.922 27.2192 150.828 30.7035C166.55 22.1498 133.824 26.048 60.8076 27.7978C58.5255 27.8223 52.1821 29.1803 49.0816 28.891C45.981 28.6017 34.4076 28.7257 30.3497 30.3817C30.0306 31.0301 29.7081 31.3561 29.5485 31.6803C26.4272 29.4562 21.7243 31.7642 18.4503 30.5092C18.6099 30.185 18.766 29.5383 18.766 29.5383C21.5405 29.8311 24.2909 27.8665 27.062 27.8368C28.692 27.8194 28.5048 25.5638 32.2574 25.8461C36.1765 26.4492 36.1592 24.8368 43.6609 25.0789C48.0655 25.3542 47.0909 25.6872 50.3027 21.1376C52.2588 21.1167 51.7628 20.477 52.9384 23.6895C59.4656 24.2646 151.377 21.0223 151.377 21.0223C153.822 20.9961 152.986 19.07 156.898 19.0281C164.885 18.9425 180.371 18.7766 192.759 18.6439C193.9 18.6317 195.031 17.652 196.012 17.964C197.157 18.2743 198.295 17.9396 199.269 17.6066C201.707 16.9355 201.725 18.5479 204.333 18.5199C224.545 18.3034 223.9 18.9553 224.032 16.0513C223.044 15.0943 222.073 15.7498 221.095 15.7602C217.502 15.1537 220.3 17.7038 215.06 15.5024C214.897 15.5041 214.727 14.8609 214.401 14.8644C214.561 14.5402 214.557 14.2177 214.72 14.216C224.324 12.8231 225 15.0734 230.868 15.0105C237.551 14.9389 237.548 14.6164 238.391 17.1875C241.658 17.7975 240.19 17.8132 241.831 18.7632C245.441 20.9821 244.942 20.0199 249.509 20.2935C252.77 20.2586 252.291 21.2312 254.417 21.8535C255.398 22.1655 256.373 21.8325 257.354 22.1445C261.946 24.6754 263.216 21.4367 271.227 23.6084C272.354 22.3063 273.648 21.3249 274.973 23.2458C274.803 22.6026 275.143 23.889 275.15 24.5339C275.531 29.69 283.453 23.4775 286.425 26.9932C288.242 29.2313 290.174 26.9531 293.257 25.63C294.721 25.2918 297.662 25.9053 297.044 29.137C295.594 30.7651 294.762 29.1615 285.641 29.9042C286.147 31.5114 285.481 30.2284 297.391 31.0684C310.279 31.8978 310.428 30.6062 313.865 31.8594C314.683 32.1732 312.072 31.8786 324.623 31.7442C339.949 31.9025 343.92 37.3426 359.052 34.6004C360.637 30.3908 360.807 31.034 363.415 31.0061C365.076 33.8909 365.076 33.8909 366.71 34.1959C368.673 34.8199 374.697 34.1103 374.697 34.1103C377.624 33.4339 376.338 35.0603 387.745 34.6155C396.706 34.197 395.08 34.5369 396.391 35.1679C396.401 36.1353 396.411 37.1028 396.085 37.1063C393.973 37.7739 383.381 38.2099 380.78 38.8828C380.454 38.8863 380.302 39.8554 380.142 40.1797C380.336 43.0802 381.477 43.068 382.795 44.3439C362.426 45.2071 368.613 44.4958 368.159 47.7258C366.546 49.3556 364.413 48.0884 364.965 53.8877C365.457 54.205 365.953 54.8447 366.445 55.1619C366.959 57.414 365.162 57.1107 364.694 59.0508C365.842 59.6835 366.83 60.6405 367.666 62.5666C368.335 64.172 369.639 64.158 369.84 67.7034C370.152 66.4101 370.468 65.4391 370.621 64.47C371.311 68.0102 370.638 66.0823 373.447 69.5999C373.943 70.2396 374.279 71.2035 374.297 72.8159C374.456 72.4917 374.945 72.4864 371.047 73.8182C370.565 74.4684 369.92 75.1203 369.944 77.3777C371.598 79.6175 370.783 79.6262 375.996 79.2479C376.322 79.2444 376.481 78.9202 376.964 78.27C376.783 76.6594 376.606 75.3712 376.433 74.4055C376.433 74.4055 384.098 74.6459 385.083 75.2804C385.409 75.2769 385.745 76.2408 385.589 76.8875C385.28 78.5034 385.277 78.1809 381.538 79.1885C380.074 79.5267 380.234 79.2025 380.275 83.0722C379.478 84.6933 378.475 82.4464 377.511 83.7468C377.681 84.39 377.851 85.0332 378.018 85.3539C379.835 87.592 379.325 85.6624 379.845 88.5594C376.606 90.5292 374.119 86.6857 373.998 90.5572C374.029 93.4594 374.029 93.4594 372.902 94.7615C370.082 90.2766 371.067 90.9111 368.792 91.5805C368.178 95.1347 368.192 96.4246 366.558 96.1195C354.139 93.35 358.356 91.3698 352.675 93.6882C352.363 94.9816 352.533 95.6248 353.029 96.2645L353.025 95.942C351.794 102.728 353.206 97.5526 357.173 102.67C358.498 104.591 359.472 104.258 366.176 106.121C366.832 106.437 368.146 107.39 371.247 107.68C382.498 107.882 382.328 107.238 383.316 108.195C383.34 110.453 374.028 108.617 369.478 109.956C368.843 111.576 369.349 113.183 369.041 114.799C368.728 116.092 368.42 117.708 368.107 119.001C369.259 119.956 368.947 121.25 369.002 126.409C369.342 127.696 369.678 128.66 370.018 129.946C368.592 133.832 369.078 133.504 371.846 133.152C372.661 133.143 373.472 132.812 374.124 132.805C378.536 133.725 382.767 133.035 387.175 133.632C388.646 133.939 388.483 133.941 388.347 136.522C391.475 139.392 398.793 137.701 403.215 139.588C401.589 139.928 400.621 140.906 399.803 140.592C398.492 139.961 397.361 140.941 396.57 143.207C393.962 143.235 392.97 141.956 390.532 142.627C390.206 142.63 389.88 142.634 389.55 142.315C387.078 139.761 382.205 141.426 380.564 140.476C378.431 139.209 376.323 140.199 374.2 139.899C372.73 139.592 371.11 140.577 369.657 141.883C369.334 142.209 369.178 142.856 368.863 143.826C371.984 146.051 372.143 145.726 370.055 148.651C370.78 155.416 370.926 153.802 382.017 154.328C382.506 154.323 382.829 153.997 383.168 155.284C383.172 155.606 383.012 155.93 382.849 155.932C374.231 157.959 375.986 154.393 370 158.65C369.347 158.657 368.515 157.053 367.71 158.029C367.065 158.681 366.41 158.366 365.761 158.695C365.765 159.018 365.775 159.985 365.938 159.983C370.703 163.48 370.357 161.549 372.843 165.392C372.198 166.044 371.549 166.373 370.904 167.025C371.9 168.627 372.722 169.263 373.863 169.251C380.865 168.531 380.563 170.792 382.835 169.8C383.161 169.797 383.494 170.438 383.501 171.083C384.146 170.431 382.88 173.992 383.195 173.021ZM107.208 37.2985C107.375 37.6193 107.541 37.94 107.704 37.9382C108.682 37.9278 108.505 36.6396 108.828 36.3137C108.512 37.2846 107.85 36.3241 107.208 37.2985ZM78.8588 130.163C78.519 128.876 79.1917 130.804 79.5178 130.801C79.8438 130.797 80.0033 130.473 79.8334 129.83C79.6635 129.187 79.0184 129.839 78.8588 130.163ZM336.949 132.235C337.93 132.547 338.905 132.215 339.713 131.561C336.116 130.632 338.409 131.575 336.307 133.21C336.633 133.206 336.473 133.531 336.949 132.235ZM226.165 17.3185L226.158 16.6735C226.997 18.9221 228.943 17.9337 229.755 17.6025C228.447 17.294 227.303 16.9838 226.165 17.3185ZM25.7802 75.5822C25.2878 75.2649 24.9479 73.9785 24.3097 75.2754C24.9687 75.9134 25.4542 75.5857 25.7802 75.5822C25.6621 79.7761 30.2228 79.4047 30.247 81.662C30.2643 83.2744 30.6041 84.5608 31.2561 84.5538C33.5451 85.1743 35.6711 85.7965 37.9428 84.8047C38.1058 84.8029 38.2619 84.1562 38.4215 83.832C36.9233 80.9455 37.0967 81.9111 37.7349 80.6143C38.5361 79.3156 38.5327 78.9932 38.016 76.4186C30.3306 74.2434 28.3676 73.6194 25.7802 75.5822ZM349.467 98.5602L349.47 98.8827C348.801 97.2773 350.258 96.2942 350.077 94.6836C348.926 93.7284 347.934 92.449 346.946 91.492C345.312 91.187 342.884 92.8256 340.256 90.9187C339.763 90.6014 335.851 90.6433 332.917 90.6748C332.754 90.6765 332.594 91.0007 332.435 91.325C332.608 92.2906 332.618 93.2581 332.795 94.5462C329.719 96.5142 329.018 92.0066 322.498 92.0764C318.423 92.1201 314.192 92.8104 310.096 90.9193C307.162 90.9507 304.228 90.9821 301.464 91.6568C304.568 92.2685 307.006 91.5974 307.831 92.5561C309.479 94.151 310.616 93.8163 318.118 94.0584C321.378 94.0235 319.113 95.6603 324.163 95.2837C328.235 94.9176 327.78 98.1475 331.37 98.4316C332.022 98.4246 335.618 99.3536 335.92 97.0928C336.364 92.8954 337.672 93.2039 339.312 94.1539C338.688 96.7407 338.844 96.094 338.202 97.0684C338.043 97.3926 337.717 97.3961 337.727 98.3635C338.379 98.3565 339.034 98.672 339.849 98.6633C344.903 98.6091 346.907 103.103 349.467 98.5602ZM164.468 208.261C163.442 203.757 162.186 208.285 159.887 206.697C158.735 205.742 157.594 205.754 156.62 206.087C150.769 207.763 130.352 204.111 126.141 206.736C124.199 208.047 115.733 209.105 125.673 208.676C138.221 208.219 154.698 209.333 164.468 208.261ZM223.941 129.254C225.914 130.845 232.101 130.134 260.627 129.828C261.116 129.823 261.772 130.138 262.247 128.843C249.522 128.012 238.466 130.71 237.12 126.855C237.273 125.886 237.262 124.918 237.415 123.949C235.931 122.352 236.749 122.666 234.803 123.654C234.318 123.982 233.659 123.344 233.343 124.315C233.354 125.283 233.361 125.928 233.371 126.895C232.889 127.545 232.57 128.194 232.081 128.199C228.664 128.88 226.206 127.617 223.941 129.254ZM162.145 37.0325C162.297 36.0633 161.964 35.4219 161.638 35.4254C160.82 35.1116 159.838 34.7996 159.027 35.1308C157.567 35.7915 152.007 34.2385 148.268 35.2461C143.066 36.5919 141.585 35.3177 138.505 36.9632C144.235 39.1594 145.192 37.2141 147.821 39.121C149.954 40.3882 153.037 39.0651 157.442 39.3405C159.235 39.3212 160.695 38.6606 162.145 37.0325ZM324.154 48.8423C338.02 49.6612 323.173 48.5303 343.393 48.9587C348.286 49.2287 346.316 47.9598 349.243 47.2834C349.569 47.2799 349.569 47.2799 350.045 45.9848C349.556 45.99 349.063 45.6728 348.737 45.6763C329.995 46.1996 330.148 45.2304 324.154 48.8423ZM359.936 117.154C358.799 117.488 357.488 116.857 356.357 117.837C356.038 118.485 355.886 119.455 355.566 120.103C353.784 121.09 354.266 120.44 353.957 122.055C356.447 126.221 356.721 121.381 358.528 122.651C358.542 123.941 357.734 124.595 358.244 126.525C362.166 127.45 361.677 127.455 362.125 123.58C364.244 123.558 362.777 123.573 365.884 124.508C366.21 124.504 366.678 122.564 365.853 121.605C363.411 121.954 364.722 122.585 359.936 117.154ZM57.0443 117.819C59.8431 120.369 62.4373 119.051 65.2119 119.344C65.6905 118.371 66.3357 117.719 66.8143 116.746C68.9368 117.046 68.2779 116.408 69.7795 119.617C70.924 119.928 70.924 119.928 71.5657 118.953C71.5587 118.308 71.5553 117.986 71.3854 117.342C71.1913 114.442 73.501 116.997 74.7774 114.404C72.974 113.455 71.5104 113.794 65.3127 113.537C62.2156 113.571 61.605 117.447 58.1785 117.161C58.012 116.841 57.6929 117.489 57.0443 117.819ZM355.225 73.0202C356.404 76.5552 358.013 74.6029 359.501 76.522C360.677 79.7345 359.855 79.0983 363.288 80.029C364.086 78.4079 364.728 77.4335 365.529 76.1349C365.522 75.49 365.168 72.9137 364.35 72.5999C361.242 71.6657 358.312 72.0196 355.225 73.0202ZM354.331 50.454C353.842 50.4593 353.37 52.0769 353.547 53.365C353.731 55.2981 353.728 54.9756 361.881 55.2108C362.044 55.209 362.204 54.8848 362.526 54.5589C361.823 49.7287 362.807 50.3632 354.331 50.454ZM354.435 151.399C358.191 152.004 361.61 151.644 365.033 151.608C365.522 151.602 365.845 151.277 366.33 150.949C366.473 149.012 366.14 148.371 364.669 148.064C355.048 147.845 356.03 148.157 354.435 151.399ZM349.961 53.4034C349.625 52.4395 349.288 51.4756 348.799 51.4808C346.514 51.1828 344.395 51.2055 342.286 52.1956C341.8 52.5233 341.644 53.17 341.495 54.4617C341.349 56.0758 349.323 54.7003 349.323 54.7003C349.486 54.6986 349.805 54.0501 349.961 53.4034ZM82.6117 39.1746C79.0187 38.5681 75.6129 40.2171 72.1897 40.2538C58.9863 40.3953 66.037 44.1898 81.8071 40.1508C82.1331 40.1473 82.2892 39.5006 82.6117 39.1746ZM80.6905 118.533C80.694 118.855 80.6974 119.178 80.5379 119.502C81.0269 119.497 81.3564 119.816 81.8454 119.81C100.102 119.615 98.8014 119.951 99.1136 118.658C99.1136 118.658 81.3425 118.526 80.6905 118.533ZM371.16 190.888C373.778 191.828 373.931 190.859 375.079 191.491C377.045 192.438 378.832 191.774 380.618 191.11C380.781 191.108 380.777 190.785 380.937 190.461C377.823 188.882 374.708 187.303 371.448 187.338C370.831 190.569 370.983 189.6 371.16 190.888ZM125.628 37.1012C123.332 35.8358 123.02 37.1291 120.079 36.5156C115.834 35.9161 115.685 37.2077 113.389 35.9423C112.407 35.6303 111.429 35.6408 110.458 36.2962C110.458 36.2962 110.299 36.6204 110.302 36.9429C110.808 38.55 110.316 38.2328 124.494 37.7584C124.82 37.7549 125.142 37.4289 125.628 37.1012ZM123.585 211.601C125.874 212.222 139.74 213.041 140.211 211.423C137.107 210.811 128.142 210.908 123.585 211.601ZM355.688 192.344C352.425 192.057 353.732 192.365 351.103 190.458C350.281 189.822 349.321 191.445 345.544 188.905C344.722 188.269 343.577 187.959 342.776 189.257C342.957 190.868 343.449 191.185 343.938 191.18C346.224 191.478 349.158 191.447 350.469 192.078C352.765 193.343 352.765 193.343 355.688 192.344ZM331.529 113.265C337.577 114.813 339.041 114.475 340.327 112.849C339.995 112.207 339.825 111.564 339.499 111.567C337.206 110.624 334.928 110.971 332.489 111.643C332 111.648 331.678 111.974 331.529 113.265ZM268.601 219.723C270.238 220.351 279.078 223.803 280.847 221.527C275.44 219.005 278.055 219.622 268.601 219.723ZM72.0091 129.914C72.0057 129.591 71.9988 128.946 71.9988 128.946C71.3364 127.986 70.5179 127.672 69.8659 127.679C64.6531 128.057 65.281 125.793 62.052 128.73C62.052 128.73 61.8924 129.055 61.8993 129.7C65.3363 130.953 68.586 129.95 72.0091 129.914ZM59.7608 97.4714C58.6163 97.1611 57.4683 96.5284 56.8474 99.4376C56.5352 100.731 56.0358 99.7688 56.0635 102.349C56.0738 103.316 58.6819 103.288 59.9825 102.952C59.9376 98.7595 59.9549 100.372 59.7608 97.4714ZM165.301 118.594C163.501 117.968 154.525 117.097 153.072 118.402C153.571 119.365 161.236 119.605 165.301 118.594ZM67.292 54.8193C71.2111 55.4223 75.2897 55.7011 79.188 54.3693C75.1059 53.768 71.1938 53.8099 67.292 54.8193ZM317.673 113.414C307.556 112.555 307.556 112.555 306.589 113.533C309.207 114.472 311.163 114.451 317.673 113.414ZM333.145 188.071C333.315 188.714 333.322 189.359 333.325 189.681C335.951 191.266 338.528 188.335 339.846 189.611C340.009 189.61 340.165 188.963 340.328 188.961C340.161 188.64 339.988 187.675 339.988 187.675C337.22 188.027 336.884 187.063 333.145 188.071ZM260.714 214.002C262.022 214.311 263.329 214.619 264.63 214.283C266.093 213.945 267.415 215.543 268.878 215.205C270.016 214.87 270.019 215.193 269.686 214.551C266.572 212.972 263.794 212.357 260.714 214.002ZM57.1106 108.788C57.1175 109.433 56.958 109.757 56.9614 110.079L57.1313 110.722C60.0516 109.401 62.6701 110.341 64.4562 109.676C64.6192 109.675 64.765 108.061 64.2725 107.743C61.8136 106.48 65.0944 108.38 57.1106 108.788ZM200.184 209.491C206.218 209.749 203.936 209.773 209.146 209.072C206.042 208.46 203.111 208.814 200.184 209.491ZM36.5012 56.7617C34.5244 54.8478 33.3627 52.9252 31.5834 54.2343C31.0979 54.562 30.7822 55.5329 30.7926 56.5003C30.8064 57.7902 30.9694 57.7885 35.5301 57.4171C35.8561 57.4136 36.0157 57.0894 36.5012 56.7617ZM224.717 216.968C222.758 216.667 219.328 216.058 217.205 215.759C216.553 215.766 214.968 219.975 224.717 216.968ZM353.157 169.151C354.964 170.421 354.149 170.43 359.372 171.019C360.024 171.012 360.174 169.72 360.167 169.075C359.022 168.765 359.341 168.117 354.618 168.49C354.455 168.492 353.969 168.819 353.157 169.151ZM161.582 212.807C153.432 212.894 154.407 212.561 154.417 213.529C158.329 213.487 160.146 215.725 161.582 212.807ZM36.6429 69.9831C35.9839 69.3451 37.125 69.3329 30.4348 68.7596C27.8233 68.465 28.829 71.0344 28.829 71.0344C30.4625 71.3394 34.5342 70.9732 36.6429 69.9831ZM179.947 207.45C179.115 205.846 179.288 206.812 171.956 207.213C173.267 207.844 178.82 208.752 179.947 207.45ZM123.307 140.007C120.858 139.711 118.406 139.092 115.975 140.408C118.427 141.027 120.872 141.001 123.307 140.007ZM313.02 74.7624C313.395 79.2735 315.493 77.316 317.279 76.6518C317.605 76.6483 317.262 75.0395 317.096 74.7187C315.625 74.412 314.321 74.4259 313.02 74.7624ZM336.406 172.878C332.799 170.981 330.565 175.52 331.866 175.184C333.333 175.168 334.8 175.152 336.406 172.878ZM66.76 172.541C65.7647 170.939 64.7901 171.272 63.9681 170.636C62.0293 172.27 62.8409 171.938 60.7253 172.284C62.6848 172.585 64.6616 174.499 66.76 172.541ZM38.1347 57.0667C39.7613 56.7268 41.7243 57.3507 40.5349 52.8483C39.2309 52.8623 40.039 52.2086 38.1347 57.0667ZM105.741 37.3143C97.5875 37.0791 97.5979 38.0465 104.611 38.2939C104.774 38.2922 105.096 37.9662 105.741 37.3143ZM212.045 129.703C212.711 130.986 213.352 130.012 214.004 130.005C214.823 130.319 215.797 129.986 216.612 129.977C217.101 129.972 216.935 129.651 217.254 129.003C213.658 128.074 213.495 128.075 212.045 129.703ZM86.8398 114.274C89.1357 115.54 89.1357 115.54 91.567 114.224C91.4005 113.903 91.2341 113.582 90.9081 113.586C86.6699 113.631 87.3219 113.624 86.8398 114.274ZM57.4476 94.5935C59.2476 95.2193 59.2476 95.2193 60.2153 94.2414C59.546 92.636 58.7275 92.3223 57.7563 92.9777C57.5933 92.9794 57.6037 93.9468 57.4476 94.5935ZM152.454 212.905C150.817 212.277 149.51 211.969 147.893 213.276C149.53 213.904 150.838 214.212 152.454 212.905ZM318.449 48.9034C317.145 48.9173 315.994 47.9622 314.863 48.9418C316.004 48.9296 317.145 48.9173 318.449 48.9034ZM214.958 203.85C214.802 204.496 214.473 204.177 218.874 204.13C218.867 203.485 219.197 203.804 214.958 203.85ZM176.524 24.9455C176.691 25.2663 176.365 25.2698 179.462 25.2366C179.458 24.9141 179.947 24.9089 176.524 24.9455ZM262.626 27.2482C263.611 27.8827 264.748 27.548 265.726 27.5375C265.56 27.2168 265.886 27.2133 262.626 27.2482ZM51.553 61.7606C52.701 62.3933 53.6825 62.7053 54.8166 62.0481C54.9796 62.0464 54.9727 61.4015 55.1322 61.0772C55.2883 60.4305 53.6514 59.8031 52.0317 60.7879C51.8687 60.7897 51.7091 61.1139 51.553 61.7606ZM64.4568 94.5184C64.2731 92.5854 64.1067 92.2646 63.4512 91.9491C63.1252 91.9526 62.7992 91.9561 62.6465 92.9253C62.3343 94.2187 63.6556 95.8171 64.4568 94.5184ZM366.67 167.393C367.831 169.316 370.124 170.259 369.763 167.038C368.778 166.403 367.8 166.414 366.67 167.393ZM315.073 175.041C316.873 175.667 316.873 175.667 317.348 174.372C315.545 173.424 315.212 172.782 314.896 173.753C314.896 173.753 315.066 174.396 315.073 175.041ZM73.2692 186.662C73.2796 187.63 72.9536 187.633 74.431 188.585C75.0864 188.9 75.9015 188.891 76.0472 187.277C75.8773 186.634 76.3663 186.629 73.2692 186.662ZM173.322 213.004C174.463 212.991 175.441 212.981 176.582 212.969C175.601 212.657 174.623 212.667 173.645 212.678C173.482 212.679 173.482 212.679 173.322 213.004ZM278.659 215.1C281.291 217.33 280.965 217.333 281.447 216.683C280.611 214.757 280.611 214.757 278.659 215.1ZM229.868 119.515C230.846 119.504 231.668 120.14 232.636 119.163C231.651 118.528 230.836 118.537 229.868 119.515ZM372.125 83.1595C375.063 83.4505 374.577 83.7782 374.893 82.8073C373.908 82.1728 372.926 81.8609 372.125 83.1595ZM237.814 24.2889C238.633 24.6027 239.465 26.2063 240.097 24.2645C239.282 24.2732 238.466 24.2819 237.814 24.2889ZM181.958 212.589C181.14 212.275 179.662 211.323 179.028 212.942C180.019 214.222 180.827 213.568 181.958 212.589ZM146.097 212.973C146.09 212.328 146.419 212.647 144.137 212.671C144.307 213.314 143.978 212.995 146.097 212.973ZM276.523 30.9694C277.334 30.6382 277.997 31.5987 278.798 30.3C278.146 30.307 277.491 29.9915 276.523 30.9694ZM107.94 212.092C108.592 212.085 109.577 212.719 109.892 211.748C109.237 211.433 108.581 211.117 107.94 212.092ZM191.017 129.929C191.014 129.606 191.177 129.605 189.058 129.627C189.061 129.95 188.898 129.951 191.017 129.929ZM168.536 207.572C167.714 206.936 167.066 207.265 166.58 207.593C167.236 207.909 167.732 208.548 168.536 207.572ZM295.827 113.325C295.83 113.648 295.667 113.65 297.623 113.629C297.783 113.304 297.946 113.303 295.827 113.325ZM100.369 114.129C99.2179 113.174 99.2179 113.174 98.2502 114.152C98.9126 115.112 99.7311 115.426 100.369 114.129ZM184.04 26.4776C183.364 24.2272 182.899 26.4898 183.065 26.8105C183.721 27.126 183.717 26.8035 184.04 26.4776ZM332.931 76.8067C332.598 76.1652 332.106 75.848 331.627 76.8206C332.116 76.8154 332.605 76.8101 332.931 76.8067ZM330.113 133.276C331.098 133.911 331.098 133.911 331.576 132.938C331.084 132.621 330.588 131.981 330.113 133.276ZM70.483 48.3348C70.1467 47.3709 69.6542 47.0537 69.0125 48.0281C69.668 48.3436 70.157 48.3383 70.483 48.3348ZM22.1354 70.1385C22.1319 69.8161 21.9585 68.8504 21.3065 68.8574C20.488 68.5436 20.6683 70.1542 21.1573 70.149C21.4834 70.1455 21.8094 70.142 22.1354 70.1385ZM115.366 113.969C116.84 114.598 116.351 114.603 117.159 113.949C116.496 112.989 116.985 112.984 115.366 113.969ZM107.212 113.734C106.397 113.742 106.071 113.746 106.074 114.068C106.078 114.391 106.081 114.713 106.244 114.711C106.581 115.675 106.581 115.675 107.212 113.734ZM339.743 73.5086C340.235 73.8258 340.728 74.143 341.21 73.4929C340.714 72.8531 340.225 72.8584 339.743 73.5086ZM171.037 212.706C170.218 212.392 170.544 212.388 170.385 212.713C170.548 212.711 170.874 212.707 171.037 212.706ZM269.458 208.426C269.125 207.785 268.799 207.788 268.317 208.438C268.653 209.402 269.142 209.397 269.458 208.426ZM214.036 209.02C213.384 209.027 213.384 209.027 213.387 209.349C214.202 209.341 214.039 209.342 214.036 209.02ZM366.851 153.846C366.688 153.848 366.355 153.206 366.202 154.175C366.857 154.491 366.857 154.491 366.851 153.846ZM56.5126 144.27C57.1715 144.908 57.0085 144.91 57.4872 143.937C57.1612 143.941 57.3242 143.939 56.5126 144.27ZM128.364 140.275C129.022 140.913 128.859 140.915 129.179 140.267C129.012 139.946 129.172 139.622 128.364 140.275ZM115.747 119.125C115.414 118.483 115.088 118.487 114.769 119.135C115.258 119.13 115.421 119.128 115.747 119.125ZM76.73 114.06C76.7335 114.383 76.567 114.062 77.382 114.053C77.382 114.053 77.382 114.053 76.73 114.06ZM85.3863 39.4674C84.5678 39.1537 84.7308 39.1519 84.4048 39.1554C84.7377 39.7969 84.9042 40.1176 85.3863 39.4674ZM49.4588 48.8826C49.4622 49.2051 49.2992 49.2068 49.3027 49.5293C49.1708 52.4333 49.9685 50.8122 49.4588 48.8826ZM309.686 98.3414C308.868 98.0277 309.194 98.0242 308.871 98.3501C309.197 98.3466 309.523 98.3431 309.686 98.3414ZM174.572 25.289C174.246 25.2925 174.246 25.2925 174.572 25.289V25.289ZM75.2281 34.7386C74.8986 34.4196 75.0616 34.4178 75.0651 34.7403L75.2281 34.7386ZM93.1933 37.7712C93.0303 37.7729 93.0303 37.7729 93.1933 37.7712V37.7712ZM279.346 35.7769C279.672 35.7734 279.672 35.7734 279.346 35.7769V35.7769ZM45.7926 56.6621L45.7891 56.3397C45.4631 56.3432 45.4665 56.6656 45.633 56.9864C45.633 56.9864 45.6295 56.6639 45.7926 56.6621ZM23.762 69.7986C23.4394 70.1246 23.4394 70.1246 23.7654 70.1211L23.762 69.7986ZM68.1513 74.1607C67.8253 74.1642 67.8288 74.4867 67.9952 74.8074C67.9952 74.8074 68.1582 74.8056 68.3212 74.8039C68.3178 74.4814 68.3178 74.4814 68.1513 74.1607ZM70.5964 74.1345L70.5999 74.457C70.9293 74.7759 71.2484 74.1275 70.756 73.8103C70.7594 74.1327 70.7594 74.1327 70.5964 74.1345ZM351.805 73.3793C352.128 73.0534 352.131 73.3758 351.805 73.3793V73.3793ZM322.971 75.3008C322.971 75.3008 322.967 74.9783 322.804 74.9801C322.478 74.9836 322.482 75.3061 322.645 75.3043C322.808 75.3026 322.971 75.3008 322.971 75.3008ZM327.878 76.8608C327.549 76.5418 327.549 76.5418 327.552 76.8643L327.878 76.8608ZM352.977 76.2694C353.307 76.5884 353.307 76.5884 353.304 76.2659L352.977 76.2694ZM364.391 91.6276C364.387 91.3051 364.384 90.9827 364.058 90.9862L363.898 91.3104C364.061 91.3086 364.224 91.3069 364.391 91.6276ZM103.792 114.093C103.463 113.774 103.626 113.772 103.303 114.098C103.633 114.417 103.47 114.419 103.792 114.093ZM74.0142 119.249C74.3402 119.246 74.3367 118.923 74.0107 118.927C74.0107 118.927 73.8477 118.929 73.6847 118.93C73.8512 119.251 73.8512 119.251 74.0142 119.249ZM191.555 119.28C191.559 119.603 191.559 119.603 191.885 119.599L191.555 119.28ZM237.363 119.112C237.363 119.112 237.36 118.789 237.197 118.791C236.871 118.795 236.874 119.117 237.041 119.438C237.204 119.436 237.367 119.434 237.363 119.112ZM361.41 132.941C361.08 132.622 361.08 132.622 361.084 132.944L361.41 132.941ZM125.752 139.981C125.925 140.946 126.567 139.972 126.078 139.977C125.915 139.979 125.915 139.979 125.752 139.981ZM366.587 144.496C367.083 145.136 367.073 144.168 366.747 144.172L366.587 144.496ZM175.322 156.22C174.996 156.224 174.996 156.224 175.163 156.545C175.163 156.545 175.326 156.543 175.322 156.22ZM53.7547 160.748C53.4321 161.074 53.4287 160.751 53.7581 161.07L53.7547 160.748ZM326.969 159.433C327.139 160.076 326.976 160.078 327.299 159.752C327.292 159.107 327.458 159.428 326.969 159.433ZM338.182 171.246C338.178 170.924 338.178 170.924 337.852 170.927L338.182 171.246ZM342.76 172.487C342.434 172.491 342.437 172.813 342.604 173.134C342.604 173.134 342.767 173.132 342.93 173.13C342.926 172.808 342.76 172.487 342.76 172.487ZM79.1968 176.923C79.2002 177.246 79.2002 177.246 79.3632 177.244L79.1968 176.923ZM359.833 198.75C359.839 199.395 359.673 199.074 360.162 199.069L359.833 198.75ZM104.961 207.931C105.276 206.96 104.784 206.643 104.794 207.61C104.635 207.934 104.798 207.933 104.961 207.931ZM264.731 208.477C264.401 208.158 264.401 208.158 264.408 208.803C264.734 208.799 264.571 208.801 264.731 208.477ZM311.603 216.36C311.925 216.034 311.929 216.356 311.603 216.36V216.36ZM266.644 219.744C266.651 220.389 266.485 220.068 266.974 220.063L266.644 219.744ZM126.39 229.954C126.556 230.275 126.556 230.275 126.553 229.953L126.39 229.954ZM304.087 214.828C303.921 214.507 303.921 214.507 303.924 214.829L304.087 214.828ZM356.197 133.319C356.353 132.673 356.357 132.995 356.19 132.674L356.197 133.319ZM368.859 67.3914C368.703 68.0381 368.699 67.7157 369.025 67.7122L368.859 67.3914ZM50.7697 49.5136C50.6136 50.1603 50.6102 49.8378 50.7732 49.8361L50.7697 49.5136Z" fill="#ECB942"/>
<path d="M32.6555 215.156C33.1238 213.216 33.2868 213.214 44.2081 213.097C45.6752 213.081 49.5908 213.362 49.5908 213.362C53.8566 215.896 59.378 213.902 61.8404 215.488C61.6981 217.425 60.7063 216.145 60.3975 217.761C60.727 218.08 60.8934 218.401 61.2195 218.397C65.1281 218.033 66.2588 217.053 67.0946 218.979C66.4564 220.276 65.6379 219.962 64.8229 219.971C61.8818 219.358 58.7986 220.681 55.8575 220.067C52.4241 219.137 51.1511 222.053 46.2609 222.105C42.5118 222.145 41.2078 222.159 39.4389 224.436C39.1232 225.407 38.9844 227.666 38.0029 227.354C33.914 226.108 29.8665 228.731 29.0411 227.772C28.6943 225.841 29.3291 224.222 29.6344 222.283C30.113 221.311 30.7512 220.014 31.3929 219.039C31.8715 218.067 32.1768 216.128 32.6555 215.156C32.8288 216.121 32.6762 217.091 33.1721 217.73C33.6611 217.725 34.1571 218.365 34.6392 217.715C33.9768 216.754 33.3144 215.794 32.6555 215.156ZM36.9212 217.69C39.5259 217.34 40.1986 219.268 43.2681 216.655C43.4311 216.653 43.4242 216.008 43.4173 215.363C36.4046 215.116 37.3861 215.427 36.9212 217.69Z" fill="#ECB942"/>
<path d="M349.559 228.854C353.131 227.525 352.989 229.462 354.452 229.124C356.401 228.458 359.849 230.678 360.66 230.347C361.631 229.692 362.627 231.294 363.598 230.638C364.569 229.983 366.383 231.898 367.853 232.205C368.831 232.195 369.82 233.152 370.805 233.786C370.971 234.107 371.141 234.75 371.314 235.716C368.425 239.939 364.947 234.816 360.07 236.159C352.593 238.174 329.245 234.876 325.968 233.299C325.961 232.654 325.954 232.009 326.11 231.362C327.893 230.376 333.92 229.989 338.828 231.549C344.065 233.428 345.528 233.089 347.297 230.813C347.127 230.17 347.474 232.101 348.129 232.416C350.904 232.709 349.427 231.758 350.418 233.037C350.418 233.037 350.581 233.035 350.578 232.713C349.916 231.752 350.249 232.394 349.559 228.854Z" fill="#ECB942"/>
<path d="M57.4612 19.7709C58.1029 18.7965 58.9214 19.1103 59.7364 19.1015C66.2635 19.6766 91.3249 15.538 105.992 15.0584C106.644 15.0514 107.296 15.0444 107.958 16.0048C107.799 16.329 107.799 16.329 107.639 16.6533C96.1143 21.2919 95.2544 17.1085 92.3479 19.7197C56.3513 22.6854 58.3074 22.6645 57.4612 19.7709Z" fill="#ECB942"/>
<path d="M141.697 15.3208C141.545 16.29 141.392 17.2591 141.229 17.2609C140.743 17.5886 140.098 18.2405 139.606 17.9233C136.658 16.6648 133.738 17.9862 130.963 17.6934C128.188 17.4006 125.421 17.7527 122.65 17.7824C120.694 17.8034 119.209 16.2067 114.988 17.8645C114.662 17.868 113.192 17.5612 113.185 16.9163C113.133 12.0792 114.94 13.3499 132.548 13.4838C137.768 13.7503 139.224 12.7672 141.697 15.3208Z" fill="#ECB942"/>
<path d="M371.738 229.584C375.005 230.194 378.442 231.447 381.722 233.347C382.048 233.343 382.222 234.309 382.551 234.628C382.711 234.304 383.037 234.3 380.113 235.299C381.122 238.191 382.419 237.532 383.571 238.487C384.722 239.442 385.863 239.43 387.008 239.74C387.188 241.351 386.869 241.999 386.55 242.648C385.617 246.85 388.568 248.431 377.082 241.459C376.097 240.825 375.108 239.868 374.123 239.233C373.763 236.012 374.099 236.976 372.778 235.378C372.767 234.41 372.282 234.738 375.535 234.058C374.529 231.489 373.555 231.822 371.911 230.549C371.748 230.551 371.894 228.937 371.738 229.584Z" fill="#ECB942"/>
<path d="M372.624 23.1671C371.337 24.7935 364.827 25.8307 364.827 25.8307C364.348 26.8034 364.029 27.4518 363.71 28.1003C363.058 28.1073 362.715 26.4984 361.893 25.8622C356.021 25.6026 354.891 26.5822 351.27 23.3959C351.253 21.7835 351.412 21.4593 351.901 21.4541C352.553 21.4471 367.876 21.2829 367.876 21.2829C371.625 21.2428 372.294 22.8481 372.624 23.1671Z" fill="#ECB942"/>
<path d="M388.777 146.193C387.15 146.533 385.524 146.873 383.734 147.215C383.932 150.438 387.66 148.463 388.992 151.029C387.056 152.984 379.222 152.101 376.433 150.518C373.975 149.254 374.158 151.187 372.986 148.297C371.648 145.087 377.19 145.027 379.142 144.684C382.399 144.326 385.659 144.291 388.777 146.193ZM377.543 147.604C378.213 149.209 379.021 148.555 379.666 147.903C378.837 146.622 378.182 146.307 377.543 147.604Z" fill="#ECB942"/>
<path d="M379.219 60.5077C378.556 59.5473 377.89 58.2644 377.235 57.9489C376.253 57.6369 375.799 60.8669 374.814 60.2324C374.485 59.9134 374.485 59.9134 374.46 57.6561C373.153 57.3476 372.012 57.3598 371.055 59.3052C369.244 57.712 368.429 57.7207 369.057 55.4564C375.078 54.4244 382.583 54.989 384.217 55.294C384.386 55.9372 384.553 56.2579 384.56 56.9029C384.74 58.5135 382.451 57.893 383.96 61.747C383.627 61.1055 384.293 62.3884 382.68 64.0183C381.372 63.7098 379.898 63.0805 378.591 62.772C379.066 61.4769 379.527 58.8919 379.219 60.5077Z" fill="#ECB942"/>
<path d="M181.502 17.797C180.184 16.5211 180.184 16.5211 179.837 14.5897C181.464 14.2498 204.281 13.6828 207.714 14.6136C203.178 17.2423 205.613 16.2486 202.023 15.9646C191.584 15.4314 188.99 16.7492 184.581 16.1514C183.444 16.4861 182.469 16.8191 181.502 17.797Z" fill="#ECB942"/>
<path d="M33.9221 196.436C33.3986 193.217 31.5951 192.269 47.098 193.715C47.4343 194.679 47.1152 195.328 46.7892 195.331C44.3545 196.325 35.8886 197.383 33.9221 196.436Z" fill="#ECB942"/>
<path d="M333.844 222.894C337.243 220.6 337.767 223.82 338.571 222.844C340.507 220.888 343.947 222.463 348.036 223.71C348.199 223.708 348.206 224.353 348.376 224.996C347.897 225.969 337.132 225.439 334.181 223.858C334.018 223.86 334.011 223.215 333.844 222.894Z" fill="#ECB942"/>
<path d="M32.7528 209.027C33.5644 208.696 34.213 208.366 35.0245 208.035C35.0245 208.035 36.2699 202.539 37.1367 207.367C38.2847 208 39.4222 207.665 40.3968 207.332C42.9945 206.337 48.3703 205.957 49.8511 207.231C44.3331 209.548 38.4788 210.901 32.7528 209.027Z" fill="#ECB942"/>
<path d="M216.389 2.58771C221.307 5.11511 226.197 5.06272 201.257 5.32991C201.895 4.03303 202.391 4.67274 202.88 4.6675C214.613 4.21929 211.852 5.2164 216.389 2.58771Z" fill="#ECB942"/>
<path d="M391.327 216.796C391.198 220.022 390.539 219.384 385.791 217.5C381.21 215.937 380.877 215.295 380.374 214.011C380.842 212.07 380.86 213.683 387.879 214.575C389.02 214.563 390.168 215.196 391.327 216.796Z" fill="#ECB942"/>
<path d="M143.348 17.2382C144.153 16.262 144.975 16.8983 145.949 16.5653C146.594 15.9134 147.562 14.9355 148.204 13.9611C155.712 14.8482 155.709 14.5257 155.563 16.1398C155.566 16.4623 154.921 17.1142 154.758 17.116C150.35 16.5182 150.381 19.4204 147.274 18.4862C146.126 17.8535 144.822 17.8674 143.348 17.2382Z" fill="#ECB942"/>
<path d="M332.388 223.877C331.437 226.468 330.754 223.572 328.479 224.242C327.667 224.573 326.696 225.228 325.878 224.915C324.241 224.287 322.614 224.627 320.974 223.677C318.675 222.089 326.006 221.688 332.211 222.589C332.377 222.91 332.381 223.232 332.388 223.877Z" fill="#ECB942"/>
<path d="M400.651 158.966C405.035 157.307 405.691 157.622 407.501 159.215C407.508 159.86 407.518 160.828 407.362 161.475C407.061 163.735 405.583 162.784 405.417 162.463C404.248 159.895 402.781 159.911 400.651 158.966Z" fill="#ECB942"/>
<path d="M189.521 5.45566C190.287 0.932299 191.137 4.1483 198.805 4.71117C195.392 5.71527 191.647 6.07791 189.521 5.45566Z" fill="#ECB942"/>
<path d="M285.416 24.1015C284.458 26.0468 283.446 22.8325 282.156 24.1364C281.51 24.7883 280.685 23.8296 279.877 24.4833C279.877 24.4833 279.374 23.1986 279.86 22.8709C281.157 22.212 285.381 20.8767 285.416 24.1015Z" fill="#ECB942"/>
<path d="M70.0149 217.658C70.9652 215.068 74.5859 218.254 77.6519 215.319C77.9745 214.993 78.1617 217.248 77.1906 217.904C75.8934 218.563 74.5756 217.287 71.4923 218.61C71.1663 218.613 70.5142 218.62 70.0149 217.658Z" fill="#ECB942"/>
<path d="M292.255 23.3832C293.212 21.4378 295.661 21.7341 296.975 22.6876C297.138 22.6858 297.475 23.6497 297.645 24.2929C296.84 25.2691 296.018 24.6329 295.369 24.9623C294.721 25.2918 294.055 24.0089 293.562 23.6917C293.067 23.0519 292.578 23.0572 292.255 23.3832Z" fill="#ECB942"/>
<path d="M33.5531 146.774C32.5923 148.397 29.9704 147.135 28.4861 145.538C28.3231 145.54 27.9833 144.253 28.4688 143.926C29.603 143.268 30.9277 145.189 32.0584 144.21C32.5543 144.849 33.3694 144.841 33.5531 146.774Z" fill="#ECB942"/>
<path d="M233.043 4.98937C235.582 -1.48804 238.412 3.96432 237.441 4.61975C236.473 5.59765 237.285 5.26644 233.043 4.98937Z" fill="#ECB942"/>
<path d="M26.1035 227.481C25.1358 228.459 24.3104 227.5 23.3186 226.221C25.0978 224.912 25.4238 224.908 26.1035 227.481Z" fill="#ECB942"/>
<path d="M384.351 235.254C386.793 234.905 386.956 234.903 387.958 237.15C386.661 237.809 386.661 237.809 384.351 235.254Z" fill="#ECB942"/>
<path d="M91.4383 208.721C89.6729 211.32 89.8393 211.64 89.0001 209.392C88.9898 208.424 89.1424 207.455 89.1286 206.165C89.1182 205.198 89.6038 204.87 89.7702 205.191C90.4361 206.474 90.9355 207.436 91.4383 208.721Z" fill="#ECB942"/>
<path d="M383.834 171.724C384.964 170.745 384.468 170.105 386.795 174.273C385.661 174.93 384.683 174.94 383.698 174.306C383.535 174.308 383.365 173.665 383.199 173.344C383.199 173.344 382.88 173.992 383.834 171.724Z" fill="#ECB942"/>
<path d="M21.1995 226.244C21.0573 228.18 21.0573 228.18 20.5717 228.508C19.7567 228.517 19.0943 227.556 18.751 225.947C19.5626 225.616 20.3707 224.963 21.1995 226.244Z" fill="#ECB942"/>
<path d="M39.6792 201.212C35.6075 201.579 36.0999 201.896 35.9231 200.608C35.7532 199.964 36.7347 200.276 39.6722 200.567C39.6722 200.567 39.6757 200.89 39.6792 201.212Z" fill="#ECB942"/>
<path d="M275.299 23.2423C276.749 21.6142 276.912 21.6124 277.914 23.8593C276.471 26.1323 274.963 22.2783 275.299 23.2423Z" fill="#ECB942"/>
<path d="M334.304 22.2876C335.268 20.9873 336.908 21.9372 336.263 22.5891C335.941 22.9151 335.625 23.886 335.136 23.8913C334.81 23.8948 334.317 23.5775 334.304 22.2876Z" fill="#ECB942"/>
<path d="M30.7453 112.94C31.3835 111.643 32.2054 112.279 32.8643 112.917C33.0688 116.785 32.0769 115.506 30.7453 112.94Z" fill="#ECB942"/>
<path d="M344.225 217.945C340.802 217.982 341.454 217.975 341.124 217.656C341.443 217.008 340.791 217.015 344.221 217.623C344.384 217.621 344.384 217.621 344.225 217.945Z" fill="#ECB942"/>
<path d="M371.734 229.261C370.61 230.886 371.262 230.879 367.815 228.658C369.445 228.64 370.576 227.661 371.734 229.261Z" fill="#ECB942"/>
<path d="M69.4401 194.443C68.1533 196.07 67.8377 197.041 67.1511 193.823C68.9165 191.224 69.2875 195.413 69.4401 194.443Z" fill="#ECB942"/>
<path d="M88.5595 213.912C89.0347 212.617 89.6867 212.61 90.1792 212.927C90.3422 212.925 90.3491 213.57 90.5156 213.891C90.6855 214.534 89.3814 214.548 89.0554 214.551C88.8924 214.553 88.7225 213.91 88.5595 213.912Z" fill="#ECB942"/>
<path d="M46.848 33.4301C46.0329 33.4388 44.8988 34.096 45.2075 32.4801C45.5197 31.1867 46.5012 31.4987 46.848 33.4301Z" fill="#ECB942"/>
<path d="M53.4621 194.292C53.1534 195.908 51.8528 196.244 51.8424 195.277C51.8389 194.954 51.8355 194.632 51.9985 194.63C52.4771 193.658 52.4771 193.658 53.4621 194.292Z" fill="#ECB942"/>
<path d="M386.917 170.401C387.222 168.463 388.041 168.777 388.048 169.422C388.051 169.744 388.058 170.389 387.898 170.713C387.739 171.038 387.253 171.365 386.917 170.401Z" fill="#ECB942"/>
<path d="M372.848 211.511C372.196 211.518 371.544 211.525 370.892 211.532C370.715 210.244 371.204 210.239 371.367 210.237C373.164 210.54 372.529 212.159 372.848 211.511Z" fill="#ECB942"/>
<path d="M335.226 17.1176C334.581 17.7695 334.092 17.7747 333.433 17.1368C334.078 16.4849 334.73 16.4779 335.226 17.1176Z" fill="#ECB942"/>
<path d="M91.2015 232.267C89.731 231.96 89.8974 232.28 89.8905 231.636C91.3576 231.62 91.0316 231.623 91.2015 232.267Z" fill="#ECB942"/>
<path d="M226.523 5.05923C225.215 4.75073 225.378 4.74898 225.378 4.74898C226.683 4.73501 226.52 4.73676 226.523 5.05923Z" fill="#ECB942"/>
<path d="M350.336 225.298C350.828 225.615 350.675 226.584 350.346 226.265C350.02 226.269 349.853 225.948 350.01 225.301C350.173 225.299 350.336 225.298 350.336 225.298Z" fill="#ECB942"/>
<path d="M190.607 228.621C190.593 227.332 190.43 227.333 191.083 227.326L191.089 227.971C190.93 228.295 190.77 228.62 190.607 228.621Z" fill="#ECB942"/>
<path d="M388.288 222.311C388.285 221.989 388.281 221.666 388.444 221.664C388.767 221.338 388.93 221.337 389.259 221.656C389.592 222.297 388.957 223.916 388.288 222.311Z" fill="#ECB942"/>
<path d="M391.134 183.579C391.456 183.253 391.293 183.255 391.952 183.893C391.637 184.864 391.467 184.221 391.134 183.579Z" fill="#ECB942"/>
<path d="M376.769 75.3695C376.925 74.7228 375.632 75.7042 374.793 73.4556C374.314 74.4282 376.093 73.1191 376.769 75.3695Z" fill="#ECB942"/>
<path d="M319.976 24.0537C319.65 24.0572 319.474 22.769 319.966 23.0863C320.129 23.0845 320.295 23.4052 320.462 23.726C320.462 23.726 320.139 24.0519 319.976 24.0537Z" fill="#ECB942"/>
<path d="M31.4149 23.2751C30.9328 23.9252 31.2622 24.2442 30.5998 23.2838C31.2484 22.9543 31.0854 22.9561 31.4149 23.2751Z" fill="#ECB942"/>
<path d="M337.352 17.7398C338.503 18.695 336.718 19.3592 337.03 18.0658C337.193 18.064 337.356 18.0623 337.352 17.7398Z" fill="#ECB942"/>
<path d="M170.057 14.6945C170.386 15.0135 170.716 15.3325 170.556 15.6567C170.084 17.2743 169.089 15.6724 169.408 15.024C169.571 15.0222 169.894 14.6962 170.057 14.6945Z" fill="#ECB942"/>
<path d="M324.813 232.021C324.823 232.989 324.501 233.315 324.157 231.706C324.157 231.706 324.317 231.382 324.313 231.059C324.48 231.38 324.646 231.701 324.813 232.021Z" fill="#ECB942"/>
<path d="M172.349 15.6374L172.183 15.3167C172.346 15.315 172.342 14.9925 172.505 14.9907C172.672 15.3115 172.675 15.6339 172.349 15.6374Z" fill="#ECB942"/>
<path d="M8.49955 45.1288C8.66255 45.127 8.6591 44.8045 8.8221 44.8028C9.31457 45.12 8.99893 46.0909 8.66601 45.4495C8.503 45.4512 8.503 45.4512 8.49955 45.1288Z" fill="#ECB942"/>
<path d="M381.113 130.795C381.439 130.791 381.435 130.469 381.442 131.114L381.113 130.795Z" fill="#ECB942"/>
<path d="M383.398 131.093C383.235 131.094 383.239 131.417 383.072 131.096C382.906 130.775 382.906 130.776 383.232 130.772C383.395 130.77 383.395 130.77 383.398 131.093Z" fill="#ECB942"/>
<path d="M391.596 150.678C391.6 151.001 391.6 151.001 391.274 151.004L391.596 150.678Z" fill="#ECB942"/>
<path d="M54.4338 178.479C53.4731 180.102 53.7956 179.776 53.2963 178.813C53.6188 178.487 53.2928 178.491 54.4338 178.479Z" fill="#ECB942"/>
<path d="M49.8725 194.008C49.8725 194.008 49.876 194.33 50.039 194.329C49.876 194.33 49.8794 194.653 49.7164 194.655C49.5499 194.334 49.7095 194.01 49.8725 194.008Z" fill="#ECB942"/>
<path d="M92.5451 205.484C92.2186 205.487 92.3818 205.485 92.3784 205.163L92.5451 205.484Z" fill="#ECB942"/>
<path d="M79.7582 214.007C79.4274 213.687 79.4274 213.687 79.7582 214.007V214.007Z" fill="#ECB942"/>
<path d="M375.467 212.451C375.137 212.131 375.3 212.129 375.467 212.451V212.451Z" fill="#ECB942"/>
<path d="M323.336 215.912L323.339 216.234C323.017 216.56 323.013 216.238 322.847 215.917C323.17 215.591 323.007 215.593 323.336 215.912Z" fill="#ECB942"/>
<path d="M299.048 231.33C298.718 231.011 298.718 231.011 299.044 231.007L299.048 231.33Z" fill="#ECB942"/>
<path d="M307.541 232.851C307.697 232.205 307.534 232.206 307.864 232.525C307.871 233.17 308.034 233.169 307.541 232.851Z" fill="#ECB942"/>
<path d="M382.388 234.63C382.551 234.628 382.555 234.95 382.718 234.949C382.229 234.954 382.548 234.305 382.388 234.63Z" fill="#ECB942"/>
<path d="M347.453 230.166C347.61 229.519 347.61 229.519 347.453 230.166V230.166Z" fill="#ECB942"/>
<path d="M90.3416 228.083C90.5115 228.726 90.5115 228.726 90.1855 228.73L90.3416 228.083Z" fill="#ECB942"/>
<path d="M93.8349 219.339C93.6678 219.017 93.6678 219.017 93.8349 219.339V219.339Z" fill="#ECB942"/>
<path d="M372.685 211.513C373.016 211.833 373.016 211.833 372.685 211.513V211.513Z" fill="#ECB942"/>
<path d="M349.192 209.829C348.866 209.833 348.703 209.835 348.859 209.188L349.022 209.186C349.192 209.829 349.199 210.474 349.192 209.829Z" fill="#ECB942"/>
<path d="M27.5205 207.47C27.5274 208.115 27.6881 207.791 27.3598 207.795L27.5205 207.47Z" fill="#ECB942"/>
<path d="M26.8262 112.337C26.9934 112.658 26.9968 112.98 26.8262 112.337V112.337Z" fill="#ECB942"/>
<path d="M24.8672 112.036C24.7104 112.682 24.7104 112.682 24.8672 112.036V112.036Z" fill="#ECB942"/>
<path d="M353.365 97.2284C353.362 96.9059 353.521 96.5817 353.521 96.5817C353.684 96.5799 353.688 96.9024 353.365 97.2284Z" fill="#ECB942"/>
<path d="M383.963 62.0704C384.123 61.7449 384.123 61.7449 383.963 62.0704V62.0704Z" fill="#ECB942"/>
<path d="M292.088 23.0624C291.933 23.7091 292.251 23.0607 292.088 23.0624V23.0624Z" fill="#ECB942"/>
<path d="M288.35 24.07C288.343 23.425 288.18 23.4268 288.51 23.7458L288.35 24.07Z" fill="#ECB942"/>
<path d="M235.168 127.198C235.327 126.874 235.32 126.229 235.48 125.905C235.958 124.932 236.312 127.508 235.66 127.515C235.5 127.84 235.334 127.519 235.168 127.198Z" fill="#ECB942"/>
</svg>
