<svg width="141" height="40" viewBox="0 0 141 40" fill="none" xmlns="http://www.w3.org/2000/svg">
<path d="M105.679 23.5623C108.177 23.3402 108.061 24.1174 108.874 23.7843C108.991 23.7843 109.107 24.0064 109.107 24.2284C109.223 23.8953 108.816 25.0055 108.874 24.7835C108.526 24.6725 108.177 24.6725 107.829 25.0055C107.713 25.1166 107.713 25.3386 107.596 25.6717C108.7 26.0047 111.314 25.6717 111.721 26.7819C111.663 27.67 111.43 27.559 110.385 27.781C110.385 28.0031 110.269 27.8921 111.024 28.2251C111.198 28.6692 111.082 28.6692 109.63 28.6692C108.932 28.6692 108.758 27.8921 108.003 28.0031C107.596 28.1141 107.248 27.559 106.841 27.781L105.679 23.5623ZM108.7 18.5664C108.874 18.5664 108.991 18.4554 109.107 18.8994C109.107 19.0105 109.049 19.1215 108.991 19.1215L108.7 18.5664ZM105.97 11.2391C107.538 11.5721 109.049 11.3501 110.617 11.5721C111.14 11.6831 111.082 11.6831 111.024 12.5713C112.128 13.5705 114.742 13.0154 116.31 13.6815C115.729 13.7925 115.381 14.1256 115.09 14.0146C114.626 13.7925 114.219 14.1256 113.928 14.9027C112.999 14.9027 112.65 14.4586 111.779 14.6807C111.663 14.6807 111.547 14.6807 111.43 14.5697C110.559 13.6815 108.816 14.2366 108.235 13.9035C107.48 13.4595 106.725 13.7925 105.97 13.6815V11.2391ZM13.1365 30.1125C13.1946 30.2235 13.3689 29.7794 13.3689 29.6684C13.3689 29.4463 13.2527 29.1133 13.1365 29.0023C13.0784 29.0023 13.1365 29.0023 12.8461 29.0023C12.7299 28.7802 12.4975 28.0031 11.9747 28.0031C10.5804 28.1141 9.18618 27.448 7.79194 27.8921C7.21101 28.0031 7.09482 27.2259 6.04914 28.2251C4.77108 27.1149 3.37684 27.337 1.86642 27.448C1.69214 27.448 1.63404 27.448 1.22739 26.6708C1.69214 26.1157 2.27307 26.6708 2.67972 26.3378C3.02828 25.4496 2.50544 24.2284 3.26066 24.0064C3.49303 23.8953 3.20256 24.0064 4.77108 23.7843C5.06155 23.0072 4.94536 21.5639 4.48062 21.4529C3.26066 21.1198 4.53871 21.6749 0.297896 20.6758C0.0074296 20.5647 -0.108757 19.6766 0.123616 19.5656C0.646456 19.2325 0.820737 19.3435 1.92451 19.3435C1.86642 18.8994 1.63404 19.0105 1.51786 18.7884C1.40167 18.5664 1.40167 18.3443 1.51786 18.0113C4.19015 17.4562 3.31875 17.2341 5.17774 17.2341C6.04914 17.2341 6.92054 16.679 7.79194 16.346C9.53474 15.5688 9.18618 16.679 9.8833 16.235C10.5804 15.7909 10.8709 17.1231 11.6261 16.0129L11.6842 16.1239C11.5099 16.0129 11.4518 15.6799 11.3356 15.5688C11.0452 15.4578 10.2319 15.9019 9.18618 15.2358C8.25669 14.5697 7.61766 15.2358 7.32719 14.6807C7.61766 14.2366 7.96622 14.5697 8.25669 14.4586C8.54715 14.3476 8.77953 14.2366 9.06999 14.2366C9.24427 12.4603 8.1405 12.9044 7.90813 12.6823C6.97863 11.9052 6.45579 12.3493 5.06155 12.4603C4.6549 11.6831 4.94536 11.9052 3.60922 11.7942C3.14447 11.7942 3.37684 10.795 3.55112 10.684C4.71299 9.90682 4.24824 11.017 4.77108 9.57376C5.41011 8.46356 11.2775 10.1289 12.4975 8.6856C12.788 8.35254 12.9622 8.57458 15.8088 8.79662C16.9707 8.90764 16.9707 9.46274 17.9583 9.35172C20.5144 9.01866 20.1077 9.35172 20.3982 8.35254C21.9086 7.0203 22.6638 8.1305 24.6971 7.0203C24.9295 6.90928 25.1618 6.90928 25.3942 6.79826C25.3942 6.35418 25.278 6.35418 25.2199 6.35418C23.0124 6.02112 18.3649 6.90928 17.4935 6.24316C17.5516 6.02112 17.5516 5.79908 17.6097 5.79908C18.0164 5.57704 18.4811 5.24398 18.8878 5.355C19.9915 5.68806 19.9915 5.46602 24.7552 5.24398C26.2656 5.24398 25.6847 4.35582 27.137 4.68888C29.4027 5.13296 37.0129 4.2448 38.93 5.24398C39.2204 5.355 39.569 5.46602 39.8595 5.355C40.208 5.24398 40.5566 5.46602 41.0213 5.57704C42.067 4.91092 42.4737 4.57786 42.9384 5.02194C43.1708 5.24398 43.4032 4.68888 43.9841 4.91092C46.3659 5.46602 47.063 4.7999 47.4116 4.91092C48.1668 5.355 48.8639 4.91092 48.9801 5.02194C49.6191 5.79908 51.42 4.35582 53.5114 5.57704C59.1465 2.69052 47.4697 3.91174 21.4439 4.2448C20.6306 4.2448 18.3649 4.68888 17.2612 4.57786C16.1574 4.46684 12.0328 4.46684 10.5804 5.02194C10.4642 5.24398 10.348 5.355 10.29 5.46602C9.18618 4.68888 7.50147 5.46602 6.3396 5.02194C6.3977 4.91092 6.45579 4.68888 6.45579 4.68888C7.44338 4.7999 8.43097 4.13378 9.41855 4.13378C9.99949 4.13378 9.94139 3.35664 11.2775 3.46766C12.6718 3.6897 12.6718 3.1346 15.3441 3.24562C16.9126 3.35664 16.564 3.46766 17.7259 1.91338C18.423 1.91338 18.2487 1.69134 18.6554 2.80154C20.9791 3.02358 53.7438 2.24644 53.7438 2.24644C54.6152 2.24644 54.3247 1.58032 55.719 1.58032C58.5655 1.58032 64.0844 1.58032 68.4995 1.58032C68.9061 1.58032 69.3128 1.24726 69.6614 1.35828C70.068 1.4693 70.4747 1.35828 70.8232 1.24726C71.6946 1.02522 71.6946 1.58032 72.6241 1.58032C79.8277 1.58032 79.5953 1.80236 79.6534 0.803182C79.3049 0.470122 78.9563 0.692161 78.6077 0.692161C77.3297 0.470121 78.3173 1.35828 76.4583 0.581141C76.4002 0.581141 76.3421 0.359102 76.2259 0.359102C76.284 0.248082 76.284 0.137062 76.3421 0.137062C79.7696 -0.307018 80.002 0.470122 82.0933 0.470122C84.4752 0.470122 84.4752 0.359101 84.7656 1.24726C85.9275 1.4693 85.4047 1.4693 85.9856 1.80236C87.2636 2.5795 87.0894 2.24644 88.716 2.35746C89.8779 2.35746 89.7036 2.69052 90.4588 2.91256C90.8073 3.02358 91.1559 2.91256 91.5045 3.02358C93.1311 3.91174 93.5958 2.80154 96.4424 3.57868C96.849 3.1346 97.3138 2.80154 97.7785 3.46766C97.7204 3.24562 97.8366 3.6897 97.8366 3.91174C97.9528 5.68806 100.799 3.57868 101.845 4.7999C102.484 5.57704 103.181 4.7999 104.285 4.35582C104.808 4.2448 105.854 4.46684 105.621 5.57704C105.098 6.13214 104.808 5.57704 101.555 5.79908C101.729 6.35418 101.497 5.9101 105.737 6.24316C110.327 6.57622 110.385 6.13214 111.605 6.57622C111.895 6.68724 110.966 6.57622 115.439 6.57622C120.9 6.68724 122.294 8.57458 127.697 7.68642C128.278 6.24316 128.336 6.4652 129.265 6.4652C129.846 7.46438 129.846 7.46438 130.427 7.5754C131.124 7.79744 133.274 7.5754 133.274 7.5754C134.319 7.35336 133.855 7.90846 137.921 7.79744C141.116 7.68642 140.535 7.79744 141 8.01948C141 8.35254 141 8.6856 140.884 8.6856C140.129 8.90764 136.353 9.01866 135.423 9.2407C135.307 9.2407 135.249 9.57376 135.191 9.68478C135.249 10.684 135.655 10.684 136.12 11.128C128.858 11.3501 131.066 11.128 130.892 12.2382C130.311 12.7933 129.556 12.3493 129.73 14.3476C129.904 14.4586 130.078 14.6807 130.253 14.7917C130.427 15.5688 129.788 15.4578 129.614 16.1239C130.02 16.346 130.369 16.679 130.659 17.3452C130.892 17.9003 131.357 17.9003 131.415 19.1215C131.531 18.6774 131.647 18.3443 131.705 18.0113C131.937 19.2325 131.705 18.5664 132.693 19.7876C132.867 20.0096 132.983 20.3427 132.983 20.8978C133.041 20.7868 133.215 20.7868 131.821 21.2309C131.647 21.4529 131.415 21.6749 131.415 22.4521C131.996 23.2292 131.705 23.2292 133.564 23.1182C133.68 23.1182 133.738 23.0072 133.913 22.7851C133.855 22.23 133.796 21.786 133.738 21.4529C133.738 21.4529 136.469 21.5639 136.817 21.786C136.933 21.786 137.05 22.119 136.992 22.3411C136.875 22.8962 136.875 22.7851 135.539 23.1182C135.016 23.2292 135.074 23.1182 135.074 24.4504C134.784 25.0055 134.435 24.2284 134.087 24.6725C134.145 24.8945 134.203 25.1166 134.261 25.2276C134.9 26.0047 134.726 25.3386 134.9 26.3378C133.738 27.0039 132.867 25.6717 132.809 27.0039C132.809 28.0031 132.809 28.0031 132.402 28.4472C131.415 26.8929 131.763 27.1149 130.95 27.337C130.717 28.5582 130.717 29.0023 130.137 28.8912C125.721 27.8921 127.232 27.2259 125.199 28.0031C125.082 28.4472 125.141 28.6692 125.315 28.8912V28.7802L13.1365 30.1125ZM9.0119 33.221C9.06999 33.11 9.12809 33.11 8.31478 33.221V33.332C7.79194 31.6667 3.95778 33.7761 2.38926 31.8888C2.50544 31.4447 2.50544 31.3337 2.62163 31.2227C6.04914 30.7786 6.51389 31.6667 7.61766 30.8896C7.61766 30.5565 7.61766 30.3345 7.55957 30.0014C7.96622 29.5574 8.43097 29.8904 8.83762 30.0014L9.0119 33.221ZM107.654 28.8912C108.352 28.8912 107.829 28.7802 109.92 29.4463C110.152 29.7794 110.211 30.3345 110.269 30.7786C110.211 31.3337 110.036 31.5557 109.862 31.6667C108.003 31.9998 107.771 31.6667 108.932 32.2218C108.991 32.6659 108.932 32.7769 108.816 32.7769C107.887 32.7769 106.957 32.6659 106.086 32.2218C105.214 32.888 106.028 32.6659 101.787 32.888C101.903 33.332 102.077 33.221 102.194 33.332C103.704 33.9982 103.646 34.1092 103.704 34.2202L107.654 28.8912ZM37.9424 7.68642C38.0005 7.79744 38.0586 7.90846 38.1167 7.90846C38.4652 7.90846 38.4071 7.46438 38.5233 7.35336C38.4071 7.68642 38.1748 7.35336 37.9424 7.68642ZM80.4086 1.24726V1.02522C80.6991 1.80236 81.3962 1.4693 81.6867 1.35828C81.2219 1.24726 80.8153 1.13624 80.4086 1.24726ZM8.77953 20.5647C8.60525 20.4537 8.48906 20.0096 8.25669 20.4537C8.48906 20.6758 8.66334 20.5647 8.77953 20.5647C8.72143 22.008 10.348 21.897 10.348 22.6741C10.348 23.2292 10.4642 23.6733 10.6966 23.6733C11.5099 23.8953 12.2651 24.1174 13.0784 23.7843C13.1365 23.7843 13.1946 23.5623 13.2527 23.4513C12.7299 22.4521 12.788 22.7851 13.0203 22.3411C13.3108 21.897 13.3108 21.786 13.1365 20.8978C10.4061 20.1207 9.70902 19.8986 8.77953 20.5647ZM124.037 29.6684V29.7794C123.804 29.2243 124.327 28.8912 124.269 28.3361C123.862 28.0031 123.514 27.559 123.165 27.2259C122.584 27.1149 121.713 27.67 120.784 27.0039C120.609 26.8929 119.215 26.8929 118.169 26.8929C118.111 26.8929 118.053 27.0039 117.995 27.1149C118.053 27.448 118.053 27.781 118.111 28.2251C117.007 28.8912 116.775 27.337 114.451 27.337C112.999 27.337 111.489 27.559 110.036 26.8929C108.991 26.8929 107.945 26.8929 106.957 27.1149C108.061 27.337 108.932 27.1149 109.223 27.448C109.804 28.0031 110.211 27.8921 112.883 28.0031C114.045 28.0031 113.231 28.5582 115.032 28.4472C116.485 28.3361 116.31 29.4463 117.588 29.5574C117.821 29.5574 119.099 29.8904 119.215 29.1133C119.389 27.67 119.854 27.781 120.435 28.1141C120.203 29.0023 120.261 28.7802 120.028 29.1133C119.97 29.2243 119.854 29.2243 119.854 29.5574C120.086 29.5574 120.319 29.6684 120.609 29.6684C122.41 29.6684 123.107 31.2227 124.037 29.6684ZM57.5198 7.79744C57.5779 7.46438 57.4618 7.24234 57.3456 7.24234C57.0551 7.13132 56.7065 7.0203 56.4161 7.13132C55.8932 7.35336 53.9181 6.79826 52.5819 7.13132C50.7229 7.5754 50.2001 7.13132 49.0963 7.68642C51.1296 8.46356 51.4781 7.79744 52.4076 8.46356C53.1628 8.90764 54.2666 8.46356 55.8351 8.57458C56.4742 8.57458 56.997 8.35254 57.5198 7.79744ZM115.207 12.4603C120.144 12.7933 114.858 12.3493 122.062 12.5713C123.804 12.6823 123.107 12.2382 124.153 12.0162C124.269 12.0162 124.269 12.0162 124.443 11.5721C124.269 11.5721 124.095 11.4611 123.979 11.4611C117.298 11.5721 117.356 11.2391 115.207 12.4603ZM126.186 20.8978C126.593 22.119 127.174 21.4529 127.697 22.119C128.103 23.2292 127.813 23.0072 129.033 23.3402C129.323 22.7851 129.556 22.4521 129.846 22.008C129.846 21.786 129.73 20.8978 129.439 20.7868C128.336 20.4537 127.29 20.5647 126.186 20.8978ZM125.954 13.1264C125.78 13.1264 125.605 13.6815 125.663 14.1256C125.721 14.7917 125.721 14.6807 128.626 14.7917C128.684 14.7917 128.742 14.6807 128.858 14.5697C128.626 12.9044 128.975 13.1264 125.954 13.1264ZM124.385 14.1256C124.269 13.7925 124.153 13.4595 123.979 13.4595C123.165 13.3484 122.41 13.3484 121.655 13.6815C121.481 13.7925 121.423 14.0146 121.364 14.4586C121.306 15.0137 124.153 14.5697 124.153 14.5697C124.211 14.5697 124.327 14.3476 124.385 14.1256ZM29.1703 8.24152C27.8922 8.01948 26.6723 8.57458 25.4523 8.57458C20.7468 8.57458 23.2448 9.90682 28.8798 8.57458C28.996 8.57458 29.0541 8.35254 29.1703 8.24152ZM104.575 31.0006C105.505 31.3337 105.563 31.0006 105.97 31.2227C106.667 31.5557 107.306 31.3337 107.945 31.1116C108.003 31.1116 108.003 31.0006 108.061 30.8896L104.575 31.0006ZM44.5069 7.68642C43.6936 7.24234 43.5774 7.68642 42.5318 7.46438C41.0213 7.24234 40.9632 7.68642 40.1499 7.24234C39.8014 7.13132 39.4528 7.13132 39.1043 7.35336C39.1043 7.35336 39.0462 7.46438 39.0462 7.5754C39.2204 8.1305 39.0462 8.01948 44.1003 7.90846C44.2165 7.90846 44.3327 7.79744 44.5069 7.68642ZM20.8048 28.2251C20.3982 28.1141 19.9915 27.8921 19.7592 28.8912C19.643 29.3353 19.4687 29.0023 19.4687 29.8904C19.4687 30.2235 20.3982 30.2235 20.8629 30.1125C20.8629 28.6692 20.8629 29.2243 20.8048 28.2251ZM23.6514 13.5705C25.0457 13.7925 26.498 13.9035 27.8922 13.4595C26.4399 13.2374 25.0457 13.2374 23.6514 13.5705ZM12.6718 14.1256C11.9747 13.4595 11.568 12.7933 10.929 13.2374C10.7547 13.3484 10.6385 13.6815 10.6385 14.0146C10.6385 14.4586 10.6966 14.4586 12.3232 14.3476C12.4394 14.3476 12.4975 14.2366 12.6718 14.1256ZM12.6718 18.6774C12.4394 18.4554 12.8461 18.4554 10.4642 18.2333C9.53474 18.1223 9.8833 19.0105 9.8833 19.0105C10.4642 19.1215 11.9166 19.0105 12.6718 18.6774ZM111.14 21.3419C111.256 22.8962 112.011 22.23 112.65 22.008C112.767 22.008 112.65 21.4529 112.592 21.3419C112.07 21.2309 111.605 21.2309 111.14 21.3419ZM13.2527 14.2366C13.8336 14.1256 14.5308 14.3476 14.1241 12.7933C13.6594 12.7933 13.9498 12.5713 13.2527 14.2366ZM37.4195 7.68642C34.5149 7.5754 34.5149 7.90846 37.0129 8.01948C37.071 8.01948 37.1872 7.90846 37.4195 7.68642ZM19.9915 27.2259C20.6306 27.448 20.6306 27.448 20.9791 27.1149C20.7468 26.5598 20.4563 26.4488 20.1077 26.6708C20.0496 26.6708 20.0496 27.0039 19.9915 27.2259ZM113.173 12.4603C112.709 12.4603 112.302 12.1272 111.895 12.4603C112.302 12.4603 112.709 12.4603 113.173 12.4603ZM62.6902 3.6897C62.7482 3.80072 62.6321 3.80072 63.7358 3.80072C63.7358 3.6897 63.9101 3.6897 62.6902 3.6897ZM93.3634 4.7999C93.712 5.02194 94.1187 4.91092 94.4672 4.91092C94.4091 4.7999 94.5253 4.7999 93.3634 4.7999ZM18.0164 15.9019C18.423 16.1239 18.7716 16.235 19.1782 16.0129C19.2363 16.0129 19.2363 15.7909 19.2944 15.6799C19.3525 15.4578 18.7716 15.2358 18.1906 15.5688C18.1326 15.5688 18.0745 15.6799 18.0164 15.9019ZM22.4896 27.2259C22.4315 26.5598 22.3734 26.4488 22.141 26.3378C22.0248 26.3378 21.9086 26.3378 21.8505 26.6708C21.7343 27.1149 22.1991 27.67 22.4896 27.2259ZM132.17 24.4504C133.215 24.5615 133.041 24.6725 133.157 24.3394C132.809 24.1174 132.46 24.0064 132.17 24.4504ZM84.5333 3.6897C84.8237 3.80072 85.1142 4.35582 85.3466 3.6897C85.0561 3.6897 84.7656 3.6897 84.5333 3.6897ZM98.3014 6.13214C98.5919 6.02112 98.8242 6.35418 99.1147 5.9101C98.8823 5.9101 98.6499 5.79908 98.3014 6.13214ZM65.3624 4.2448C65.1301 3.46766 64.9558 4.2448 65.0139 4.35582C65.2463 4.46684 65.2463 4.35582 65.3624 4.2448ZM118.227 22.119C118.111 21.897 117.937 21.786 117.763 22.119C117.937 22.119 118.111 22.119 118.227 22.119ZM24.8133 11.3501C24.6971 11.017 24.5228 10.906 24.2905 11.2391C24.5228 11.3501 24.6971 11.3501 24.8133 11.3501ZM7.50147 18.6774C7.50147 18.5664 7.44338 18.2333 7.21101 18.2333C6.92054 18.1223 6.97863 18.6774 7.15291 18.6774C7.2691 18.6774 7.38529 18.6774 7.50147 18.6774ZM120.667 21.0088C120.842 21.1198 121.016 21.2309 121.19 21.0088C121.016 20.7868 120.842 20.7868 120.667 21.0088ZM30.1579 8.35254C29.8674 8.24152 29.9255 8.24152 29.8093 8.24152C29.9255 8.46356 29.9836 8.57458 30.1579 8.35254ZM115.555 21.4529C115.439 21.4529 115.497 21.4529 115.555 21.4529C115.439 21.4529 115.497 21.4529 115.555 21.4529ZM17.3192 11.4611C17.3192 11.5721 17.2612 11.5721 17.2612 11.6831C17.2031 12.6823 17.4935 12.1272 17.3192 11.4611ZM109.862 29.4463C109.571 29.3353 109.688 29.3353 109.571 29.4463C109.688 29.4463 109.804 29.4463 109.862 29.4463ZM110.791 29.4463C110.675 29.4463 110.733 29.4463 110.791 29.4463C110.675 29.4463 110.733 29.4463 110.791 29.4463ZM61.993 3.80072C61.8768 3.80072 61.8768 3.80072 61.993 3.80072V3.80072ZM26.5561 6.68724C26.4399 6.57622 26.498 6.57622 26.498 6.68724H26.5561ZM32.9464 7.79744C32.8883 7.79744 32.8883 7.79744 32.9464 7.79744V7.79744ZM99.289 7.79744C99.4052 7.79744 99.4052 7.79744 99.289 7.79744V7.79744ZM15.9831 14.1256V14.0146C15.8669 14.0146 15.8669 14.1256 15.925 14.2366C15.925 14.2366 15.925 14.1256 15.9831 14.1256ZM8.08241 18.5664C7.96622 18.6774 7.96622 18.6774 8.08241 18.6774V18.5664ZM23.8838 20.2317C23.7676 20.2317 23.7676 20.3427 23.8257 20.4537C23.8257 20.4537 23.8838 20.4537 23.9419 20.4537C23.9419 20.3427 23.9419 20.3427 23.8838 20.2317ZM24.7552 20.2317V20.3427C24.8714 20.4537 24.9876 20.2317 24.8133 20.1207C24.8133 20.2317 24.8133 20.2317 24.7552 20.2317ZM124.966 21.0088C125.082 20.8978 125.082 21.0088 124.966 21.0088V21.0088ZM114.684 21.5639C114.684 21.5639 114.684 21.4529 114.626 21.4529C114.509 21.4529 114.509 21.5639 114.568 21.5639C114.626 21.5639 114.684 21.5639 114.684 21.5639ZM116.427 22.119C116.31 22.008 116.31 22.008 116.31 22.119H116.427ZM125.373 22.008C125.489 22.119 125.489 22.119 125.489 22.008H125.373ZM129.381 27.337C129.381 27.2259 129.381 27.1149 129.265 27.1149L129.207 27.2259C129.265 27.2259 129.323 27.2259 129.381 27.337ZM131.066 19.0105C131.008 19.2325 131.008 19.1215 131.124 19.1215L131.066 19.0105ZM17.784 11.6831C17.7259 11.9052 17.7259 11.7942 17.784 11.7942V11.6831Z" fill="#ECB942"/>
<path d="M28.4071 29.9542C28.5813 29.3715 28.6394 29.3715 32.5305 29.3715C33.0532 29.3715 34.4471 29.4686 34.4471 29.4686C35.9571 30.2455 37.9317 29.6628 38.8028 30.1484C38.7448 30.7311 38.3963 30.3426 38.2802 30.8282C38.3963 30.9253 38.4544 31.0224 38.5705 31.0224C39.9644 30.9253 40.3709 30.634 40.6613 31.2167C40.429 31.6051 40.1386 31.508 39.8482 31.508C38.8028 31.3138 37.6994 31.7022 36.654 31.508C35.4344 31.2167 34.9698 32.0907 33.2274 32.0907C31.8917 32.0907 31.4271 32.0907 30.7882 32.7705C30.6721 33.0618 30.614 33.7416 30.2655 33.6445C28.8136 33.2561 27.3617 34.033 27.0713 33.7416C26.9551 33.1589 27.1874 32.6734 27.3036 32.0907C27.4778 31.7993 27.7101 31.4109 27.9424 31.1195C28.1167 30.8282 28.2328 30.2455 28.4071 29.9542C28.4651 30.2455 28.4071 30.5369 28.5813 30.7311C28.7555 30.7311 28.9297 30.9253 29.104 30.7311C28.8717 30.4397 28.6394 30.1484 28.4071 29.9542ZM29.9171 30.7311C30.8463 30.634 31.0786 31.2167 32.1821 30.4397C32.2401 30.4397 32.2401 30.2455 32.2401 30.0513C29.7428 29.9542 30.0913 30.0513 29.9171 30.7311Z" fill="#ECB942"/>
<path d="M90.2589 29.1772C91.5366 28.7888 91.4786 29.3714 92.0012 29.2743C92.6982 29.0801 93.9178 29.7599 94.2082 29.6628C94.5566 29.4686 94.9051 29.9541 95.2535 29.7599C95.602 29.5657 96.2409 30.1484 96.7635 30.2455C97.112 30.2455 97.4605 30.5368 97.8089 30.731C97.867 30.8282 97.9251 31.0224 97.9832 31.3137C96.9378 32.5762 95.7182 31.0224 93.9759 31.4108C91.3043 31.9935 82.9993 30.9253 81.8378 30.4397C81.8378 30.2455 81.8378 30.0512 81.8959 29.857C82.5347 29.5657 84.6836 29.4686 86.4259 29.9541C88.2843 30.5368 88.807 30.4397 89.4459 29.7599C89.3878 29.5657 89.5039 30.1484 89.7362 30.2455C90.7236 30.3426 90.2009 30.0512 90.5493 30.4397C90.5493 30.4397 90.6074 30.4397 90.6074 30.3426C90.3751 30.0512 90.4332 30.2455 90.2589 29.1772Z" fill="#ECB942"/>
<path d="M20.2762 5.38425C20.5085 5.09291 20.7989 5.19002 21.0893 5.19002C23.4124 5.38425 32.3563 4.21888 37.5832 4.12177C37.8156 4.12177 38.0479 4.12177 38.2802 4.41311C38.2221 4.51022 38.2221 4.51022 38.164 4.60734C34.0405 5.96694 33.7501 4.70445 32.7048 5.48136C19.8697 6.25828 20.5666 6.25828 20.2762 5.38425Z" fill="#ECB942"/>
<path d="M50.302 4.31634C50.244 4.60783 50.1859 4.89931 50.1278 4.89931C49.9536 4.99647 49.7213 5.19079 49.547 5.09363C48.5017 4.70499 47.4563 5.09363 46.469 4.99647C45.4817 4.89931 44.4944 4.99647 43.5071 4.99647C42.8102 4.99647 42.2875 4.51066 40.7775 4.99647C40.6613 4.99647 40.1386 4.89931 40.1386 4.70499C40.1386 3.24758 40.7775 3.63622 47.0497 3.73338C48.9082 3.83054 49.4309 3.53906 50.302 4.31634Z" fill="#ECB942"/>
<path d="M67.9575 27.4292C69.119 27.6234 70.3386 28.0119 71.5002 28.5946C71.6163 28.5946 71.6744 28.8859 71.7906 28.983C71.8486 28.8859 71.9648 28.8859 70.9194 29.1772C71.2679 30.0513 71.7325 29.857 72.139 30.1484C72.5456 30.4397 72.9521 30.4397 73.3586 30.5368C73.4167 31.0224 73.3006 31.2166 73.1844 31.4109C72.836 32.6734 73.8813 33.1589 69.816 31.0224C69.4675 30.8282 69.119 30.5368 68.7706 30.3426C68.6544 29.3715 68.7706 29.6628 68.3059 29.1772C68.3059 28.8859 68.1317 28.983 69.2933 28.7888C68.9448 28.0119 68.5963 28.109 68.0156 27.7205C68.0156 27.7205 68.0156 27.235 67.9575 27.4292Z" fill="#ECB942"/>
<path d="M132.539 7.42363C132.074 7.9092 129.751 8.20055 129.751 8.20055C129.577 8.49189 129.461 8.68612 129.345 8.88035C129.113 8.88035 128.996 8.39478 128.706 8.20055C126.615 8.10343 126.209 8.39478 124.931 7.42363C124.931 6.93806 124.989 6.84094 125.163 6.84094C125.396 6.84094 130.855 6.84094 130.855 6.84094C132.191 6.84094 132.423 7.32652 132.539 7.42363Z" fill="#ECB942"/>
<path d="M65.5763 28.3032C64.9955 28.4003 64.4147 28.4974 63.7759 28.5945C63.834 29.5657 65.1697 28.983 65.6343 29.7599C64.9374 30.3426 62.1498 30.0513 61.1625 29.5657C60.2913 29.1772 60.3494 29.7599 59.9429 28.8859C59.4783 27.9147 61.4529 27.9147 62.1498 27.8176C63.3113 27.8176 64.4728 27.7205 65.5763 28.3032ZM61.5109 28.6917C61.7432 29.1772 62.0336 28.983 62.2659 28.7888C62.0336 28.4003 61.8013 28.3032 61.5109 28.6917Z" fill="#ECB942"/>
<path d="M134.746 18.6889C134.514 18.3976 134.281 18.0091 134.049 17.912C133.701 17.8149 133.526 18.786 133.178 18.5918C133.062 18.4947 133.062 18.4947 133.062 17.8149C132.597 17.7178 132.191 17.7178 131.842 18.3004C131.203 17.8149 130.913 17.8149 131.145 17.1351C133.294 16.8437 135.966 17.038 136.546 17.1351C136.604 17.3293 136.663 17.4264 136.663 17.6206C136.721 18.1062 135.908 17.912 136.43 19.0774C136.314 18.8831 136.546 19.2716 135.966 19.7572C135.501 19.66 134.978 19.4658 134.514 19.3687C134.688 18.9802 134.862 18.2033 134.746 18.6889Z" fill="#ECB942"/>
<path d="M64.4729 5.19054C64.0083 4.80189 64.0083 4.80189 63.8921 4.21893C64.4729 4.12177 72.6036 4.0246 73.8232 4.31609C72.1971 5.09338 73.0682 4.80189 71.7905 4.70473C68.0736 4.51041 67.1444 4.89905 65.5763 4.70473C65.1698 4.80189 64.8213 4.89905 64.4729 5.19054Z" fill="#ECB942"/>
<path d="M19.8117 29.0806C19.6375 28.109 18.9986 27.8175 24.5159 28.3033C24.6321 28.5948 24.5159 28.7891 24.3998 28.7891C23.5867 29.0806 20.5086 29.3721 19.8117 29.0806Z" fill="#ECB942"/>
<path d="M53.3221 30.4399C54.5417 29.7598 54.7159 30.7314 55.0063 30.4399C55.7032 29.857 56.9229 30.3428 58.3748 30.7314C58.4329 30.7314 58.4329 30.9257 58.4909 31.1201C58.3167 31.4115 54.4836 31.2172 53.4382 30.7314C53.4382 30.8286 53.3801 30.6343 53.3221 30.4399Z" fill="#ECB942"/>
<path d="M19.405 32.8681C19.6954 32.771 19.9277 32.6738 20.2181 32.5766C20.2181 32.5766 20.6827 30.9249 20.9731 32.3823C21.3797 32.5766 21.7862 32.4795 22.1347 32.3823C23.0639 32.0908 24.9805 31.9937 25.5032 32.3823C23.4705 33.0624 21.4378 33.4511 19.405 32.8681Z" fill="#ECB942"/>
<path d="M76.9594 0.722626C78.7017 1.50028 80.444 1.50028 71.5583 1.50028C71.7906 1.11145 71.9648 1.30587 72.1391 1.30587C76.3206 1.20866 75.3333 1.50028 76.9594 0.722626Z" fill="#ECB942"/>
<path d="M75.3333 30.3425C75.2752 31.3137 75.0429 31.1194 73.3587 30.5368C71.7325 30.0512 71.6163 29.857 71.4421 29.4685C71.6163 28.8858 71.6163 29.3714 74.1137 29.6627C74.5202 29.7598 74.9268 29.9541 75.3333 30.3425Z" fill="#ECB942"/>
<path d="M50.8828 4.89916C51.1732 4.60768 51.4636 4.802 51.8121 4.70484C52.0444 4.51052 52.3928 4.21903 52.6251 3.92755C55.2967 4.21903 55.2967 4.12187 55.2386 4.60768C55.2386 4.70484 55.0063 4.89916 54.9482 4.89916C53.3802 4.70484 53.3802 5.57929 52.2767 5.2878C51.8701 5.09348 51.4055 5.09348 50.8828 4.89916Z" fill="#ECB942"/>
<path d="M52.8575 30.7316C52.509 31.5093 52.2767 30.6344 51.4637 30.8288C51.1733 30.926 50.8248 31.1204 50.5344 31.0232C49.9537 30.8288 49.3729 30.926 48.7921 30.6344C47.979 30.1484 50.5925 30.0512 52.7994 30.3428C52.7994 30.5372 52.7994 30.6344 52.8575 30.7316Z" fill="#ECB942"/>
<path d="M69.7578 32.1879C71.3259 31.7021 71.5582 31.7993 72.1971 32.2851C72.1971 32.4794 72.1971 32.7709 72.139 32.9652C72.0228 33.6453 71.5001 33.3538 71.4421 33.2567C70.9774 32.4794 70.4548 32.4794 69.7578 32.1879Z" fill="#ECB942"/>
<path d="M67.3767 1.49997C67.6671 0.139071 67.9575 1.11115 70.6871 1.30556C69.4675 1.59718 68.1317 1.69439 67.3767 1.49997Z" fill="#ECB942"/>
<path d="M101.468 7.42424C101.119 8.00748 100.771 7.03541 100.306 7.42424C100.074 7.61865 99.7836 7.32703 99.4932 7.52145C99.4932 7.52145 99.3189 7.13262 99.4932 7.03541C99.9578 6.84099 101.468 6.45216 101.468 7.42424Z" fill="#ECB942"/>
<path d="M32.5886 35.5871C32.9371 34.8098 34.2148 35.7814 35.3182 34.907C35.4344 34.8098 35.4924 35.4899 35.144 35.6842C34.6794 35.8786 34.2148 35.4899 33.1113 35.8786C32.9952 35.8786 32.7629 35.8786 32.5886 35.5871Z" fill="#ECB942"/>
<path d="M103.907 7.22963C104.256 6.64666 105.127 6.74383 105.591 7.03531C105.649 7.03531 105.766 7.32679 105.824 7.52111C105.533 7.81259 105.243 7.61827 105.011 7.71543C104.778 7.81259 104.546 7.42395 104.372 7.32679C104.198 7.13247 104.023 7.13247 103.907 7.22963Z" fill="#ECB942"/>
<path d="M15.1655 33.6449C14.817 34.1307 13.8879 33.7421 13.3652 33.2563C13.3071 33.2563 13.191 32.8676 13.3652 32.7705C13.7717 32.5762 14.2363 33.1591 14.6428 32.8676C14.817 33.062 15.1074 33.062 15.1655 33.6449Z" fill="#ECB942"/>
<path d="M82.8833 1.5001C83.8125 -0.44311 84.7998 1.20862 84.4513 1.40294C84.1029 1.69442 84.3933 1.59726 82.8833 1.5001Z" fill="#ECB942"/>
<path d="M115.523 32.5769C115.174 32.8685 114.884 32.5769 114.535 32.188C115.232 31.7992 115.29 31.7992 115.523 32.5769Z" fill="#ECB942"/>
<path d="M40.2547 32.9652C39.6158 33.7425 39.6739 33.8396 39.3835 33.1595C39.3835 32.868 39.4416 32.5765 39.4416 32.1879C39.4416 31.8964 39.6158 31.7993 39.6739 31.8964C39.9062 32.1879 40.0805 32.5765 40.2547 32.9652Z" fill="#ECB942"/>
<path d="M63.6597 35.9753C64.0663 35.6839 63.8921 35.4895 64.7052 36.7526C64.2986 36.9469 63.9501 36.9469 63.6017 36.7526C63.5436 36.7526 63.4855 36.5583 63.4274 36.4611C63.4274 36.4611 63.3113 36.6555 63.6597 35.9753Z" fill="#ECB942"/>
<path d="M113.78 32.1879C113.722 32.7709 113.722 32.7709 113.548 32.868C113.257 32.868 113.025 32.5766 112.909 32.0908C113.199 31.9936 113.49 31.7993 113.78 32.1879Z" fill="#ECB942"/>
<path d="M21.8444 30.5367C20.3924 30.6338 20.5667 30.7308 20.5086 30.3426C20.4505 30.1484 20.799 30.2455 21.8444 30.3426C21.8444 30.3426 21.8444 30.4396 21.8444 30.5367Z" fill="#ECB942"/>
<path d="M97.8671 7.13267C98.3898 6.64664 98.4479 6.64664 98.7964 7.32709C98.2737 8.00754 97.751 6.84105 97.8671 7.13267Z" fill="#ECB942"/>
<path d="M118.891 7.03535C119.239 6.64652 119.82 6.93814 119.588 7.13255C119.472 7.22976 119.356 7.52138 119.181 7.52138C119.065 7.52138 118.891 7.42418 118.891 7.03535Z" fill="#ECB942"/>
<path d="M10.4032 33.3533C10.6355 32.9646 10.9259 33.159 11.1582 33.3533C11.2162 34.5192 10.8678 34.1306 10.4032 33.3533Z" fill="#ECB942"/>
<path d="M57.0971 28.9827C55.8774 28.9827 56.1097 28.9827 55.9936 28.8857C56.1097 28.6917 55.8774 28.6917 57.0971 28.8857V28.9827Z" fill="#ECB942"/>
<path d="M32.4724 28.5945C32.0078 29.0801 31.8916 29.3715 31.6593 28.4003C32.3563 27.6234 32.4143 28.8859 32.4724 28.5945Z" fill="#ECB942"/>
<path d="M39.2093 34.5187C39.3836 34.13 39.6159 34.13 39.7902 34.2272C39.8483 34.2272 39.8483 34.4215 39.9063 34.5187C39.9644 34.713 39.4997 34.713 39.3836 34.713C39.3255 34.713 39.2674 34.5187 39.2093 34.5187Z" fill="#ECB942"/>
<path d="M16.4433 9.46326C16.1528 9.46326 15.7462 9.65758 15.8624 9.17178C15.9785 8.78314 16.3271 8.8803 16.4433 9.46326Z" fill="#ECB942"/>
<path d="M26.7809 28.4975C26.6647 28.9833 26.2001 29.0805 26.2001 28.789C26.2001 28.6918 26.2001 28.5947 26.2581 28.5947C26.4324 28.3032 26.4324 28.3032 26.7809 28.4975Z" fill="#ECB942"/>
<path d="M64.8212 35.6843C64.9374 35.1011 65.2279 35.1983 65.2279 35.3927C65.2279 35.4899 65.2279 35.6843 65.1698 35.7815C65.0536 35.8787 64.9374 35.8787 64.8212 35.6843Z" fill="#ECB942"/>
<path d="M119.239 5.48117C119.007 5.67521 118.833 5.67521 118.601 5.48117C118.833 5.28712 119.065 5.28712 119.239 5.48117Z" fill="#ECB942"/>
<path d="M80.5602 1.5C80.0956 1.40335 80.1536 1.40335 80.1536 1.40335C80.6182 1.40335 80.5602 1.40335 80.5602 1.5Z" fill="#ECB942"/>
<path d="M59.2458 31.2166C59.4201 31.3137 59.362 31.6049 59.2458 31.5079C59.1297 31.5079 59.0716 31.4108 59.1297 31.2166C59.1297 31.3137 59.1878 31.3137 59.2458 31.2166Z" fill="#ECB942"/>
<path d="M133.817 23.1565C133.875 22.9621 133.41 23.2536 133.12 22.5735C132.946 22.865 133.584 22.4763 133.817 23.1565Z" fill="#ECB942"/>
<path d="M113.78 7.52062C113.664 7.52062 113.606 7.13235 113.78 7.22942C113.838 7.22942 113.896 7.32648 113.954 7.42355C113.954 7.42355 113.838 7.52062 113.78 7.52062Z" fill="#ECB942"/>
<path d="M10.984 6.35526C10.8098 6.54921 10.9259 6.64619 10.6936 6.35526C10.9259 6.25829 10.8678 6.25829 10.984 6.35526Z" fill="#ECB942"/>
<path d="M119.994 5.6756C120.401 5.9668 119.762 6.16094 119.878 5.77267C119.936 5.77267 119.994 5.77267 119.994 5.6756Z" fill="#ECB942"/>
<path d="M60.4075 4.21881C60.5236 4.31597 60.6397 4.41313 60.5817 4.51029C60.4075 4.99609 60.059 4.51029 60.1752 4.31597C60.2333 4.31597 60.3494 4.21881 60.4075 4.21881Z" fill="#ECB942"/>
<path d="M50.0698 33.1591C50.0698 33.4506 49.9536 33.5477 49.8375 33.0619C49.8375 33.0619 49.8955 32.9648 49.8955 32.8676C49.9536 33.0619 50.0117 33.1591 50.0698 33.1591Z" fill="#ECB942"/>
<path d="M61.2205 4.51064L61.1625 4.41329C61.2205 4.41329 61.2205 4.31595 61.2786 4.31595C61.3367 4.41329 61.3367 4.51064 61.2205 4.51064Z" fill="#ECB942"/>
<path d="M2.73706 12.8619C2.79514 12.8619 2.79514 12.7649 2.85321 12.7649C3.02744 12.8619 2.91129 13.153 2.79514 12.959C2.73706 12.959 2.73706 12.959 2.73706 12.8619Z" fill="#ECB942"/>
<path d="M135.153 39.8599C135.268 39.8599 135.268 39.7626 135.268 39.9572L135.153 39.8599Z" fill="#ECB942"/>
<path d="M135.966 39.9568C135.907 39.9568 135.908 40.0539 135.849 39.9568C135.791 39.8598 135.791 39.8598 135.907 39.8598C135.966 39.8598 135.966 39.8598 135.966 39.9568Z" fill="#ECB942"/>
<path d="M66.5626 29.6628C66.5626 29.7594 66.5626 29.7594 66.4474 29.7594L66.5626 29.6628Z" fill="#ECB942"/>
<path d="M25.5613 28.4003C25.5613 28.4003 25.5613 28.4977 25.6194 28.4977C25.5613 28.4977 25.5613 28.595 25.5033 28.595C25.3871 28.4977 25.4452 28.4003 25.5613 28.4003Z" fill="#ECB942"/>
<path d="M40.6607 31.9931C40.5454 31.9931 40.6031 31.9931 40.6031 31.8965L40.6607 31.9931Z" fill="#ECB942"/>
<path d="M36.0725 34.5187C35.9574 34.4213 35.9574 34.4213 36.0725 34.5187V34.5187Z" fill="#ECB942"/>
<path d="M49.6631 28.4002V28.4971C49.547 28.594 49.547 28.4971 49.489 28.4002C49.6051 28.3033 49.547 28.3033 49.6631 28.4002Z" fill="#ECB942"/>
<path d="M41.1251 36.1697C41.01 36.0724 41.01 36.0724 41.1251 36.1697V36.1697Z" fill="#ECB942"/>
<path d="M58.8962 26.652C58.7811 26.652 58.7236 26.652 58.7811 26.458H58.8387C58.8962 26.652 58.8387 26.749 58.8962 26.652Z" fill="#ECB942"/>
<path d="M17.4881 32.382C17.4881 32.5767 17.5456 32.4794 17.4305 32.4794L17.4881 32.382Z" fill="#ECB942"/>
<path d="M9.00933 33.1589C9.06641 33.2564 9.06641 33.3539 9.00933 33.1589V33.1589Z" fill="#ECB942"/>
<path d="M8.31174 33.0619C8.25466 33.256 8.25466 33.256 8.31174 33.0619V33.0619Z" fill="#ECB942"/>
<path d="M125.396 29.6633C125.396 29.5659 125.453 29.4686 125.453 29.4686C125.511 29.4686 125.511 29.5659 125.396 29.6633Z" fill="#ECB942"/>
<path d="M136.43 19.1746C136.487 19.0773 136.487 19.0773 136.43 19.1746V19.1746Z" fill="#ECB942"/>
<path d="M103.849 7.13232C103.792 7.32646 103.905 7.13232 103.849 7.13232V7.13232Z" fill="#ECB942"/>
<path d="M102.513 7.42352C102.513 7.22939 102.455 7.22939 102.571 7.32646L102.513 7.42352Z" fill="#ECB942"/>
<path d="M83.1736 38.3062C83.2316 38.2091 83.2316 38.0147 83.2897 37.9176C83.464 37.6261 83.5802 38.4034 83.3478 38.4034C83.2897 38.5005 83.2316 38.4034 83.1736 38.3062Z" fill="#ECB942"/>
<path d="M45.4816 29.5657C46.7593 29.1773 46.7012 29.76 47.2239 29.6628C47.9209 29.4686 49.1405 30.1484 49.4309 30.0513C49.7793 29.8571 50.1278 30.3426 50.4762 30.1484C50.8247 29.9542 51.4635 30.5369 51.9862 30.634C52.3347 30.634 52.6832 30.9253 53.0316 31.1196C53.0897 31.2167 53.1478 31.4109 53.2059 31.7022C52.1605 32.9647 50.9409 31.4109 49.1985 31.7994C46.527 32.382 38.222 31.3138 37.0605 30.8282C37.0605 30.634 37.0605 30.4398 37.1186 30.2455C37.7574 29.9542 39.9063 29.8571 41.6486 30.3426C43.507 30.9253 44.0297 30.8282 44.6686 30.1484C44.6105 29.9542 44.7266 30.5369 44.9589 30.634C45.9462 30.7311 45.4236 30.4398 45.772 30.8282C45.772 30.8282 45.8301 30.8282 45.8301 30.7311C45.5978 30.4398 45.6559 30.634 45.4816 29.5657Z" fill="#ECB942"/>
<path d="M61.3366 32.3825C61.627 30.245 61.9174 31.7996 64.6471 32.0911C63.4274 32.5769 62.0916 32.674 61.3366 32.3825Z" fill="#ECB942"/>
<path d="M71.8486 31.2166C72.0809 30.9253 72.3713 31.0224 72.6616 31.0224C74.9847 31.2166 83.9286 30.0513 89.1556 29.9542C89.3879 29.9542 89.6202 29.9542 89.8525 30.2455C89.7944 30.3426 89.7944 30.3426 89.7364 30.4397C85.6129 31.7993 85.3225 30.5368 84.2771 31.3138C71.3839 32.0907 72.0809 32.0907 71.8486 31.2166Z" fill="#ECB942"/>
</svg>
