<svg width="311" height="132" viewBox="0 0 311 132" fill="none" xmlns="http://www.w3.org/2000/svg">
<path d="M303.689 94.5871C302.899 94.4036 302.111 94.4121 301.33 94.9962C301.069 95.1909 301.073 95.5746 300.817 96.1531C303.317 96.7021 309.219 96.0631 310.158 97.9722C310.043 99.5087 309.516 99.3224 307.157 99.7315C307.161 100.115 306.897 99.9262 308.61 100.484C309.012 101.247 308.749 101.25 305.467 101.285C303.892 101.302 303.484 99.9628 301.779 100.173C300.862 100.375 300.064 99.4237 299.149 99.8173C293.361 98.7278 292.183 99.1243 292.163 97.2054C292.017 95.8636 296.491 96.7752 297.139 96.0006C296.87 95.4278 296.86 94.4683 295.551 94.8661C292.409 95.6675 293.314 94.3144 290.823 94.7249C288.464 95.134 288.602 95.7083 286.762 95.5361C280.713 94.6413 279.929 95.0335 278.614 94.8557C277.035 94.4888 275.33 94.699 273.761 95.2915C274.959 96.814 274.559 96.2425 274.97 97.7734C274.315 97.9723 273.661 98.1713 273.004 98.1783C273.007 98.3702 272.877 98.5635 273.273 98.7511C284.592 101.317 279.443 98.685 283.642 98.4482C285.086 98.4327 286.253 97.0768 286.536 98.9929C286.822 101.101 287.868 100.706 289.968 100.683C294.302 100.829 290.372 101.639 301.008 101.717C302.583 101.7 301.4 101.52 306.138 102.621C306.669 103.191 306.811 104.149 306.95 104.915C306.829 105.876 306.44 106.264 306.048 106.46C301.853 107.081 301.322 106.511 303.958 107.442C304.097 108.208 303.968 108.402 303.705 108.405C301.605 108.427 299.502 108.258 297.525 107.511C295.568 108.684 297.402 108.28 287.823 108.767C288.093 109.531 288.485 109.335 288.75 109.524C292.175 110.639 292.046 110.832 292.18 111.023C285.123 114.169 285.868 110.131 279.714 111.732C279.581 111.542 279.579 111.35 279.446 111.159C279.312 110.969 279.183 111.162 279.056 111.547C279.058 111.739 279.714 111.732 279.714 111.732C279.848 111.923 279.854 112.498 279.985 112.497C292.108 116.589 291.173 115.064 291.591 117.362C288.184 117.974 287.39 117.407 285.69 118.001C282.662 117.266 280.055 119.021 276.888 117.52C276.757 117.521 276.621 117.139 276.617 116.755C278.176 115.203 277.524 115.594 278.964 115.195C275.378 111.395 273.862 116.976 269.795 117.212C267.169 117.24 264.685 118.226 262.056 117.871C260.216 117.698 256.546 118.313 256.152 118.318C254.971 118.33 253.781 117.575 252.739 118.354C251.305 119.329 250.12 118.958 249.213 120.119C248.821 120.315 248.821 120.315 249.211 119.927C250.79 120.294 250.273 121.067 249.777 123.759L249.779 123.951C249.775 123.568 249.512 123.57 251.75 124.122C252.294 125.843 252.157 125.269 252.3 126.419C250.468 127.015 248.758 126.649 246.926 127.244C247.065 128.011 247.059 127.435 250.083 127.786C250.214 127.785 250.349 128.167 250.483 128.358C250.222 128.552 249.962 128.747 249.699 128.75C244.709 128.612 244.971 128.609 242.731 127.865C236.409 126.014 239.191 128.287 229.845 126.084C229.187 125.899 228.658 125.521 228.252 124.374C230.079 123.395 232.188 124.14 237.562 123.315C237.562 123.315 237.814 122.352 237.421 122.357C236.108 122.371 235.987 123.331 234.534 122.579C232.686 121.64 232.186 123.948 230.332 122.432C230.198 122.242 229.938 122.437 229.806 122.438C228.237 123.031 227.185 122.85 223.117 123.085C222.736 124.241 223.265 124.619 223.534 125.192C223.542 125.96 223.017 125.965 223.025 126.733C223.552 126.919 224.082 127.297 225.136 127.67C216.607 128.145 216.217 128.533 213.448 127.411C208.964 125.54 206.88 127.098 204.373 125.973C201.338 124.47 184.797 124.648 184.271 124.653C183.75 125.043 183.361 125.431 182.836 125.436C179.55 125.088 179.031 125.669 175.611 125.13C169.954 124.039 161.296 124.707 160.25 125.102C160.387 125.677 160.525 126.251 160.664 127.017C155.548 127.456 156.601 127.636 155.405 126.306C151.983 125.575 152.908 126.141 147.263 126.201C146.874 126.589 146.357 127.362 145.832 127.368C144.784 127.571 144.025 130.266 142.55 127.403C141.891 127.218 141.235 127.225 140.577 127.04C140.453 127.809 140.583 127.616 141.247 128.377C140.728 128.958 140.197 128.388 139.805 128.584C139.28 128.59 138.755 128.595 138.228 128.409C137.165 127.269 137.428 127.266 136.655 128.618C134.685 128.639 135.215 129.017 134.673 127.487C134.283 127.875 133.764 128.457 133.246 129.038C132.456 128.855 131.531 128.289 130.62 129.066C123.537 129.718 124.185 128.943 120.909 129.554C120.255 129.753 119.47 129.953 118.807 129.385C118.146 129.008 117.632 129.973 116.973 129.788C116.313 129.411 115.794 129.993 115.137 130C114.871 129.619 114.475 129.431 114.208 129.05C113.42 129.059 112.776 130.217 111.726 130.228C110.934 129.853 109.876 129.096 108.699 129.493L108.697 129.301L108.83 129.492C108.832 129.683 108.703 129.877 108.703 129.877C104.385 131.266 101.341 128.996 102.397 129.56C102.014 130.524 101.622 130.72 100.178 130.736C94.9268 130.792 94.7955 130.793 94.2663 130.415C92.9453 129.662 93.095 131.387 91.1156 130.449C88.4777 129.326 88.3649 131.054 87.1793 130.683C86.3896 130.5 84.804 129.557 84.0245 130.333C82.5949 131.692 81.2718 130.746 79.5611 130.381C77.6063 131.745 74.0515 130.824 71.826 131.423C71.4342 131.619 70.905 131.241 70.6362 130.668C70.6198 129.133 71.27 128.551 71.7848 127.585C71.5202 127.396 71.3828 126.822 71.1202 126.825C69.0136 126.272 69.026 127.423 68.4926 126.661C67.9613 126.091 67.8198 125.133 67.8095 124.174C67.8033 123.598 67.9326 123.405 68.4515 122.823C68.8515 123.395 69.2515 123.966 69.6536 124.73C70.4453 125.105 71.0956 124.522 71.475 123.175C71.0873 123.755 72.1149 121.633 73.6985 122.383C74.0944 122.571 74.3611 122.952 74.7508 122.564C74.88 122.371 75.0092 122.177 74.8718 121.603C72.5006 120.861 73.2923 121.236 71.7006 119.718C72.6133 119.132 75.8994 119.481 76.0307 119.48C76.2932 119.477 76.4286 119.859 76.6953 120.24C76.4389 120.819 76.3138 121.396 76.1887 121.973C77.1179 122.922 78.0409 123.296 78.8101 121.561C78.006 120.034 78.2727 120.415 78.1352 119.841C78.2542 118.688 78.9167 119.257 79.3044 118.677C79.2962 117.909 79.4172 116.949 79.4069 115.989C79.1423 115.8 78.8756 115.419 78.7443 115.42C75.5916 115.262 76.5126 115.444 75.606 116.606C75.2183 117.185 74.5619 117.192 74.4224 116.426C73.8829 115.089 73.0912 114.713 72.3035 114.722C73.2163 114.136 73.3496 114.327 73.6019 113.365C73.8542 112.402 72.6624 111.456 72.2685 111.46C68.4574 111.117 68.8553 111.496 67.9425 112.082C64.517 110.967 63.1919 109.83 60.0515 110.823C59.1449 111.984 59.67 111.979 57.8177 110.655C57.2926 110.661 56.7695 110.858 56.2444 110.864C55.4424 109.529 57.0177 109.512 57.672 109.313C57.8033 109.312 57.9305 108.927 58.0597 108.733C56.6095 108.173 56.6095 108.173 54.1214 108.775C54.5214 109.347 55.0506 109.725 54.9275 110.494C54.8045 111.263 54.1481 111.27 53.7542 111.274C50.5995 110.924 51.1266 111.11 52.6917 110.134C52.8127 109.173 52.025 109.182 52.146 108.221L52.1481 108.413C52.4086 108.218 52.8024 108.214 52.7962 107.638C52.6526 106.488 53.1757 106.291 53.4341 105.904C53.4218 104.753 53.5613 105.519 53.272 103.027C52.0782 101.889 39.0878 102.603 36.0767 103.403C33.0655 104.203 28.1979 103.296 26.1119 104.662C24.2719 104.489 22.311 105.278 20.4649 104.53C19.1459 103.969 12.1985 105.003 8.12271 104.47C7.33298 104.287 6.95148 105.443 6.02226 104.493C5.88893 104.303 5.88481 103.919 5.88276 103.727C4.55764 102.59 4.95765 103.161 29.6317 102.321C34.2141 101.12 42.0969 101.612 43.141 101.025C44.7081 100.24 47.0855 101.558 49.2967 99.6154C48.628 98.4711 49.4197 98.8465 46.5234 98.1098C46.5172 97.5342 46.5111 96.9585 46.5049 96.3828C45.7111 95.8156 44.1419 96.4082 44.0291 98.1366C43.9184 100.057 39.9657 98.7558 38.9093 98.1914C39.0447 98.5738 38.7739 97.809 38.5113 97.8119C33.2458 96.5249 29.4573 98.2927 24.2062 98.3489C24.2062 98.3489 4.51447 98.5599 3.59347 98.3779C3.72269 98.1846 3.71858 97.8008 3.84986 97.7994C3.84986 97.7994 18.5509 97.45 21.439 97.419C24.721 97.3839 22.7436 96.6374 25.3692 96.6093C33.1125 96.3344 32.4582 96.5333 35.0817 96.3133C36.9175 96.1017 35.5944 95.1563 40.4538 95.2962C40.8476 95.292 41.1081 95.0973 41.6332 95.0916C41.4978 94.7093 41.3645 94.5188 41.2332 94.5202C40.1789 94.1477 38.2036 93.5931 37.1574 93.9881C35.1944 94.5849 34.5298 93.8244 33.615 94.218C30.3474 95.5964 27.1721 93.3275 25.3465 94.4985C22.9835 94.5238 20.4995 95.51 18.1283 94.7677C17.076 94.5871 16.0279 94.7902 14.8464 94.8029C6.57997 95.2753 9.8537 94.4726 8.93886 94.8662C7.50303 95.6492 5.91947 94.8985 4.3503 95.4911C1.96674 93.5975 2.50213 94.5513 1.81285 91.4881C3.89685 89.9305 24.1301 91.249 28.3166 89.8608C31.0631 88.8718 29.8919 89.8439 34.7451 89.4081C35.0077 89.4053 35.1369 89.212 35.9122 88.0522C35.385 87.866 34.8579 87.6797 34.1974 87.3029C33.1204 84.8196 32.983 84.2454 32.4558 84.0591C26.7903 82.2007 26.6611 82.394 27.1656 80.4695C27.9574 80.8448 28.7471 81.0283 29.5389 81.4036C29.8015 81.4008 30.3163 80.4357 29.6558 80.059C29.3912 79.8699 28.8599 79.2998 27.5451 79.122C26.099 78.9456 26.343 77.2158 23.7154 77.052C2.04428 76.3246 3.76939 78.0334 2.82783 75.9324C3.99494 74.5765 10.1814 76.0456 17.7832 74.8126C17.894 72.8923 15.9351 73.8729 14.7309 71.7748C14.3289 71.0114 13.8017 70.8252 13.4017 70.2537C13.2684 70.0632 13.2643 69.6795 13.1309 69.489C14.1668 68.1345 15.2355 69.8502 16.2878 70.0309C17.9821 68.8613 17.0652 69.063 20.0887 69.4144C20.8825 69.9817 20.3738 71.5224 20.9051 72.0924C21.3051 72.6639 20.9216 73.6276 21.1923 74.3923C22.6467 75.3363 22.6467 75.3363 24.7368 74.3543C23.9081 70.525 24.8393 71.6665 27.59 71.0613C27.8526 71.0585 28.111 70.6719 28.2402 70.4786C28.2176 68.3678 28.4905 69.3244 26.8863 66.6548C26.0946 66.2795 25.9797 67.816 25.1941 68.0164C24.6711 68.2139 24.1274 66.4925 23.2106 66.6942C22.8208 67.0822 22.4352 67.854 21.7788 67.861C16.9216 67.9131 12.9997 69.4904 13.3544 65.8403C13.7113 62.382 18.0804 65.7896 21.5982 63.2571C23.1797 63.8159 24.8925 64.3733 26.5971 64.1631C27.3827 63.9628 27.237 62.6209 26.9621 61.4724C26.0288 60.139 24.9703 59.3827 23.6617 59.7806C23.5263 59.3982 23.3909 59.0158 23.2534 58.4416C21.2781 57.887 19.3089 57.9081 17.3439 58.313C17.0813 58.3158 16.9542 58.701 16.829 59.278C16.9583 59.0847 17.0895 59.0833 15.2537 59.2949L15.2558 59.4868C14.0434 56.6211 5.41815 60.3599 1.8387 57.1357C2.09303 56.3653 2.09097 56.1734 2.35147 55.9787C10.0886 55.1282 11.1553 56.6521 13.6352 55.2821C13.629 54.7065 13.6249 54.3227 13.4875 53.7484C14.3982 52.971 15.4546 53.5354 16.3756 53.7175C17.4258 53.7062 18.353 54.4639 19.153 55.6068C19.8094 55.5998 20.4658 55.5928 21.1242 55.7776C24.9354 56.1206 24.9004 52.8585 26.3589 54.1863C26.4922 54.3767 26.8778 53.605 26.8758 53.4131C26.8717 53.0293 26.6029 52.4564 26.3383 52.2674C26.207 52.2688 26.3383 52.2674 25.6819 52.2744C25.4153 51.8934 24.8758 50.5558 23.6943 50.5685C20.5456 50.7941 17.3826 49.6765 14.2402 50.4779C12.9295 50.6838 12.6525 49.3434 10.308 51.0957C7.39936 49.2078 4.2528 49.6253 0.841631 49.8538C0.447797 49.858 0.316519 49.8594 -0.616817 48.526C0.423127 47.5553 1.74618 48.5007 2.65896 47.9152C3.43018 46.3716 2.22607 44.2735 3.92857 43.8714C4.45162 43.6739 3.79729 43.8728 7.33768 43.4511C7.97968 42.1008 7.6904 39.6091 6.63812 39.4284C3.87512 38.8823 6.77351 39.8108 -2.82828 38.1865C-3.48672 38.0016 -3.76572 36.4693 -3.24267 36.2718C-2.06733 35.6835 -1.67144 35.8712 0.822835 35.8444C0.683334 35.0783 0.160278 35.2758 -0.106389 34.8948C-0.373057 34.5139 -0.377168 34.1301 -0.12078 33.5516C5.90772 32.5275 3.93444 32.1648 8.13534 32.1198C10.1045 32.0987 12.0634 31.1181 14.0264 30.5214C17.9503 29.1359 17.1832 31.0633 18.7503 30.2788C20.3175 29.4944 20.9985 31.7901 22.6846 29.8529L22.8179 30.0434C22.422 29.8557 22.2846 29.2814 22.02 29.0923C21.3615 28.9075 19.5318 29.6947 17.1565 28.5687C15.0437 27.4399 13.612 28.6067 12.9453 27.6543C13.5935 26.8797 14.3873 27.4469 15.0417 27.248C15.696 27.0491 16.2191 26.8516 16.8754 26.8445C17.2364 23.7701 14.7503 24.5644 14.2211 24.1862C12.1063 22.8655 10.933 23.6457 7.78438 23.8713C6.85105 22.538 7.51155 22.9147 4.4901 22.7552C3.43988 22.7664 3.94648 21.0338 4.33826 20.8377C6.94943 19.4663 5.91977 21.3965 7.07454 18.8893C8.49804 16.9549 21.7879 19.6912 24.5181 17.1671C25.1683 16.5844 25.5662 16.9639 32.0029 17.2788C34.6306 17.4426 34.6408 18.402 36.8705 18.1862C42.6406 17.5487 41.7278 18.1342 42.3657 16.4001C45.7542 14.0609 47.4814 15.9615 52.0556 13.9934C52.5786 13.7959 53.1037 13.7902 53.6268 13.5927C53.6186 12.8252 53.356 12.828 53.2247 12.8294C47.9633 11.9262 37.4776 13.5738 35.4961 12.4436C35.6232 12.0584 35.6191 11.6746 35.7504 11.6732C36.6652 11.2796 37.7093 10.6927 38.6303 10.8747C41.1307 11.4237 41.1266 11.0399 51.8873 10.5408C55.3005 10.5042 53.9713 8.98317 57.2594 9.52367C62.3875 10.2364 79.5684 8.51702 83.9191 10.1976C84.5775 10.3825 85.3673 10.5659 86.0216 10.367C86.8072 10.1667 87.599 10.542 88.6513 10.7226C91.0019 9.546 91.9147 8.96049 92.9732 9.71679C93.5024 10.0949 94.0172 9.12987 95.3341 9.49958C100.727 10.4014 102.29 9.23315 103.079 9.4166C104.794 10.1659 106.361 9.38144 106.626 9.57052C108.084 10.8983 112.127 8.36011 116.876 10.4203C129.557 5.29472 103.192 7.68819 44.3859 8.89395C42.5481 8.91364 37.4364 9.73605 34.9401 9.57088C32.4438 9.40571 23.123 9.50557 19.8514 10.5002C19.5929 10.8868 19.3324 11.0815 19.2032 11.2748C16.6945 9.95827 12.9019 11.3423 10.2681 10.6028C10.3973 10.4096 10.5245 10.0244 10.5245 10.0244C12.7583 10.1923 14.9776 9.0171 17.2094 8.99319C18.5221 8.97913 18.3765 7.63731 21.3979 7.79685C24.5527 8.14687 24.5424 7.18743 30.5833 7.31462C34.1298 7.46854 33.3442 7.66886 35.941 4.95428C37.5163 4.93741 37.1184 4.55785 38.0579 6.4669C43.3131 6.79442 117.339 4.65796 117.339 4.65796C119.309 4.63686 118.64 3.49256 121.791 3.4588C128.223 3.38989 140.695 3.25628 150.672 3.14939C151.591 3.13954 152.503 2.55403 153.293 2.73748C154.214 2.91952 155.131 2.71779 155.917 2.51746C157.882 2.11258 157.892 3.07203 159.992 3.04953C176.271 2.87513 175.75 3.26453 175.863 1.53612C175.069 0.968895 174.285 1.36111 173.498 1.36955C170.605 1.01671 172.854 2.52792 168.638 1.2297C168.507 1.23111 168.372 0.848733 168.109 0.851546C168.238 0.658251 168.236 0.466361 168.367 0.464955C176.105 -0.385583 176.644 0.952017 181.37 0.901385C186.753 0.843721 186.751 0.651831 187.423 2.17991C190.053 2.53556 188.872 2.54822 190.19 3.10983C193.093 4.42211 192.693 3.85066 196.371 4.00317C198.996 3.97504 198.609 4.55493 200.319 4.92042C201.109 5.10387 201.895 4.90355 202.684 5.087C206.377 6.58273 207.406 4.65259 213.853 5.9269C214.764 5.14949 215.808 4.56257 216.871 5.70266C216.735 5.32029 217.006 6.08503 217.01 6.46881C217.306 9.53623 223.699 5.82141 226.085 7.90688C227.543 9.23463 229.104 7.87453 231.59 7.08025C232.77 6.8757 235.137 7.23417 234.632 9.15869C233.461 10.1308 232.794 9.17838 225.447 9.64092C225.851 10.5961 225.318 9.83421 234.907 10.3072C245.284 10.7718 245.407 10.0028 248.172 10.7408C248.831 10.9257 246.728 10.7563 256.837 10.648C269.179 10.7077 272.365 13.936 284.557 12.2701C285.843 9.76151 285.978 10.1439 288.079 10.1214C289.41 11.8343 289.41 11.8343 290.725 12.0121C292.304 12.379 297.158 11.9432 297.158 11.9432C299.516 11.5341 298.477 12.5048 307.664 12.2145C314.882 11.9452 313.571 12.1512 314.626 12.5237C314.632 13.0994 314.638 13.6751 314.376 13.6779C312.673 14.0799 304.142 14.3632 302.046 14.7695C301.783 14.7723 301.658 15.3494 301.529 15.5427C301.679 17.2683 302.597 17.2585 303.656 18.0148C287.25 18.5744 292.235 18.1371 291.862 20.0602C290.559 21.0338 288.844 20.2845 289.275 23.7343C289.671 23.9219 290.069 24.3015 290.465 24.4892C290.873 25.8282 289.427 25.6518 289.045 26.8073C289.968 27.1812 290.762 27.7485 291.431 28.8928C291.966 29.8466 293.017 29.8353 293.17 31.9447C293.425 31.1744 293.681 30.5959 293.806 30.0188C294.354 32.124 293.817 30.9782 296.071 33.0651C296.469 33.4447 296.738 34.0175 296.748 34.977C296.877 34.7837 297.271 34.7795 294.128 35.5808C293.739 35.9688 293.218 36.3582 293.232 37.7014C294.559 39.0306 293.903 39.0376 298.102 38.8007C298.364 38.7979 298.494 38.6046 298.883 38.2166C298.742 37.2586 298.602 36.4924 298.465 35.9181C298.465 35.9181 304.637 36.0439 305.429 36.4193C305.691 36.4165 305.96 36.9893 305.833 37.3745C305.58 38.3368 305.578 38.1449 302.565 38.7529C301.386 38.9574 301.515 38.7641 301.54 41.0668C300.894 42.0333 300.091 40.6985 299.312 41.4745C299.447 41.8569 299.583 42.2392 299.716 42.4297C301.175 43.7575 300.768 42.6104 301.181 44.3331C298.568 45.5126 296.574 43.231 296.467 45.5351C296.486 47.2621 296.486 47.2621 295.575 48.0395C293.314 45.377 294.106 45.7523 292.272 46.1558C291.77 48.2722 291.778 49.0398 290.463 48.8619C280.468 47.2418 283.869 46.0539 279.288 47.4464C279.034 48.2167 279.169 48.5991 279.567 48.9787L279.565 48.7868C278.558 52.8277 279.707 49.7448 282.89 52.7813C283.953 53.9214 284.738 53.721 290.133 54.8147C290.66 55.001 291.717 55.5654 294.213 55.7306C303.273 55.8254 303.138 55.443 303.932 56.0103C303.946 57.3535 296.451 56.2823 292.783 57.0893C292.269 58.0543 292.673 59.0096 292.42 59.9718C292.166 60.7422 291.914 61.7045 291.659 62.4748C292.585 63.0407 292.33 63.811 292.363 66.8812C292.634 67.646 292.903 68.2188 293.173 68.9836C292.017 71.2989 292.408 71.1028 294.638 70.887C295.294 70.88 295.949 70.6811 296.474 70.6754C300.025 71.2131 303.434 70.7928 306.982 71.1386C308.166 71.3178 308.035 71.3192 307.92 72.8557C310.432 74.556 316.33 73.5333 319.887 74.6467C318.576 74.8526 317.794 75.4367 317.136 75.2519C316.082 74.8793 315.169 75.4648 314.527 76.8151C312.426 76.8376 311.63 76.0785 309.665 76.4834C309.403 76.4862 309.14 76.489 308.876 76.2999C306.89 74.7859 302.962 75.7875 301.643 75.2259C299.928 74.4767 298.228 75.0706 296.519 74.897C295.336 74.7178 294.029 75.3075 292.856 76.0877C292.595 76.2824 292.468 76.6676 292.212 77.2461C294.72 78.5626 294.849 78.3693 293.161 80.1146C293.73 84.1386 293.851 83.1778 302.782 83.4659C303.175 83.4617 303.436 83.267 303.707 84.0317C303.709 84.2236 303.58 84.4169 303.448 84.4183C296.503 85.6442 297.924 83.518 293.094 86.0646C292.569 86.0702 291.902 85.1178 291.252 85.7005C290.731 86.0899 290.204 85.9036 289.681 86.1011C289.683 86.293 289.689 86.8687 289.82 86.8673C293.65 88.9373 293.375 87.7887 295.369 90.0703C294.848 90.4597 294.325 90.6572 293.804 91.0466C294.602 91.9977 295.262 92.3744 296.181 92.3646C301.822 91.9203 301.574 93.2663 303.405 92.671C303.668 92.6682 303.935 93.0491 303.939 93.4329C304.46 93.0435 303.432 95.1655 303.689 94.5871ZM81.7326 14.4431C81.8659 14.6336 81.9993 14.8241 82.1305 14.8226C82.9182 14.8142 82.7787 14.0481 83.0392 13.8534C82.7828 14.4318 82.2515 13.8618 81.7326 14.4431ZM58.6926 69.7685C58.4218 69.0038 58.9593 70.1495 59.2218 70.1466C59.4844 70.1438 59.6136 69.9505 59.4782 69.5682C59.3428 69.1858 58.8218 69.5752 58.6926 69.7685ZM266.536 70.4204C267.326 70.6039 268.112 70.4036 268.764 70.0127C265.87 69.468 267.714 70.024 266.017 71.0017C266.28 70.9989 266.151 71.1922 266.536 70.4204ZM177.578 2.2854L177.573 1.90162C178.244 3.23781 179.813 2.64527 180.468 2.44635C179.415 2.26571 178.494 2.08366 177.578 2.2854ZM16.0696 37.4083C15.6737 37.2206 15.4029 36.4559 14.886 37.2291C15.4152 37.6072 15.807 37.4111 16.0696 37.4083C15.965 39.9043 19.6387 39.673 19.6531 41.0162C19.6634 41.9757 19.9342 42.7404 20.4593 42.7348C22.3013 43.0989 24.012 43.4644 25.8438 42.869C25.975 42.8676 26.1022 42.4824 26.2314 42.2891C25.0314 40.5748 25.1689 41.149 25.6857 40.3758C26.3339 39.6013 26.3319 39.4094 25.9216 37.8785C19.7371 36.6013 18.1577 36.2344 16.0696 37.4083ZM276.693 50.3528L276.696 50.5447C276.16 49.5909 277.335 49.0026 277.194 48.0445C276.269 47.4787 275.473 46.7196 274.679 46.1524C273.364 45.9745 271.405 46.9551 269.293 45.8262C268.897 45.6386 265.746 45.6723 263.383 45.6976C263.252 45.6991 263.122 45.8923 262.993 46.0856C263.131 46.6599 263.137 47.2356 263.276 48.0017C260.794 49.1798 260.241 46.499 254.989 46.5552C251.707 46.5904 248.298 47.0107 245.004 45.8945C242.641 45.9199 240.278 45.9452 238.05 46.3529C240.549 46.7099 242.514 46.305 243.176 46.8737C244.5 47.8191 245.416 47.6173 251.457 47.7445C254.083 47.7164 252.255 48.6955 256.323 48.46C259.603 48.233 259.229 50.1561 262.12 50.3171C262.645 50.3114 265.539 50.8562 265.787 49.5101C266.154 47.0113 267.207 47.192 268.525 47.7536C268.017 49.2943 268.144 48.9091 267.625 49.4904C267.496 49.6837 267.233 49.6865 267.239 50.2622C267.765 50.2566 268.292 50.4428 268.948 50.4358C273.018 50.3922 274.622 53.0618 276.693 50.3528ZM127.461 116.05C126.644 113.372 125.623 116.07 123.775 115.13C122.85 114.564 121.931 114.574 121.145 114.774C116.429 115.784 99.9949 113.658 96.5981 115.229C95.031 116.014 88.2107 116.662 96.2166 116.385C106.323 116.085 119.59 116.71 127.461 116.05ZM175.534 68.9005C177.12 69.8431 182.104 69.4059 205.078 69.1598C205.472 69.1555 205.999 69.3418 206.384 68.57C196.138 68.1041 187.228 69.7348 186.153 67.4434C186.278 66.8663 186.272 66.2906 186.397 65.7136C185.205 64.7668 185.864 64.9516 184.295 65.5442C183.903 65.7403 183.374 65.3621 183.117 65.9406C183.123 66.5163 183.128 66.9001 183.134 67.4757C182.744 67.8637 182.486 68.2503 182.092 68.2545C179.339 68.6679 177.362 67.9214 175.534 68.9005ZM125.975 14.161C126.1 13.5839 125.834 13.203 125.571 13.2058C124.913 13.0209 124.123 12.8375 123.469 13.0364C122.291 13.4328 117.818 12.5212 114.804 13.1292C110.612 13.9418 109.422 13.1869 106.938 14.1731C111.547 15.4671 112.322 14.3073 114.435 15.4361C116.15 16.1854 118.636 15.3911 122.183 15.545C123.627 15.5295 124.804 15.1331 125.975 14.161ZM256.421 20.8238C267.585 21.2799 255.631 20.6403 271.913 20.8497C275.854 20.9994 274.27 20.2487 276.629 19.8396C276.892 19.8368 276.892 19.8368 277.277 19.065C276.883 19.0692 276.488 18.8816 276.225 18.8844C261.13 19.238 261.255 18.6609 256.421 20.8238ZM285.083 61.3938C284.166 61.5955 283.112 61.223 282.199 61.8085C281.941 62.1951 281.816 62.7722 281.557 63.1588C280.119 63.7499 280.509 63.3619 280.257 64.3242C282.253 66.7977 282.484 63.9165 283.937 64.6686C283.945 65.4361 283.293 65.827 283.699 66.9741C286.856 67.516 286.462 67.5202 286.831 65.2133C288.538 65.195 287.356 65.2077 289.857 65.7566C290.119 65.7538 290.501 64.5983 289.838 64.0296C287.871 64.2426 288.925 64.6151 285.083 61.3938ZM41.1525 62.4719C43.4006 63.9831 45.4929 63.193 47.7266 63.361C48.1143 62.7811 48.6353 62.3917 49.023 61.8118C50.7316 61.9854 50.2024 61.6073 51.4045 63.5135C52.3255 63.6955 52.3255 63.6955 52.8444 63.1143C52.8403 62.7305 52.8382 62.5386 52.7029 62.1562C52.5531 60.4306 54.4074 61.946 55.4412 60.3997C53.991 59.8395 52.8115 60.044 47.8209 59.9056C45.3266 59.9323 44.8262 62.2406 42.0673 62.0782C41.934 61.8878 41.6755 62.2743 41.1525 62.4719ZM281.388 35.1415C282.33 37.2425 283.63 36.0771 284.824 37.2157C285.764 39.1248 285.103 38.7481 287.866 39.2942C288.512 38.3277 289.031 37.7464 289.679 36.9718C289.675 36.588 289.396 35.0557 288.738 34.8709C286.237 34.3219 283.876 34.5391 281.388 35.1415ZM280.719 21.7149C280.325 21.7191 279.942 22.6828 280.081 23.4489C280.225 24.5989 280.223 24.407 286.789 24.5286C286.92 24.5271 287.049 24.3339 287.31 24.1391C286.754 21.2664 287.546 21.6418 280.719 21.7149ZM280.575 81.7847C283.599 82.1361 286.353 81.9147 289.11 81.8852C289.504 81.881 289.765 81.6863 290.156 81.4902C290.275 80.3374 290.009 79.9564 288.825 79.7772C281.078 79.6683 281.867 79.8518 280.575 81.7847ZM277.193 23.4799C276.925 22.907 276.656 22.3342 276.262 22.3384C274.422 22.1662 272.716 22.1845 271.015 22.7784C270.623 22.9745 270.496 23.3597 270.373 24.1287C270.252 25.0895 276.676 24.2531 276.676 24.2531C276.808 24.2517 277.066 23.8651 277.193 23.4799ZM61.9199 15.6149C59.0277 15.2621 56.2811 16.2511 53.5243 16.2806C42.8908 16.3945 48.5604 18.6367 61.2697 16.1976C61.5322 16.1948 61.6594 15.8096 61.9199 15.6149ZM60.1939 62.8436C60.196 63.0355 60.198 63.2274 60.0688 63.4207C60.4626 63.4165 60.7272 63.6055 61.1211 63.6013C75.8242 63.4438 74.776 63.6469 75.0304 62.8766C75.0304 62.8766 60.719 62.838 60.1939 62.8436ZM293.956 105.246C296.062 105.8 296.188 105.223 297.111 105.596C298.692 106.155 300.132 105.756 301.572 105.357C301.703 105.355 301.701 105.163 301.83 104.97C299.326 104.037 296.821 103.105 294.196 103.133C293.691 105.057 293.816 104.48 293.956 105.246ZM96.567 14.2842C94.7209 13.5363 94.4665 14.3067 92.0994 13.9482C88.6821 13.601 88.559 14.37 86.7129 13.6221C85.9232 13.4386 85.1355 13.4471 84.352 13.8393C84.352 13.8393 84.2228 14.0326 84.2248 14.2245C84.6289 15.1797 84.233 14.992 95.6522 14.6778C95.9147 14.675 96.1752 14.4803 96.567 14.2842ZM94.5285 118.13C96.3705 118.494 107.535 118.95 107.919 117.987C105.42 117.63 98.2002 117.707 94.5285 118.13ZM281.493 106.148C278.865 105.984 279.917 106.165 277.804 105.036C277.144 104.659 276.367 105.627 273.331 104.124C272.67 103.747 271.749 103.565 271.101 104.34C271.243 105.298 271.639 105.486 272.032 105.481C273.872 105.654 276.235 105.628 277.29 106.001C279.136 106.749 279.136 106.749 281.493 106.148ZM262.214 59.144C267.082 60.0514 268.261 59.8468 269.301 58.8761C269.034 58.4952 268.899 58.1128 268.636 58.1156C266.792 57.5596 264.957 57.7712 262.992 58.1761C262.598 58.1803 262.337 58.375 262.214 59.144ZM211.296 122.636C212.613 123.006 219.725 125.041 221.154 123.682C216.806 122.194 218.91 122.555 211.296 122.636ZM53.1769 69.6357C53.1748 69.4438 53.1707 69.06 53.1707 69.06C52.6394 68.49 51.981 68.3051 51.4559 68.3107C47.257 68.5476 47.7677 67.1988 45.1607 68.9539C45.1607 68.9539 45.0315 69.1472 45.0356 69.531C47.8006 70.269 50.42 69.6652 53.1769 69.6357ZM43.3859 50.3575C42.4649 50.1755 41.5419 49.8015 41.0353 51.5342C40.7809 52.3045 40.3809 51.7331 40.3974 53.2682C40.4036 53.8439 42.504 53.8214 43.5522 53.6182C43.5254 51.1237 43.5357 52.0831 43.3859 50.3575ZM128.333 62.6893C126.885 62.321 119.659 61.8227 118.485 62.6029C118.885 63.1744 125.058 63.3002 128.333 62.6893ZM49.5472 24.9592C52.702 25.3092 55.986 25.466 59.1284 24.6646C55.8424 24.316 52.6917 24.3498 49.5472 24.9592ZM251.056 59.2635C242.91 58.775 242.91 58.775 242.129 59.3591C244.235 59.9123 245.811 59.8954 251.056 59.2635ZM263.347 103.655C263.483 104.038 263.487 104.421 263.489 104.613C265.6 105.55 267.682 103.801 268.74 104.557C268.871 104.556 268.999 104.17 269.13 104.169C268.997 103.979 268.859 103.404 268.859 103.404C266.629 103.62 266.361 103.047 263.347 103.655ZM204.958 119.25C206.01 119.431 207.062 119.611 208.111 119.408C209.29 119.203 210.351 120.152 211.53 119.947C212.447 119.745 212.449 119.937 212.182 119.556C209.678 118.624 207.442 118.264 204.958 119.25ZM41.2262 57.0976C41.2303 57.4813 41.1011 57.6746 41.1031 57.8665L41.2385 58.2489C43.5933 57.456 45.6999 58.0092 47.1398 57.6099C47.2711 57.6085 47.3921 56.6477 46.9962 56.46C45.0188 55.7135 47.6567 56.8367 41.2262 57.0976ZM156.221 116.701C161.08 116.841 159.242 116.861 163.439 116.432C160.941 116.075 158.58 116.292 156.221 116.701ZM24.746 26.1845C23.1583 25.05 22.227 23.9085 20.7912 24.6916C20.3994 24.8877 20.143 25.4661 20.1492 26.0418C20.1574 26.8094 20.2887 26.808 23.9624 26.5767C24.225 26.5739 24.3542 26.3806 24.746 26.1845ZM175.962 121.096C174.385 120.921 171.624 120.567 169.915 120.393C169.39 120.399 168.104 122.907 175.962 121.096ZM279.507 92.3513C280.959 93.1034 280.303 93.1104 284.508 93.4492C285.033 93.4435 285.156 92.6746 285.152 92.2908C284.231 92.1088 284.489 91.7222 280.684 91.9548C280.553 91.9563 280.161 92.1524 279.507 92.3513ZM125.127 118.762C118.563 118.832 119.348 118.632 119.354 119.207C122.505 119.174 123.964 120.501 125.127 118.762ZM24.8302 34.0519C24.301 33.6738 25.22 33.6639 19.8335 33.3378C17.731 33.1684 18.5351 34.6951 18.5351 34.6951C19.8499 34.8729 23.1298 34.6459 24.8302 34.0519ZM139.928 115.533C139.261 114.58 139.399 115.154 133.493 115.41C134.548 115.782 139.017 116.31 139.928 115.533ZM94.466 75.5264C92.4947 75.3556 90.5215 74.9929 88.5605 75.7816C90.5338 76.1443 92.503 76.1232 94.466 75.5264ZM247.396 36.2734C247.687 38.957 249.381 37.7874 250.821 37.3881C251.084 37.3853 250.811 36.4287 250.678 36.2382C249.494 36.059 248.444 36.0702 247.396 36.2734ZM266.008 94.6069C263.107 93.4865 261.298 96.1927 262.346 95.9895C263.528 95.9769 264.709 95.9642 266.008 94.6069ZM48.8535 95.0143C48.0556 94.0633 47.2699 94.2636 46.6094 93.8869C45.0444 94.8632 45.6987 94.6643 43.9942 94.8744C45.5716 95.0495 47.1592 96.1839 48.8535 95.0143ZM26.0608 26.3623C27.3715 26.1563 28.951 26.5232 28.0032 23.8466C26.953 23.8579 27.6053 23.4671 26.0608 26.3623ZM80.5511 14.4557C73.9851 14.3342 73.9913 14.9098 79.6383 15.0413C79.7696 15.0399 80.0301 14.8452 80.5511 14.4557ZM165.953 69.1951C166.486 69.957 167.005 69.3757 167.53 69.3701C168.189 69.555 168.974 69.3546 169.631 69.3476C170.024 69.3434 169.891 69.1529 170.15 68.7663C167.255 68.2216 167.124 68.223 165.953 69.1951ZM65.1558 60.2956C67.0019 61.0435 67.0019 61.0435 68.9628 60.2548C68.8295 60.0643 68.6961 59.8738 68.4336 59.8766C65.0204 59.9132 65.5455 59.9076 65.1558 60.2956ZM41.5295 48.6502C42.9777 49.0185 42.9777 49.0185 43.7592 48.4344C43.2238 47.4806 42.5654 47.2957 41.7818 47.6879C41.6505 47.6894 41.6567 48.265 41.5295 48.6502ZM117.775 118.841C116.458 118.471 115.406 118.29 114.101 119.072C115.418 119.442 116.47 119.622 117.775 118.841ZM251.826 20.873C250.776 20.8842 249.851 20.3184 248.938 20.9039C249.857 20.8941 250.776 20.8842 251.826 20.873ZM168.132 113.311C168.005 113.697 167.74 113.507 171.285 113.469C171.281 113.086 171.545 113.275 168.132 113.311ZM137.583 6.93593C137.716 7.12641 137.454 7.12922 139.948 7.1025C139.946 6.91061 140.34 6.90639 137.583 6.93593ZM206.918 8.11222C207.71 8.48756 208.627 8.28583 209.415 8.27739C209.281 8.0869 209.544 8.08409 206.918 8.11222ZM36.8564 29.1253C37.7795 29.4992 38.5692 29.6827 39.484 29.2891C39.6153 29.2877 39.6112 28.9039 39.7404 28.7106C39.8676 28.3254 38.5507 27.9557 37.2441 28.5454C37.1128 28.5468 36.9836 28.7401 36.8564 29.1253ZM47.1745 48.5897C47.0309 47.4398 46.8976 47.2493 46.3704 47.0631C46.1078 47.0659 45.8453 47.0687 45.7202 47.6458C45.4658 48.4161 46.5263 49.3643 47.1745 48.5897ZM290.392 91.2751C291.324 92.4166 293.168 92.9726 292.885 91.0565C292.093 90.6811 291.305 90.6896 290.392 91.2751ZM248.823 95.9425C250.271 96.3108 250.271 96.3108 250.656 95.539C249.206 94.9788 248.939 94.5979 248.683 95.1764C248.683 95.1764 248.819 95.5587 248.823 95.9425ZM54.0638 103.403C54.07 103.978 53.8074 103.981 54.9951 104.544C55.5222 104.73 56.1786 104.723 56.2996 103.762C56.1642 103.38 56.5581 103.376 54.0638 103.403ZM134.581 118.852C135.5 118.843 136.287 118.834 137.206 118.824C136.416 118.641 135.629 118.649 134.841 118.658C134.71 118.659 134.71 118.659 134.581 118.852ZM219.407 119.863C221.522 121.183 221.259 121.186 221.649 120.798C220.98 119.654 220.98 119.654 219.407 119.863ZM180.33 63.0918C181.117 63.0834 181.778 63.4601 182.559 62.876C181.768 62.5007 181.111 62.5077 180.33 63.0918ZM294.976 41.1371C297.341 41.3037 296.949 41.4998 297.205 40.9213C296.414 40.546 295.624 40.3625 294.976 41.1371ZM186.943 6.40711C187.602 6.59196 188.269 7.54438 188.781 6.38742C188.125 6.39445 187.469 6.40148 186.943 6.40711ZM141.536 118.586C140.878 118.401 139.69 117.838 139.175 118.803C139.971 119.562 140.623 119.172 141.536 118.586ZM112.655 118.895C112.651 118.512 112.916 118.701 111.078 118.72C111.213 119.103 110.949 118.914 112.655 118.895ZM218.102 10.2953C218.756 10.0964 219.287 10.6665 219.935 9.89187C219.41 9.8975 218.883 9.71124 218.102 10.2953ZM81.9279 118.457C82.453 118.451 83.2448 118.827 83.5012 118.248C82.974 118.062 82.4468 117.876 81.9279 118.457ZM149.018 69.3765C149.016 69.1846 149.147 69.1832 147.441 69.2015C147.443 69.3934 147.311 69.3948 149.018 69.3765ZM130.739 115.631C130.078 115.254 129.555 115.452 129.163 115.648C129.69 115.834 130.088 116.214 130.739 115.631ZM233.462 59.2601C233.464 59.452 233.333 59.4534 234.908 59.4365C235.038 59.2432 235.169 59.2418 233.462 59.2601ZM76.0518 60.1789C75.1267 59.613 75.1267 59.613 74.3452 60.1971C74.8765 60.7672 75.5349 60.952 76.0518 60.1789ZM143.632 7.83068C143.093 6.49308 142.713 7.84052 142.846 8.03101C143.374 8.21727 143.372 8.02538 143.632 7.83068ZM263.426 37.445C263.159 37.064 262.763 36.8764 262.376 37.4563C262.77 37.452 263.163 37.4478 263.426 37.445ZM261.029 71.0552C261.821 71.4305 261.821 71.4305 262.208 70.8506C261.812 70.663 261.414 70.2834 261.029 71.0552ZM52.1316 21.0933C51.8629 20.5204 51.467 20.3328 50.9481 20.9141C51.4752 21.1003 51.8691 21.0961 52.1316 21.0933ZM13.1465 34.1771C13.1445 33.9852 13.007 33.411 12.4819 33.4166C11.8235 33.2317 11.965 34.1898 12.3588 34.1855C12.6214 34.1827 12.884 34.1799 13.1465 34.1771ZM88.1294 60.0495C89.315 60.4206 88.9212 60.4248 89.5734 60.034C89.0422 59.4639 89.436 59.4597 88.1294 60.0495ZM81.5634 59.9279C80.907 59.9349 80.6445 59.9377 80.6465 60.1296C80.6486 60.3215 80.6507 60.5134 80.7819 60.512C81.0507 61.0849 81.0507 61.0849 81.5634 59.9279ZM268.919 35.467C269.315 35.6547 269.711 35.8424 270.1 35.4544C269.703 35.0748 269.309 35.079 268.919 35.467ZM132.741 118.68C132.082 118.495 132.345 118.493 132.216 118.686C132.347 118.684 132.609 118.682 132.741 118.68ZM212.012 115.912C211.745 115.531 211.483 115.534 211.093 115.922C211.362 116.495 211.756 116.49 212.012 115.912ZM167.377 116.39C166.852 116.396 166.852 116.396 166.854 116.588C167.511 116.581 167.38 116.582 167.377 116.39ZM290.569 83.2129C290.437 83.2143 290.171 82.8334 290.046 83.4104C290.573 83.5967 290.573 83.5967 290.569 83.2129ZM40.6646 78.2138C41.1939 78.592 41.0626 78.5934 41.4503 78.0135C41.1877 78.0163 41.319 78.0149 40.6646 78.2138ZM98.5376 75.6747C99.0669 76.0528 98.9356 76.0542 99.194 75.6677C99.0607 75.4772 99.1899 75.2839 98.5376 75.6747ZM155.647 63.1643C155.779 63.1629 155.91 63.1615 155.647 63.1643C155.779 63.1629 155.91 63.1615 155.647 63.1643ZM152.89 63.1939C153.022 63.1925 153.153 63.1911 152.89 63.1939C153.022 63.1925 153.153 63.1911 152.89 63.1939ZM88.4248 63.1169C88.1582 62.7359 87.8956 62.7387 87.6372 63.1253C88.031 63.1211 88.1623 63.1197 88.4248 63.1169ZM57.0145 60.1909C57.0165 60.3828 56.8832 60.1923 57.5396 60.1853C57.5396 60.1853 57.5396 60.1853 57.0145 60.1909ZM64.1537 15.7829C63.4952 15.598 63.6265 15.5966 63.364 15.5994C63.6306 15.9804 63.764 16.1709 64.1537 15.7829ZM257.375 36.3584C257.112 36.3612 257.243 36.3598 257.375 36.3584C257.112 36.3612 257.243 36.3598 257.375 36.3584ZM35.1988 21.4666C35.2009 21.6585 35.0696 21.6599 35.0717 21.8518C34.9589 23.5802 35.605 22.6137 35.1988 21.4666ZM244.658 50.3122C243.999 50.1274 244.262 50.1246 244.001 50.3193C244.264 50.3164 244.526 50.3136 244.658 50.3122ZM246.758 50.2897C246.495 50.2925 246.627 50.2911 246.758 50.2897C246.495 50.2925 246.627 50.2911 246.758 50.2897ZM136.01 7.14469C135.747 7.14751 135.747 7.14751 136.01 7.14469V7.14469ZM55.9836 12.9917C55.719 12.8027 55.8503 12.8013 55.8523 12.9932L55.9836 12.9917ZM70.4447 14.7559C70.3135 14.7573 70.3135 14.7573 70.4447 14.7559V14.7559ZM220.364 13.1498C220.627 13.147 220.627 13.147 220.364 13.1498V13.1498ZM32.2288 26.1043L32.2267 25.9124C31.9642 25.9152 31.9662 26.1071 32.0996 26.2976C32.0996 26.2976 32.0975 26.1057 32.2288 26.1043ZM14.4572 33.9712C14.1967 34.1659 14.1967 34.1659 14.4593 34.163L14.4572 33.9712ZM50.1957 36.4669C49.9331 36.4698 49.9352 36.6616 50.0685 36.8521C50.0685 36.8521 50.1998 36.8507 50.331 36.8493C50.329 36.6574 50.329 36.6574 50.1957 36.4669ZM52.1648 36.4458L52.1669 36.6377C52.4315 36.8268 52.6899 36.4402 52.294 36.2526C52.2961 36.4444 52.2961 36.4444 52.1648 36.4458ZM278.634 35.363C278.894 35.1683 278.896 35.3601 278.634 35.363V35.363ZM255.408 36.5713C255.408 36.5713 255.406 36.3795 255.274 36.3809C255.012 36.3837 255.014 36.5756 255.145 36.5742C255.276 36.5728 255.408 36.5713 255.408 36.5713ZM259.356 37.4886C259.092 37.2995 259.092 37.2995 259.094 37.4914L259.356 37.4886ZM279.571 37.0801C279.836 37.2692 279.836 37.2692 279.834 37.0773L279.571 37.0801ZM288.728 46.1938C288.726 46.0019 288.724 45.81 288.461 45.8128L288.332 46.0061C288.463 46.0047 288.595 46.0033 288.728 46.1938ZM78.8086 60.1493C78.544 59.9602 78.6753 59.9588 78.4148 60.1535C78.6794 60.3426 78.5481 60.344 78.8086 60.1493ZM54.8156 63.285C55.0782 63.2822 55.0761 63.0903 54.8136 63.0932C54.8136 63.0932 54.6823 63.0946 54.551 63.096C54.6844 63.2864 54.6844 63.2864 54.8156 63.285ZM149.475 63.0386C149.477 63.2304 149.477 63.2304 149.74 63.2276L149.475 63.0386ZM186.366 62.8352C186.366 62.8352 186.364 62.6433 186.233 62.6448C185.97 62.6476 185.973 62.8395 186.106 63.0299C186.237 63.0285 186.368 63.0271 186.366 62.8352ZM286.234 70.7851C285.97 70.5961 285.97 70.5961 285.972 70.7879L286.234 70.7851ZM96.4351 75.5053C96.5726 76.0796 97.0915 75.4983 96.6977 75.5025C96.5664 75.5039 96.5664 75.5039 96.4351 75.5053ZM290.378 77.6495C290.776 78.0291 290.77 77.4534 290.507 77.4563L290.378 77.6495ZM136.319 85.0574C136.057 85.0602 136.057 85.0602 136.19 85.2507C136.19 85.2507 136.321 85.2493 136.319 85.0574ZM38.4065 88.0255C38.146 88.2202 38.1439 88.0283 38.4085 88.2174L38.4065 88.0255ZM258.439 86.6277C258.574 87.0101 258.443 87.0115 258.703 86.8168C258.699 86.433 258.832 86.6235 258.439 86.6277ZM267.441 93.632C267.439 93.4401 267.439 93.4401 267.177 93.4429L267.441 93.632ZM271.125 94.3602C270.863 94.363 270.865 94.5549 270.998 94.7454C270.998 94.7454 271.13 94.744 271.261 94.7426C271.259 94.5507 271.125 94.3602 271.125 94.3602ZM58.8594 97.5939C58.8615 97.7857 58.8615 97.7857 58.9927 97.7843L58.8594 97.5939ZM284.816 109.95C284.82 110.334 284.686 110.144 285.08 110.139L284.816 109.95ZM79.5382 115.988C79.7946 115.409 79.3987 115.222 79.4048 115.797C79.2756 115.991 79.4069 115.989 79.5382 115.988ZM208.205 115.953C207.94 115.764 207.94 115.764 207.944 116.147C208.207 116.145 208.076 116.146 208.205 115.953ZM245.935 120.538C246.196 120.343 246.198 120.535 245.935 120.538V120.538ZM209.721 122.653C209.725 123.037 209.592 122.847 209.986 122.842L209.721 122.653ZM96.7461 129.045C96.8795 129.236 96.8795 129.236 96.8774 129.044L96.7461 129.045ZM239.886 119.643C239.753 119.453 239.753 119.453 239.755 119.645L239.886 119.643ZM282.035 71.022C282.163 70.6368 282.165 70.8287 282.031 70.6383L282.035 71.022ZM292.381 31.7613C292.254 32.1465 292.252 31.9546 292.514 31.9518L292.381 31.7613ZM36.2532 21.8391C36.126 22.2243 36.124 22.0324 36.2552 22.031L36.2532 21.8391Z" fill="#ECB942"/>
</svg>
