<svg width="243" height="41" viewBox="0 0 243 41" fill="none" xmlns="http://www.w3.org/2000/svg">
<g clip-path="url(#clip0_22_0)">
<path d="M181.8 24.8C186.1 24.6 185.9 25.3 187.3 25C187.5 25 187.7 25.2 187.7 25.4C187.9 25.1 187.2 26.1 187.3 25.9C186.7 25.8 186.1 25.8 185.5 26.1C185.3 26.2 185.3 26.4 185.1 26.7C187 27 191.5 26.7 192.2 27.7C192.1 28.5 191.7 28.4 189.9 28.6C189.9 28.8 189.7 28.7 191 29C191.3 29.4 191.1 29.4 188.6 29.4C187.4 29.4 187.1 28.7 185.8 28.8C185.1 28.9 184.5 28.4 183.8 28.6L181.8 24.8ZM187 20.3C187.3 20.3 187.5 20.2 187.7 20.6C187.7 20.7 187.6 20.8 187.5 20.8L187 20.3ZM182.3 13.7C185 14 187.6 13.8 190.3 14C191.2 14.1 191.1 14.1 191 14.9C192.9 15.8 197.4 15.3 200.1 15.9C199.1 16 198.5 16.3 198 16.2C197.2 16 196.5 16.3 196 17C194.4 17 193.8 16.6 192.3 16.8C192.1 16.8 191.9 16.8 191.7 16.7C190.2 15.9 187.2 16.4 186.2 16.1C184.9 15.7 183.6 16 182.3 15.9V13.7ZM22.5 30.7C22.6 30.8 22.9 30.4 22.9 30.3C22.9 30.1 22.7 29.8 22.5 29.7C22.4 29.7 22.5 29.7 22 29.7C21.8 29.5 21.4 28.8 20.5 28.8C18.1 28.9 15.7 28.3 13.3 28.7C12.3 28.8 12.1 28.1 10.3 29C8.1 28 5.7 28.2 3.1 28.3C2.8 28.3 2.7 28.3 2 27.6C2.8 27.1 3.8 27.6 4.5 27.3C5.1 26.5 4.2 25.4 5.5 25.2C5.9 25.1 5.4 25.2 8.1 25C8.6 24.3 8.4 23 7.6 22.9C5.5 22.6 7.7 23.1 0.399996 22.2C-0.100004 22.1 -0.300004 21.3 0.0999961 21.2C0.999996 20.9 1.3 21 3.2 21C3.1 20.6 2.7 20.7 2.5 20.5C2.3 20.3 2.3 20.1 2.5 19.8C7.1 19.3 5.6 19.1 8.8 19.1C10.3 19.1 11.8 18.6 13.3 18.3C16.3 17.6 15.7 18.6 16.9 18.2C18.1 17.8 18.6 19 19.9 18L20 18.1C19.7 18 19.6 17.7 19.4 17.6C18.9 17.5 17.5 17.9 15.7 17.3C14.1 16.7 13 17.3 12.5 16.8C13 16.4 13.6 16.7 14.1 16.6C14.6 16.5 15 16.4 15.5 16.4C15.8 14.8 13.9 15.2 13.5 15C11.9 14.3 11 14.7 8.6 14.8C7.9 14.1 8.4 14.3 6.1 14.2C5.3 14.2 5.7 13.3 6 13.2C8 12.5 7.2 13.5 8.1 12.2C9.2 11.2 19.3 12.7 21.4 11.4C21.9 11.1 22.2 11.3 27.1 11.5C29.1 11.6 29.1 12.1 30.8 12C35.2 11.7 34.5 12 35 11.1C37.6 9.89999 38.9 10.9 42.4 9.89999C42.8 9.79999 43.2 9.79999 43.6 9.69999C43.6 9.29999 43.4 9.29999 43.3 9.29999C39.5 8.99999 31.5 9.79999 30 9.19999C30.1 8.99999 30.1 8.79999 30.2 8.79999C30.9 8.6 31.7 8.29999 32.4 8.39999C34.3 8.69999 34.3 8.49999 42.5 8.29999C45.1 8.29999 44.1 7.49999 46.6 7.79999C50.5 8.2 63.6 7.39999 66.9 8.29999C67.4 8.39999 68 8.49999 68.5 8.39999C69.1 8.29999 69.7 8.5 70.5 8.6C72.3 8 73 7.7 73.8 8.1C74.2 8.29999 74.6 7.79999 75.6 7.99999C79.7 8.49999 80.9 7.89999 81.5 7.99999C82.8 8.39999 84 8 84.2 8.1C85.3 8.79999 88.4 7.5 92 8.6C101.7 6 81.6 7.09999 36.8 7.39999C35.4 7.39999 31.5 7.79999 29.6 7.69999C27.7 7.59999 20.6 7.6 18.1 8.1C17.9 8.29999 17.7 8.39999 17.6 8.49999C15.7 7.79999 12.8 8.5 10.8 8.1C10.9 8 11 7.79999 11 7.79999C12.7 7.89999 14.4 7.29999 16.1 7.29999C17.1 7.29999 17 6.59999 19.3 6.69999C21.7 6.89999 21.7 6.39999 26.3 6.49999C29 6.59999 28.4 6.7 30.4 5.3C31.6 5.3 31.3 5.09999 32 6.09999C36 6.29999 92.4 5.59999 92.4 5.59999C93.9 5.59999 93.4 4.99999 95.8 4.99999C100.7 4.99999 110.2 4.99999 117.8 4.99999C118.5 4.99999 119.2 4.7 119.8 4.8C120.5 4.9 121.2 4.79999 121.8 4.69999C123.3 4.49999 123.3 4.99999 124.9 4.99999C137.3 4.99999 136.9 5.2 137 4.3C136.4 3.99999 135.8 4.19999 135.2 4.19999C133 3.99999 134.7 4.79999 131.5 4.09999C131.4 4.09999 131.3 3.89999 131.1 3.89999C131.2 3.79999 131.2 3.69999 131.3 3.69999C137.2 3.29999 137.6 3.99999 141.2 3.99999C145.3 3.99999 145.3 3.89999 145.8 4.69999C147.8 4.89999 146.9 4.89999 147.9 5.19999C150.1 5.89999 149.8 5.59999 152.6 5.69999C154.6 5.69999 154.3 5.99999 155.6 6.19999C156.2 6.29999 156.8 6.2 157.4 6.29999C160.2 7.09999 161 6.09999 165.9 6.79999C166.6 6.39999 167.4 6.09999 168.2 6.69999C168.1 6.49999 168.3 6.89999 168.3 7.09999C168.5 8.69999 173.4 6.79999 175.2 7.89999C176.3 8.59999 177.5 7.89999 179.4 7.49999C180.3 7.39999 182.1 7.6 181.7 8.6C180.8 9.1 180.3 8.6 174.7 8.79999C175 9.29999 174.6 8.89999 181.9 9.19999C189.8 9.49999 189.9 9.09999 192 9.49999C192.5 9.59999 190.9 9.49999 198.6 9.49999C208 9.59999 210.4 11.3 219.7 10.5C220.7 9.2 220.8 9.39999 222.4 9.39999C223.4 10.3 223.4 10.3 224.4 10.4C225.6 10.6 229.3 10.4 229.3 10.4C231.1 10.2 230.3 10.7 237.3 10.6C242.8 10.5 241.8 10.6 242.6 10.8C242.6 11.1 242.6 11.4 242.4 11.4C241.1 11.6 234.6 11.7 233 11.9C232.8 11.9 232.7 12.2 232.6 12.3C232.7 13.2 233.4 13.2 234.2 13.6C221.7 13.8 225.5 13.6 225.2 14.6C224.2 15.1 222.9 14.7 223.2 16.5C223.5 16.6 223.8 16.8 224.1 16.9C224.4 17.6 223.3 17.5 223 18.1C223.7 18.3 224.3 18.6 224.8 19.2C225.2 19.7 226 19.7 226.1 20.8C226.3 20.4 226.5 20.1 226.6 19.8C227 20.9 226.6 20.3 228.3 21.4C228.6 21.6 228.8 21.9 228.8 22.4C228.9 22.3 229.2 22.3 226.8 22.7C226.5 22.9 226.1 23.1 226.1 23.8C227.1 24.5 226.6 24.5 229.8 24.4C230 24.4 230.1 24.3 230.4 24.1C230.3 23.6 230.2 23.2 230.1 22.9C230.1 22.9 234.8 23 235.4 23.2C235.6 23.2 235.8 23.5 235.7 23.7C235.5 24.2 235.5 24.1 233.2 24.4C232.3 24.5 232.4 24.4 232.4 25.6C231.9 26.1 231.3 25.4 230.7 25.8C230.8 26 230.9 26.2 231 26.3C232.1 27 231.8 26.4 232.1 27.3C230.1 27.9 228.6 26.7 228.5 27.9C228.5 28.8 228.5 28.8 227.8 29.2C226.1 27.8 226.7 28 225.3 28.2C224.9 29.3 224.9 29.7 223.9 29.6C216.3 28.7 218.9 28.1 215.4 28.8C215.2 29.2 215.3 29.4 215.6 29.6V29.5L22.5 30.7ZM15.4 33.5C15.5 33.4 15.6 33.4 14.2 33.5V33.6C13.3 32.1 6.7 34 4 32.3C4.2 31.9 4.2 31.8 4.4 31.7C10.3 31.3 11.1 32.1 13 31.4C13 31.1 13 30.9 12.9 30.6C13.6 30.2 14.4 30.5 15.1 30.6L15.4 33.5ZM185.2 29.6C186.4 29.6 185.5 29.5 189.1 30.1C189.5 30.4 189.6 30.9 189.7 31.3C189.6 31.8 189.3 32 189 32.1C185.8 32.4 185.4 32.1 187.4 32.6C187.5 33 187.4 33.1 187.2 33.1C185.6 33.1 184 33 182.5 32.6C181 33.2 182.4 33 175.1 33.2C175.3 33.6 175.6 33.5 175.8 33.6C178.4 34.2 178.3 34.3 178.4 34.4L185.2 29.6ZM65.2 10.5C65.3 10.6 65.4 10.7 65.5 10.7C66.1 10.7 66 10.3 66.2 10.2C66 10.5 65.6 10.2 65.2 10.5ZM138.3 4.69999V4.49999C138.8 5.19999 140 4.9 140.5 4.8C139.7 4.7 139 4.59999 138.3 4.69999ZM15 22.1C14.7 22 14.5 21.6 14.1 22C14.5 22.2 14.8 22.1 15 22.1C14.9 23.4 17.7 23.3 17.7 24C17.7 24.5 17.9 24.9 18.3 24.9C19.7 25.1 21 25.3 22.4 25C22.5 25 22.6 24.8 22.7 24.7C21.8 23.8 21.9 24.1 22.3 23.7C22.8 23.3 22.8 23.2 22.5 22.4C17.8 21.7 16.6 21.5 15 22.1ZM213.4 30.3V30.4C213 29.9 213.9 29.6 213.8 29.1C213.1 28.8 212.5 28.4 211.9 28.1C210.9 28 209.4 28.5 207.8 27.9C207.5 27.8 205.1 27.8 203.3 27.8C203.2 27.8 203.1 27.9 203 28C203.1 28.3 203.1 28.6 203.2 29C201.3 29.6 200.9 28.2 196.9 28.2C194.4 28.2 191.8 28.4 189.3 27.8C187.5 27.8 185.7 27.8 184 28C185.9 28.2 187.4 28 187.9 28.3C188.9 28.8 189.6 28.7 194.2 28.8C196.2 28.8 194.8 29.3 197.9 29.2C200.4 29.1 200.1 30.1 202.3 30.2C202.7 30.2 204.9 30.5 205.1 29.8C205.4 28.5 206.2 28.6 207.2 28.9C206.8 29.7 206.9 29.5 206.5 29.8C206.4 29.9 206.2 29.9 206.2 30.2C206.6 30.2 207 30.3 207.5 30.3C210.6 30.3 211.8 31.7 213.4 30.3ZM98.9 10.6C99 10.3 98.8 10.1 98.6 10.1C98.1 10 97.5 9.89999 97 9.99999C96.1 10.2 92.7 9.69999 90.4 9.99999C87.2 10.4 86.3 9.99999 84.4 10.5C87.9 11.2 88.5 10.6 90.1 11.2C91.4 11.6 93.3 11.2 96 11.3C97.1 11.3 98 11.1 98.9 10.6ZM198.2 14.8C206.7 15.1 197.6 14.7 210 14.9C213 15 211.8 14.6 213.6 14.4C213.8 14.4 213.8 14.4 214.1 14C213.8 14 213.5 13.9 213.3 13.9C201.8 14 201.9 13.7 198.2 14.8ZM217.1 22.4C217.8 23.5 218.8 22.9 219.7 23.5C220.4 24.5 219.9 24.3 222 24.6C222.5 24.1 222.9 23.8 223.4 23.4C223.4 23.2 223.2 22.4 222.7 22.3C220.8 22 219 22.1 217.1 22.4ZM216.7 15.4C216.4 15.4 216.1 15.9 216.2 16.3C216.3 16.9 216.3 16.8 221.3 16.9C221.4 16.9 221.5 16.8 221.7 16.7C221.3 15.2 221.9 15.4 216.7 15.4ZM214 16.3C213.8 16 213.6 15.7 213.3 15.7C211.9 15.6 210.6 15.6 209.3 15.9C209 16 208.9 16.2 208.8 16.6C208.7 17.1 213.6 16.7 213.6 16.7C213.7 16.7 213.9 16.5 214 16.3ZM50.1 11C47.9 10.8 45.8 11.3 43.7 11.3C35.6 11.3 39.9 12.5 49.6 11.3C49.8 11.3 49.9 11.1 50.1 11ZM179.9 31.5C181.5 31.8 181.6 31.5 182.3 31.7C183.5 32 184.6 31.8 185.7 31.6C185.8 31.6 185.8 31.5 185.9 31.4L179.9 31.5ZM76.5 10.5C75.1 10.1 74.9 10.5 73.1 10.3C70.5 10.1 70.4 10.5 69 10.1C68.4 10 67.8 9.99999 67.2 10.2C67.2 10.2 67.1 10.3 67.1 10.4C67.4 10.9 67.1 10.8 75.8 10.7C76 10.7 76.2 10.6 76.5 10.5ZM35.7 29C35 28.9 34.3 28.7 33.9 29.6C33.7 30 33.4 29.7 33.4 30.5C33.4 30.8 35 30.8 35.8 30.7C35.8 29.4 35.8 29.9 35.7 29ZM40.6 15.8C43 16 45.5 16.1 47.9 15.7C45.4 15.5 43 15.5 40.6 15.8ZM21.7 16.3C20.5 15.7 19.8 15.1 18.7 15.5C18.4 15.6 18.2 15.9 18.2 16.2C18.2 16.6 18.3 16.6 21.1 16.5C21.3 16.5 21.4 16.4 21.7 16.3ZM21.7 20.4C21.3 20.2 22 20.2 17.9 20C16.3 19.9 16.9 20.7 16.9 20.7C17.9 20.8 20.4 20.7 21.7 20.4ZM191.2 22.8C191.4 24.2 192.7 23.6 193.8 23.4C194 23.4 193.8 22.9 193.7 22.8C192.8 22.7 192 22.7 191.2 22.8ZM22.7 16.4C23.7 16.3 24.9 16.5 24.2 15.1C23.4 15.1 23.9 14.9 22.7 16.4ZM64.3 10.5C59.3 10.4 59.3 10.7 63.6 10.8C63.7 10.8 63.9 10.7 64.3 10.5ZM34.3 28.1C35.4 28.3 35.4 28.3 36 28C35.6 27.5 35.1 27.4 34.5 27.6C34.4 27.6 34.4 27.9 34.3 28.1ZM194.7 14.8C193.9 14.8 193.2 14.5 192.5 14.8C193.2 14.8 193.9 14.8 194.7 14.8ZM107.8 6.89999C107.9 6.99999 107.7 6.99999 109.6 6.99999C109.6 6.89999 109.9 6.89999 107.8 6.89999ZM160.6 7.89999C161.2 8.09999 161.9 7.99999 162.5 7.99999C162.4 7.89999 162.6 7.89999 160.6 7.89999ZM30.9 17.9C31.6 18.1 32.2 18.2 32.9 18C33 18 33 17.8 33.1 17.7C33.2 17.5 32.2 17.3 31.2 17.6C31.1 17.6 31 17.7 30.9 17.9ZM38.6 28.1C38.5 27.5 38.4 27.4 38 27.3C37.8 27.3 37.6 27.3 37.5 27.6C37.3 28 38.1 28.5 38.6 28.1ZM227.4 25.6C229.2 25.7 228.9 25.8 229.1 25.5C228.5 25.3 227.9 25.2 227.4 25.6ZM145.4 6.89999C145.9 6.99999 146.4 7.49999 146.8 6.89999C146.3 6.89999 145.8 6.89999 145.4 6.89999ZM169.1 9.1C169.6 9 170 9.29999 170.5 8.89999C170.1 8.89999 169.7 8.79999 169.1 9.1ZM112.4 7.39999C112 6.69999 111.7 7.39999 111.8 7.49999C112.2 7.59999 112.2 7.49999 112.4 7.39999ZM203.4 23.5C203.2 23.3 202.9 23.2 202.6 23.5C202.9 23.5 203.2 23.5 203.4 23.5ZM42.6 13.8C42.4 13.5 42.1 13.4 41.7 13.7C42.1 13.8 42.4 13.8 42.6 13.8ZM12.8 20.4C12.8 20.3 12.7 20 12.3 20C11.8 19.9 11.9 20.4 12.2 20.4C12.4 20.4 12.6 20.4 12.8 20.4ZM207.6 22.5C207.9 22.6 208.2 22.7 208.5 22.5C208.2 22.3 207.9 22.3 207.6 22.5ZM51.8 11.1C51.3 11 51.4 11 51.2 11C51.4 11.2 51.5 11.3 51.8 11.1ZM198.8 22.9C198.6 22.9 198.7 22.9 198.8 22.9C198.6 22.9 198.7 22.9 198.8 22.9ZM29.7 13.9C29.7 14 29.6 14 29.6 14.1C29.5 15 30 14.5 29.7 13.9ZM189 30.1C188.5 30 188.7 30 188.5 30.1C188.7 30.1 188.9 30.1 189 30.1ZM190.6 30.1C190.4 30.1 190.5 30.1 190.6 30.1C190.4 30.1 190.5 30.1 190.6 30.1ZM106.6 6.99999C106.4 6.99999 106.4 6.99999 106.6 6.99999V6.99999ZM45.6 9.6C45.4 9.5 45.5 9.5 45.5 9.6H45.6ZM56.6 10.6C56.5 10.6 56.5 10.6 56.6 10.6V10.6ZM170.8 10.6C171 10.6 171 10.6 170.8 10.6V10.6ZM27.4 16.3V16.2C27.2 16.2 27.2 16.3 27.3 16.4C27.3 16.4 27.3 16.3 27.4 16.3ZM13.8 20.3C13.6 20.4 13.6 20.4 13.8 20.4V20.3ZM41 21.8C40.8 21.8 40.8 21.9 40.9 22C40.9 22 41 22 41.1 22C41.1 21.9 41.1 21.9 41 21.8ZM42.5 21.8V21.9C42.7 22 42.9 21.8 42.6 21.7C42.6 21.8 42.6 21.8 42.5 21.8ZM215 22.5C215.2 22.4 215.2 22.5 215 22.5V22.5ZM197.3 23C197.3 23 197.3 22.9 197.2 22.9C197 22.9 197 23 197.1 23C197.2 23 197.3 23 197.3 23ZM200.3 23.5C200.1 23.4 200.1 23.4 200.1 23.5H200.3ZM215.7 23.4C215.9 23.5 215.9 23.5 215.9 23.4H215.7ZM222.6 28.2C222.6 28.1 222.6 28 222.4 28L222.3 28.1C222.4 28.1 222.5 28.1 222.6 28.2ZM225.5 20.7C225.4 20.9 225.4 20.8 225.6 20.8L225.5 20.7ZM30.5 14.1C30.4 14.3 30.4 14.2 30.5 14.2V14.1Z" fill="#ECB942"/>
<path d="M48.8 30.2C49.1 29.6 49.2 29.6 55.9 29.6C56.8 29.6 59.2 29.7 59.2 29.7C61.8 30.5 65.2 29.9 66.7 30.4C66.6 31 66 30.6 65.8 31.1C66 31.2 66.1 31.3 66.3 31.3C68.7 31.2 69.4 30.9 69.9 31.5C69.5 31.9 69 31.8 68.5 31.8C66.7 31.6 64.8 32 63 31.8C60.9 31.5 60.1 32.4 57.1 32.4C54.8 32.4 54 32.4 52.9 33.1C52.7 33.4 52.6 34.1 52 34C49.5 33.6 47 34.4 46.5 34.1C46.3 33.5 46.7 33 46.9 32.4C47.2 32.1 47.6 31.7 48 31.4C48.3 31.1 48.5 30.5 48.8 30.2C48.9 30.5 48.8 30.8 49.1 31C49.4 31 49.7 31.2 50 31C49.6 30.7 49.2 30.4 48.8 30.2ZM51.4 31C53 30.9 53.4 31.5 55.3 30.7C55.4 30.7 55.4 30.5 55.4 30.3C51.1 30.2 51.7 30.3 51.4 31Z" fill="#ECB942"/>
<path d="M155.3 29.4C157.5 29 157.4 29.6 158.3 29.5C159.5 29.3 161.6 30 162.1 29.9C162.7 29.7 163.3 30.2 163.9 30C164.5 29.8 165.6 30.4 166.5 30.5C167.1 30.5 167.7 30.8 168.3 31C168.4 31.1 168.5 31.3 168.6 31.6C166.8 32.9 164.7 31.3 161.7 31.7C157.1 32.3 142.8 31.2 140.8 30.7C140.8 30.5 140.8 30.3 140.9 30.1C142 29.8 145.7 29.7 148.7 30.2C151.9 30.8 152.8 30.7 153.9 30C153.8 29.8 154 30.4 154.4 30.5C156.1 30.6 155.2 30.3 155.8 30.7C155.8 30.7 155.9 30.7 155.9 30.6C155.5 30.3 155.6 30.5 155.3 29.4Z" fill="#ECB942"/>
<path d="M34.8 4.89998C35.2 4.59998 35.7 4.69998 36.2 4.69998C40.2 4.89998 55.6 3.69998 64.6 3.59998C65 3.59998 65.4 3.59998 65.8 3.89998C65.7 3.99998 65.7 3.99998 65.6 4.09998C58.5 5.49998 58 4.19998 56.2 4.99998C34.1 5.79998 35.3 5.79998 34.8 4.89998Z" fill="#ECB942"/>
<path d="M86.5 3.80005C86.4 4.10005 86.3 4.40005 86.2 4.40005C85.9 4.50005 85.5 4.70005 85.2 4.60005C83.4 4.20005 81.6 4.60005 79.9 4.50005C78.2 4.40005 76.5 4.50005 74.8 4.50005C73.6 4.50005 72.7 4.00005 70.1 4.50005C69.9 4.50005 69 4.40005 69 4.20005C69 2.70005 70.1 3.10005 80.9 3.20005C84.1 3.30005 85 3.00005 86.5 3.80005Z" fill="#ECB942"/>
<path d="M116.9 27.6C118.9 27.8 121 28.2 123 28.8C123.2 28.8 123.3 29.1 123.5 29.2C123.6 29.1 123.8 29.1 122 29.4C122.6 30.3 123.4 30.1 124.1 30.4C124.8 30.7 125.5 30.7 126.2 30.8C126.3 31.3 126.1 31.5 125.9 31.7C125.3 33 127.1 33.5 120.1 31.3C119.5 31.1 118.9 30.8 118.3 30.6C118.1 29.6 118.3 29.9 117.5 29.4C117.5 29.1 117.2 29.2 119.2 29C118.6 28.2 118 28.3 117 27.9C117 27.9 117 27.4 116.9 27.6Z" fill="#ECB942"/>
<path d="M228.1 7.00002C227.3 7.50002 223.3 7.80002 223.3 7.80002C223 8.10002 222.8 8.30002 222.6 8.50002C222.2 8.50002 222 8.00002 221.5 7.80002C217.9 7.70002 217.2 8.00002 215 7.00002C215 6.50002 215.1 6.40002 215.4 6.40002C215.8 6.40002 225.2 6.40002 225.2 6.40002C227.5 6.40002 227.9 6.90002 228.1 7.00002Z" fill="#ECB942"/>
<path d="M112.8 28.5C111.8 28.6 110.8 28.7 109.7 28.8C109.8 29.8 112.1 29.2 112.9 30C111.7 30.6 106.9 30.3 105.2 29.8C103.7 29.4 103.8 30 103.1 29.1C102.3 28.1 105.7 28.1 106.9 28C108.9 28 110.9 27.9 112.8 28.5ZM105.8 28.9C106.2 29.4 106.7 29.2 107.1 29C106.7 28.6 106.3 28.5 105.8 28.9Z" fill="#ECB942"/>
<path d="M231.9 18.6C231.5 18.3 231.1 17.9 230.7 17.8C230.1 17.7 229.8 18.7 229.2 18.5C229 18.4 229 18.4 229 17.7C228.2 17.6 227.5 17.6 226.9 18.2C225.8 17.7 225.3 17.7 225.7 17C229.4 16.7 234 16.9 235 17C235.1 17.2 235.2 17.3 235.2 17.5C235.3 18 233.9 17.8 234.8 19C234.6 18.8 235 19.2 234 19.7C233.2 19.6 232.3 19.4 231.5 19.3C231.8 18.9 232.1 18.1 231.9 18.6Z" fill="#ECB942"/>
<path d="M110.9 4.69998C110.1 4.29998 110.1 4.29998 109.9 3.69998C110.9 3.59998 124.9 3.49998 127 3.79998C124.2 4.59998 125.7 4.29998 123.5 4.19998C117.1 3.99998 115.5 4.39998 112.8 4.19998C112.1 4.29998 111.5 4.39998 110.9 4.69998Z" fill="#ECB942"/>
<path d="M34 29.3C33.7 28.3 32.6 28 42.1 28.5C42.3 28.8 42.1 29 41.9 29C40.5 29.3 35.2 29.6 34 29.3Z" fill="#ECB942"/>
<path d="M91.7 30.7C93.8 30 94.1 31 94.6 30.7C95.8 30.1 97.9 30.6 100.4 31C100.5 31 100.5 31.2 100.6 31.4C100.3 31.7 93.7 31.5 91.9 31C91.9 31.1 91.8 30.9 91.7 30.7Z" fill="#ECB942"/>
<path d="M33.3 33.2C33.8 33.1 34.2 33 34.7 32.9C34.7 32.9 35.5 31.2 36 32.7C36.7 32.9 37.4 32.8 38 32.7C39.6 32.4 42.9 32.3 43.8 32.7C40.3 33.4 36.8 33.8 33.3 33.2Z" fill="#ECB942"/>
<path d="M132.4 0.0999756C135.4 0.899976 138.4 0.899976 123.1 0.899976C123.5 0.499976 123.8 0.699976 124.1 0.699976C131.3 0.599976 129.6 0.899976 132.4 0.0999756Z" fill="#ECB942"/>
<path d="M129.6 30.6C129.5 31.6 129.1 31.4 126.2 30.8C123.4 30.3 123.2 30.1 122.9 29.7C123.2 29.1 123.2 29.6 127.5 29.9C128.2 30 128.9 30.2 129.6 30.6Z" fill="#ECB942"/>
<path d="M87.5 4.40002C88 4.10002 88.5 4.30002 89.1 4.20002C89.5 4.00002 90.1 3.70002 90.5 3.40002C95.1 3.70002 95.1 3.60002 95 4.10002C95 4.20002 94.6 4.40002 94.5 4.40002C91.8 4.20002 91.8 5.10002 89.9 4.80002C89.2 4.60002 88.4 4.60002 87.5 4.40002Z" fill="#ECB942"/>
<path d="M90.9 31C90.3 31.8 89.9 30.9 88.5 31.1C88 31.2 87.4 31.4 86.9 31.3C85.9 31.1 84.9 31.2 83.9 30.9C82.5 30.4 87 30.3 90.8 30.6C90.8 30.8 90.8 30.9 90.9 31Z" fill="#ECB942"/>
<path d="M120 32.5C122.7 32 123.1 32.1 124.2 32.6C124.2 32.8 124.2 33.1 124.1 33.3C123.9 34 123 33.7 122.9 33.6C122.1 32.8 121.2 32.8 120 32.5Z" fill="#ECB942"/>
<path d="M115.9 0.899957C116.4 -0.500043 116.9 0.499957 121.6 0.699957C119.5 0.999957 117.2 1.09996 115.9 0.899957Z" fill="#ECB942"/>
<path d="M174.6 6.99998C174 7.59998 173.4 6.59998 172.6 6.99998C172.2 7.19998 171.7 6.89998 171.2 7.09998C171.2 7.09998 170.9 6.69998 171.2 6.59998C172 6.39998 174.6 5.99998 174.6 6.99998Z" fill="#ECB942"/>
<path d="M56 36C56.6 35.2 58.8 36.2 60.7 35.3C60.9 35.2 61 35.9 60.4 36.1C59.6 36.3 58.8 35.9 56.9 36.3C56.7 36.3 56.3 36.3 56 36Z" fill="#ECB942"/>
<path d="M178.8 6.8C179.4 6.2 180.9 6.3 181.7 6.6C181.8 6.6 182 6.9 182.1 7.1C181.6 7.4 181.1 7.2 180.7 7.3C180.3 7.4 179.9 7 179.6 6.9C179.3 6.7 179 6.7 178.8 6.8Z" fill="#ECB942"/>
<path d="M26 34C25.4 34.5 23.8 34.1 22.9 33.6C22.8 33.6 22.6 33.2 22.9 33.1C23.6 32.9 24.4 33.5 25.1 33.2C25.4 33.4 25.9 33.4 26 34Z" fill="#ECB942"/>
<path d="M142.6 0.900005C144.2 -1.1 145.9 0.600005 145.3 0.800005C144.7 1.1 145.2 1 142.6 0.900005Z" fill="#ECB942"/>
<path d="M198.8 32.9C198.2 33.2 197.7 32.9 197.1 32.5C198.3 32.1 198.4 32.1 198.8 32.9Z" fill="#ECB942"/>
<path d="M69.2 33.3C68.1 34.1 68.2 34.2 67.7 33.5C67.7 33.2 67.8 32.9 67.8 32.5C67.8 32.2 68.1 32.1 68.2 32.2C68.6 32.5 68.9 32.9 69.2 33.3Z" fill="#ECB942"/>
<path d="M109.5 36.4C110.2 36.1 109.9 35.9 111.3 37.2C110.6 37.4 110 37.4 109.4 37.2C109.3 37.2 109.2 37 109.1 36.9C109.1 36.9 108.9 37.1 109.5 36.4Z" fill="#ECB942"/>
<path d="M195.8 32.5C195.7 33.1 195.7 33.1 195.4 33.2C194.9 33.2 194.5 32.9 194.3 32.4C194.8 32.3 195.3 32.1 195.8 32.5Z" fill="#ECB942"/>
<path d="M37.5 30.8C35 30.9 35.3 31 35.2 30.6C35.1 30.4 35.7 30.5 37.5 30.6C37.5 30.6 37.5 30.7 37.5 30.8Z" fill="#ECB942"/>
<path d="M168.4 6.70006C169.3 6.20006 169.4 6.20006 170 6.90006C169.1 7.60006 168.2 6.40006 168.4 6.70006Z" fill="#ECB942"/>
<path d="M204.6 6.6C205.2 6.2 206.2 6.5 205.8 6.7C205.6 6.8 205.4 7.1 205.1 7.1C204.9 7.1 204.6 7 204.6 6.6Z" fill="#ECB942"/>
<path d="M17.8 33.7001C18.2 33.3001 18.7 33.5001 19.1 33.7001C19.2 34.9001 18.6 34.5001 17.8 33.7001Z" fill="#ECB942"/>
<path d="M98.2 29.2C96.1 29.2 96.5 29.2 96.3 29.1C96.5 28.9 96.1 28.9 98.2 29.1V29.2Z" fill="#ECB942"/>
<path d="M55.8 28.8C55 29.3 54.8 29.6 54.4 28.6C55.6 27.8 55.7 29.1 55.8 28.8Z" fill="#ECB942"/>
<path d="M67.4 34.9C67.7 34.5 68.1 34.5 68.4 34.6C68.5 34.6 68.5 34.8 68.6 34.9C68.7 35.1 67.9 35.1 67.7 35.1C67.6 35.1 67.5 34.9 67.4 34.9Z" fill="#ECB942"/>
<path d="M28.2 9.10006C27.7 9.10006 27 9.30006 27.2 8.80006C27.4 8.40006 28 8.50006 28.2 9.10006Z" fill="#ECB942"/>
<path d="M46 28.7001C45.8 29.2001 45 29.3001 45 29.0001C45 28.9001 45 28.8001 45.1 28.8001C45.4 28.5001 45.4 28.5001 46 28.7001Z" fill="#ECB942"/>
<path d="M111.5 36.1C111.7 35.5 112.2 35.6 112.2 35.8C112.2 35.9 112.2 36.1 112.1 36.2C111.9 36.3 111.7 36.3 111.5 36.1Z" fill="#ECB942"/>
<path d="M205.2 4.99998C204.8 5.19998 204.5 5.19998 204.1 4.99998C204.5 4.79998 204.9 4.79998 205.2 4.99998Z" fill="#ECB942"/>
<path d="M138.6 0.900049C137.8 0.800049 137.9 0.800049 137.9 0.800049C138.7 0.800049 138.6 0.800049 138.6 0.900049Z" fill="#ECB942"/>
<path d="M101.9 31.5C102.2 31.6 102.1 31.9 101.9 31.8C101.7 31.8 101.6 31.7 101.7 31.5C101.7 31.6 101.8 31.6 101.9 31.5Z" fill="#ECB942"/>
<path d="M230.3 23.2C230.4 23 229.6 23.3 229.1 22.6C228.8 22.9 229.9 22.5 230.3 23.2Z" fill="#ECB942"/>
<path d="M195.8 7.09998C195.6 7.09998 195.5 6.69998 195.8 6.79998C195.9 6.79998 196 6.89998 196.1 6.99998C196.1 6.99998 195.9 7.09998 195.8 7.09998Z" fill="#ECB942"/>
<path d="M18.8 5.89995C18.5 6.09995 18.7 6.19995 18.3 5.89995C18.7 5.79995 18.6 5.79995 18.8 5.89995Z" fill="#ECB942"/>
<path d="M206.5 5.19995C207.2 5.49995 206.1 5.69995 206.3 5.29995C206.4 5.29995 206.5 5.29995 206.5 5.19995Z" fill="#ECB942"/>
<path d="M103.9 3.69995C104.1 3.79995 104.3 3.89995 104.2 3.99995C103.9 4.49995 103.3 3.99995 103.5 3.79995C103.6 3.79995 103.8 3.69995 103.9 3.69995Z" fill="#ECB942"/>
<path d="M86.1 33.5C86.1 33.8 85.9 33.9 85.7 33.4C85.7 33.4 85.8 33.3 85.8 33.2C85.9 33.4 86 33.5 86.1 33.5Z" fill="#ECB942"/>
<path d="M105.3 4.00005L105.2 3.90005C105.3 3.90005 105.3 3.80005 105.4 3.80005C105.5 3.90005 105.5 4.00005 105.3 4.00005Z" fill="#ECB942"/>
<path d="M4.59999 12.6C4.69999 12.6 4.69999 12.5 4.79999 12.5C5.09999 12.6 4.89999 12.9 4.69999 12.7C4.59999 12.7 4.59999 12.7 4.59999 12.6Z" fill="#ECB942"/>
<path d="M232.6 40.4C232.8 40.4 232.8 40.3 232.8 40.5L232.6 40.4Z" fill="#ECB942"/>
<path d="M234 40.5C233.9 40.5 233.9 40.6 233.8 40.5C233.7 40.4 233.7 40.4 233.9 40.4C234 40.4 234 40.4 234 40.5Z" fill="#ECB942"/>
<path d="M114.5 29.9C114.5 30 114.5 30 114.3 30L114.5 29.9Z" fill="#ECB942"/>
<path d="M43.9 28.6C43.9 28.6 43.9 28.7 44 28.7C43.9 28.7 43.9 28.8 43.8 28.8C43.6 28.7 43.7 28.6 43.9 28.6Z" fill="#ECB942"/>
<path d="M69.9 32.2999C69.7 32.2999 69.8 32.3 69.8 32.2L69.9 32.2999Z" fill="#ECB942"/>
<path d="M62 34.9C61.8 34.8 61.8 34.8 62 34.9V34.9Z" fill="#ECB942"/>
<path d="M85.4 28.6V28.7C85.2 28.8 85.2 28.7 85.1 28.6C85.3 28.5 85.2 28.5 85.4 28.6Z" fill="#ECB942"/>
<path d="M70.7 36.6C70.5 36.5 70.5 36.5 70.7 36.6V36.6Z" fill="#ECB942"/>
<path d="M101.3 26.8C101.1 26.8 101 26.8 101.1 26.6H101.2C101.3 26.8 101.2 26.9 101.3 26.8Z" fill="#ECB942"/>
<path d="M30 32.7C30 32.9 30.1 32.7999 29.9 32.7999L30 32.7Z" fill="#ECB942"/>
<path d="M15.4 33.5C15.5 33.6 15.5 33.7 15.4 33.5V33.5Z" fill="#ECB942"/>
<path d="M14.2 33.4C14.1 33.6 14.1 33.6 14.2 33.4V33.4Z" fill="#ECB942"/>
<path d="M215.8 29.9C215.8 29.8 215.9 29.7 215.9 29.7C216 29.7 216 29.8 215.8 29.9Z" fill="#ECB942"/>
<path d="M234.8 19.1C234.9 19 234.9 19 234.8 19.1V19.1Z" fill="#ECB942"/>
<path d="M178.7 6.69995C178.6 6.89995 178.8 6.69995 178.7 6.69995V6.69995Z" fill="#ECB942"/>
<path d="M176.4 7.00004C176.4 6.80004 176.3 6.80004 176.5 6.90004L176.4 7.00004Z" fill="#ECB942"/>
<path d="M143.1 38.8C143.2 38.7 143.2 38.5 143.3 38.4C143.6 38.1 143.8 38.9 143.4 38.9C143.3 39 143.2 38.9 143.1 38.8Z" fill="#ECB942"/>
<path d="M78.2 29.8C80.4 29.4 80.3 30 81.2 29.9C82.4 29.7 84.5 30.4 85 30.3C85.6 30.1 86.2 30.6 86.8 30.4C87.4 30.2 88.5 30.8 89.4 30.9C90 30.9 90.6 31.2 91.2 31.4C91.3 31.5 91.4 31.7 91.5 32C89.7 33.3 87.6 31.7 84.6 32.1C80 32.7 65.7 31.6 63.7 31.1C63.7 30.9 63.7 30.7 63.8 30.5C64.9 30.2 68.6 30.1 71.6 30.6C74.8 31.2 75.7 31.1 76.8 30.4C76.7 30.2 76.9 30.8 77.3 30.9C79 31 78.1 30.7 78.7 31.1C78.7 31.1 78.8 31.1 78.8 31C78.4 30.7 78.5 30.9 78.2 29.8Z" fill="#ECB942"/>
<path d="M105.5 32.7C106 30.5 106.5 32.1 111.2 32.4C109.1 32.9 106.8 33 105.5 32.7Z" fill="#ECB942"/>
<path d="M123.6 31.5C124 31.2 124.5 31.2999 125 31.2999C129 31.4999 144.4 30.3 153.4 30.2C153.8 30.2 154.2 30.2 154.6 30.5C154.5 30.6 154.5 30.6 154.4 30.7C147.3 32.1 146.8 30.8 145 31.6C122.8 32.4 124 32.4 123.6 31.5Z" fill="#ECB942"/>
</g>
<defs>
<clipPath id="clip0_22_0">
<rect width="242.8" height="40.5" fill="white"/>
</clipPath>
</defs>
</svg>
