<svg width="43" height="51" viewBox="0 0 43 51" fill="none" xmlns="http://www.w3.org/2000/svg">
<path d="M42.0128 11.0185C41.4389 11.4008 40.6124 11.9854 39.6941 12.6601C37.2376 14.1217 34.9418 15.7632 32.7838 17.6521C32.4394 17.9669 32.095 18.3042 31.7736 18.619L31.7507 18.6415C30.3043 19.7659 27.9397 23.5436 26.654 25.6574C26.4933 25.9272 26.3097 26.1971 26.149 26.4894C26.149 26.4894 27.1821 22.5093 25.9423 17.3823C25.9194 17.3148 25.9194 17.2474 25.8964 17.1799C25.8735 17.1349 25.8735 17.0675 25.8505 17.0225C25.8046 16.8426 25.7587 16.6627 25.6898 16.4828C25.6209 16.2579 25.5521 16.0556 25.4832 15.8532C25.4143 15.6733 25.3684 15.4709 25.2995 15.291C25.2766 15.2011 25.2306 15.1111 25.2077 15.0437C24.519 13.1772 23.5088 11.2434 22.0395 9.30952C20.4784 7.21825 18.6418 5.30688 16.6903 3.48545C16.2771 3.08069 15.8868 2.74339 15.5424 2.45106C15.5424 2.45106 15.5195 2.45106 15.5195 2.42857C15.1522 2.11376 14.8308 1.84392 14.5553 1.64153C13.4074 0.607143 13.1778 0 13.1778 0C12.7645 0.854497 12.4891 1.57407 12.2595 2.13624C12.1447 2.3836 12.0529 2.69841 11.961 3.03571C11.8922 3.2381 11.8692 3.35053 11.8692 3.35053C11.7314 3.82275 11.5937 4.38492 11.456 5.03704C9.64229 12.7725 14.9226 20.0807 22.8201 20.5979C22.338 17.877 20.5013 15.7857 19.4453 13.3571C19.4453 13.3571 23.1415 15.291 24.0828 20.7778C24.1975 21.4749 24.2894 22.2169 24.3582 23.0265V23.004C24.3812 23.0939 24.3812 23.2063 24.3812 23.2963C24.3812 23.3862 24.4042 23.4987 24.4042 23.5886C24.4042 24.7579 24.4042 26.0397 24.4501 26.3545C24.4501 26.7368 24.4271 27.1415 24.4042 27.5463C24.3123 29.4352 24.1746 31.3915 24.0598 33.7976C21.213 28.8505 17.6086 25.3651 13.2696 23.0489C13.2696 23.0489 4.77523 18.3492 0 19.2487C0 19.2487 0.73465 35.5741 14.5553 33.4378C16.0016 33.3254 17.4479 32.9881 18.7106 32.3585C17.9071 31.6839 17.1725 31.0317 16.3919 30.4471C14.2338 28.918 11.961 27.6362 9.48158 26.6693C9.82595 26.5344 10.1703 26.3995 10.4917 26.287C11.7774 26.7368 13.086 27.1415 14.3716 27.6362C18.1596 29.1204 20.7539 32.0886 23.1415 35.0569C24.2435 36.4286 23.2104 38.16 22.6594 39.8466C22.2461 39.6442 21.9018 39.3518 21.6033 38.9921C21.1212 38.6997 20.7998 38.205 20.4784 37.7553C20.157 37.3056 19.8356 36.8783 19.606 36.4061C19.5601 36.3611 19.5371 36.2936 19.4912 36.2487C19.2387 35.8889 18.9172 35.4392 18.2974 35.2368C17.5168 34.9894 16.7363 35.4616 16.1853 35.754C15.1751 36.2712 14.1879 36.9233 14.0043 37.7328C13.8436 38.3849 14.4864 39.037 14.142 39.6667C13.8206 40.2513 12.8564 40.2963 11.961 40.3862C10.7443 40.4987 9.61933 40.8585 8.74693 41.3757C7.7827 41.9378 7.20876 42.6574 7.09397 43.4669C6.95622 44.254 7.09397 45.041 6.61185 45.7831C6.24453 46.3677 5.64762 46.8849 4.8441 47.2897C4.29311 47.5595 3.76508 47.7619 3.48959 48.1442C7.82862 49.9656 13.1548 51.045 18.9172 51.045C27.228 51.045 34.6434 48.7963 39.4875 45.3108C39.4645 45.2884 39.4415 45.2884 39.4186 45.2884C38.3625 44.7936 37.4442 44.164 36.7555 43.4894C36.1127 42.8373 35.7453 42.1402 35.378 41.4206C34.9648 40.5436 34.276 39.5317 32.3935 39.6217C30.9701 39.6892 30.0977 40.3188 29.0416 40.791C28.1233 41.1958 27.1132 41.2857 26.0112 41.0833C25.2995 40.9484 24.6567 40.746 24.0598 40.4987C24.5649 38.5423 25.047 36.586 25.4832 34.6071C26.6311 29.6376 30.8324 23.881 34.5515 22.4643C32.5771 25.1402 30.0747 27.254 29.0416 30.4246C36.4341 30.0423 41.3241 26.0847 42.5638 20.3056V20.2831C42.5868 20.1481 42.6327 20.0132 42.6556 19.8783C42.6556 19.8558 42.6556 19.8333 42.6786 19.8108C42.7015 19.6984 42.7015 19.6085 42.7245 19.496C42.7475 19.3836 42.7704 19.2712 42.7704 19.1587C43.528 13.9193 42.0128 11.0185 42.0128 11.0185Z" fill="#97BC59"/>
</svg>
