<svg width="49" height="39" viewBox="0 0 49 39" fill="none" xmlns="http://www.w3.org/2000/svg">
<path d="M7.49555 0.782715C7.49423 0.782715 7.49275 0.782715 7.49143 0.782715C7.02799 0.782715 6.5921 0.963372 6.26296 1.29169C5.93018 1.62364 5.74689 2.06563 5.74689 2.53616V28.8288C5.74689 29.793 6.53435 30.5793 7.50248 30.5817C11.5838 30.5915 18.4218 31.4421 23.139 36.3786V8.86263C23.139 8.5358 23.0555 8.22876 22.8979 7.97469C19.0263 1.73962 11.5862 0.792284 7.49555 0.782715Z" fill="#97BC59"/>
<path d="M43.2533 28.8288V2.53604C43.2533 2.06551 43.07 1.62351 42.7372 1.29157C42.4081 0.96325 41.9718 0.782593 41.5089 0.782593C41.5074 0.782593 41.5059 0.782593 41.5046 0.782593C37.4142 0.792327 29.9741 1.73966 26.1022 7.97473C25.9447 8.2288 25.8614 8.53584 25.8614 8.86267V36.3785C30.5786 31.442 37.4165 30.5914 41.4978 30.5816C42.4658 30.5792 43.2533 29.7928 43.2533 28.8288Z" fill="#97BC59"/>
<path d="M47.2469 6.84619H45.9755V28.8288C45.9755 31.2905 43.9698 33.2979 41.5043 33.304C38.0425 33.3122 32.3343 33.9891 28.2917 37.8153C35.2834 36.1034 42.6539 37.2162 46.8544 38.1735C47.3789 38.2929 47.9209 38.1695 48.3411 37.8346C48.7598 37.5005 49 37.0011 49 36.4651V8.59931C49.0002 7.63267 48.2135 6.84619 47.2469 6.84619Z" fill="#97BC59"/>
<path d="M3.02448 28.8288V6.84619H1.75312C0.786643 6.84619 0 7.63267 0 8.59931V36.4646C0 37.0008 0.240216 37.5 0.658945 37.8341C1.07883 38.1688 1.62031 38.2927 2.14561 38.173C6.3461 37.2156 13.7167 36.1029 20.7081 37.8148C16.6657 33.9888 10.9576 33.3121 7.49571 33.3038C5.03035 33.2979 3.02448 31.2905 3.02448 28.8288Z" fill="#97BC59"/>
</svg>
